<svg width="132" height="147" viewBox="0 0 132 147" fill="none" xmlns="http://www.w3.org/2000/svg">
<path d="M116.754 73.5036C118.543 71.5147 120.196 69.5187 121.714 67.5156C130.992 55.2401 133.704 44.3134 129.329 36.7482C124.954 29.183 114.141 26.0428 98.8755 27.9483C96.3918 28.2576 93.8391 28.6953 91.2175 29.2615C90.3896 26.7208 89.4975 24.2657 88.5269 21.9818C82.5389 7.80783 74.4242 0 65.6886 0C62.9479 0.0177194 60.2601 0.756126 57.895 2.14109C58.649 2.7701 59.3098 3.503 59.8576 4.31785C61.655 3.36663 63.6551 2.86233 65.6886 2.84764C73.2109 2.84764 80.3907 10.0346 85.9076 23.0738C86.8116 25.2339 87.6514 27.5059 88.4269 29.8896C80.6325 31.8287 73.0256 34.4559 65.6957 37.7403C58.3597 34.4591 50.7483 31.832 42.9502 29.8896C43.7282 27.5201 44.5632 25.2363 45.4767 23.0809C45.8193 22.2602 46.1904 21.468 46.533 20.6972C45.6516 20.3346 44.8233 19.8545 44.0707 19.2698C43.6567 20.1548 43.25 21.0612 42.8503 22.0104C41.8725 24.3085 40.9804 26.7493 40.1596 29.2901C37.538 28.7191 34.9854 28.2814 32.5017 27.9769C17.2286 26.0784 6.41611 29.2044 2.04116 36.7768C-2.3338 44.3491 0.378232 55.2686 9.65628 67.5442C11.1693 69.5426 12.8227 71.5385 14.6165 73.5321C12.818 75.509 11.1622 77.5145 9.65628 79.5057C0.378232 91.7813 -2.32666 102.708 2.04116 110.273C4.26789 114.127 8.1504 116.818 13.4603 118.295C13.4603 118.074 13.4603 117.846 13.4603 117.581C13.4611 116.838 13.5352 116.097 13.6815 115.369C9.39936 114.084 6.3233 111.872 4.55334 108.81C0.792158 102.294 3.42571 92.4807 11.9687 81.1829C13.396 79.3131 14.9305 77.4432 16.6005 75.5947C22.1598 81.3768 28.2268 86.6484 34.7284 91.346C35.5413 99.3435 37.07 107.252 39.2961 114.976C37.9353 115.262 36.5888 115.514 35.2566 115.733C35.3635 116.338 35.416 116.952 35.4136 117.567C35.4152 117.913 35.3986 118.258 35.3636 118.602C36.9338 118.359 38.5276 118.062 40.1454 117.71C40.9661 120.251 41.8582 122.706 42.836 124.99C48.8239 139.164 56.9315 146.971 65.6743 146.971C74.4171 146.971 82.5318 139.164 88.5126 124.99C89.4832 122.692 90.3753 120.244 91.2032 117.703C93.5941 118.231 95.935 118.631 98.2188 118.937C98.1612 118.483 98.1326 118.025 98.1332 117.567C98.1328 117.061 98.1686 116.555 98.2403 116.054C96.2229 115.778 94.1603 115.419 92.0525 114.976C94.2755 107.254 95.8018 99.348 96.613 91.3531C103.145 86.6731 109.243 81.4158 114.834 75.6446C116.504 77.4931 118.052 79.363 119.466 81.2329C128.03 92.5307 130.649 102.344 126.888 108.86C125.239 111.558 122.723 113.617 119.751 114.698C120.011 115.64 120.145 116.612 120.151 117.589C124.319 116.026 127.43 113.578 129.329 110.287C133.704 102.722 130.999 91.7956 121.714 79.52C120.208 77.4931 118.552 75.4876 116.754 73.5036ZM89.2619 32.623C91.2411 39.4247 92.6543 46.3784 93.4871 53.413C89.7116 50.7938 85.7363 48.2744 81.6111 45.8978C77.486 43.5212 73.318 41.323 69.1571 39.3603C75.6638 36.572 82.3879 34.3211 89.2619 32.6302V32.623ZM42.0866 32.623C48.9606 34.3174 55.6846 36.5706 62.1914 39.3603C58.0377 41.323 53.8697 43.5069 49.7374 45.8978C45.6051 48.2887 41.637 50.7938 37.8616 53.413C38.6947 46.3808 40.1079 39.4295 42.0866 32.6302V32.623ZM34.3716 87.5348C28.6989 83.3028 23.3853 78.6098 18.4847 73.5036C23.3892 68.3987 28.7051 63.7058 34.3787 59.4723C34.0005 64.0542 33.8077 68.7503 33.8077 73.5107C33.8077 78.2711 34.0005 82.9814 34.3787 87.5634L34.3716 87.5348ZM34.7284 55.6326C28.2085 60.332 22.1225 65.6059 16.5435 71.391C14.8734 69.5449 13.3294 67.6798 11.9115 65.7956C3.34719 54.4978 0.735094 44.6916 4.49627 38.1756C7.4938 32.9728 14.3452 30.2536 24.13 30.2536C26.8052 30.2635 29.4773 30.4399 32.1306 30.7817C34.4572 31.0672 36.8481 31.4954 39.2675 31.9878C37.049 39.7272 35.5299 47.6501 34.7284 55.6612V55.6326ZM42.0795 114.363C40.1063 107.565 38.6956 100.616 37.8616 93.587C41.637 96.1991 45.6123 98.7184 49.7374 101.095C53.8626 103.472 58.0306 105.67 62.1843 107.633C55.6787 110.426 48.9545 112.679 42.0795 114.37V114.363ZM85.8933 123.912C80.3764 136.958 73.1966 144.159 65.6743 144.159C58.1519 144.159 50.9793 136.973 45.4624 123.933C44.5489 121.792 43.7139 119.487 42.9359 117.118C47.4638 116.01 51.9265 114.652 56.3035 113.049C59.4009 111.912 62.5245 110.649 65.6743 109.26C73.0041 112.544 80.611 115.171 88.4055 117.11C87.6347 119.48 86.7973 121.749 85.8933 123.919V123.912ZM89.2691 114.363C82.3915 112.679 75.6647 110.43 69.1571 107.64C73.3108 105.677 77.4788 103.493 81.604 101.102C85.7292 98.7113 89.7045 96.2062 93.4799 93.5941C92.6482 100.623 91.2399 107.572 89.2691 114.37V114.363ZM93.901 89.8044C89.6188 92.8947 84.9941 95.8494 80.1837 98.6257C75.3734 101.402 70.506 103.907 65.6743 106.098C60.8426 103.907 55.9894 101.409 51.172 98.6257C46.4541 95.9152 41.8759 92.9687 37.4548 89.7973C36.9338 84.5159 36.6625 79.0561 36.6625 73.4893C36.6625 67.9224 36.9338 62.4841 37.4548 57.2027C41.7369 54.1053 46.3545 51.1434 51.172 48.36C55.9894 45.5766 60.8497 43.0858 65.6814 40.8948C70.5132 43.0858 75.3734 45.5838 80.1909 48.36C85.0083 51.1363 89.5974 54.1053 93.9081 57.1956C94.422 62.477 94.7003 67.901 94.7003 73.4893C94.7003 79.0775 94.4148 84.5301 93.901 89.8115V89.8044ZM102.701 83.01C100.867 84.5373 98.9539 86.0575 96.9913 87.5491C97.3695 82.9672 97.5694 78.271 97.5694 73.4893C97.5694 68.7075 97.3696 64.0257 96.9984 59.4437C102.664 63.6895 107.973 68.3918 112.871 73.5036C109.667 76.8658 106.271 80.0399 102.701 83.01ZM96.6201 55.6612C95.8096 47.6638 94.2833 39.7553 92.0597 32.0307C94.5076 31.5168 96.8985 31.11 99.1966 30.8245C101.85 30.4828 104.522 30.3064 107.197 30.2964C116.982 30.2964 123.833 33.0156 126.831 38.2184C130.592 44.7345 127.959 54.5407 119.408 65.8385C117.981 67.7131 116.437 69.5782 114.777 71.4338C109.207 65.6454 103.13 60.3668 96.6201 55.6612Z" fill="url(#paint0_linear_178_24)"/>
<path d="M24.4083 109.46C22.5134 109.459 20.6774 110.118 19.2159 111.324C17.7545 112.53 16.759 114.208 16.4006 116.068C16.3062 116.572 16.2584 117.083 16.2579 117.596C16.256 118.046 16.2942 118.494 16.3721 118.937C16.6829 120.833 17.6537 122.557 19.1129 123.806C20.5721 125.055 22.4258 125.748 24.3465 125.763C26.2671 125.777 28.1311 125.112 29.609 123.886C31.0869 122.659 32.0837 120.949 32.4231 119.059C32.5093 118.576 32.5523 118.086 32.5516 117.596C32.5524 117.117 32.5094 116.639 32.4231 116.168C32.0891 114.286 31.1026 112.582 29.6368 111.355C28.171 110.128 26.3198 109.457 24.4083 109.46Z" fill="url(#paint1_linear_178_24)"/>
<path d="M109.124 109.46C107.166 109.458 105.273 110.162 103.792 111.443C102.311 112.723 101.341 114.495 101.059 116.432C101.002 116.818 100.973 117.206 100.974 117.596C100.974 118.167 101.034 118.736 101.152 119.294C101.529 121.218 102.587 122.94 104.132 124.147C105.676 125.353 107.604 125.961 109.561 125.861C111.519 125.76 113.374 124.957 114.787 123.599C116.2 122.24 117.075 120.418 117.253 118.466C117.282 118.182 117.296 117.896 117.296 117.61C117.298 116.931 117.214 116.255 117.046 115.597C116.598 113.838 115.575 112.279 114.14 111.167C112.705 110.055 110.939 109.454 109.124 109.46Z" fill="url(#paint2_linear_178_24)"/>
<path d="M45.3552 16.6362C46.0689 17.2756 46.8905 17.7831 47.7818 18.135C48.7388 18.5208 49.7617 18.7171 50.7936 18.7131C52.2912 18.7129 53.7598 18.3001 55.0382 17.52C56.3166 16.7399 57.3554 15.6226 58.0405 14.2909C58.7255 12.9591 59.0304 11.4643 58.9216 9.97067C58.8128 8.477 58.2946 7.04219 57.4238 5.82373C56.6703 4.76866 55.6753 3.90913 54.5219 3.31691C53.3685 2.72469 52.0902 2.41696 50.7936 2.41939C49.1444 2.42035 47.5344 2.92158 46.1761 3.85686C44.8178 4.79215 43.7751 6.11749 43.1859 7.6578C42.5967 9.19812 42.4886 10.881 42.8759 12.484C43.2632 14.087 44.1278 15.5349 45.3552 16.6362Z" fill="url(#paint3_linear_178_24)"/>
<path d="M80.6693 88.4961C88.9499 80.2155 88.9499 66.7899 80.6693 58.5093C72.3886 50.2286 58.963 50.2286 50.6824 58.5093C42.4018 66.7899 42.4017 80.2155 50.6824 88.4961C58.963 96.7768 72.3886 96.7768 80.6693 88.4961Z" fill="url(#paint4_linear_178_24)"/>
<defs>
<linearGradient id="paint0_linear_178_24" x1="9.0211" y1="131.87" x2="106.391" y2="31.5525" gradientUnits="userSpaceOnUse">
<stop stop-color="#EE3B5C"/>
<stop offset="0.49" stop-color="#F0685B"/>
<stop offset="1" stop-color="#F6CD55"/>
</linearGradient>
<linearGradient id="paint1_linear_178_24" x1="9.8132" y1="132.633" x2="107.176" y2="32.3233" gradientUnits="userSpaceOnUse">
<stop stop-color="#EE3B5C"/>
<stop offset="0.49" stop-color="#F0685B"/>
<stop offset="1" stop-color="#F6CD55"/>
</linearGradient>
<linearGradient id="paint2_linear_178_24" x1="53.4486" y1="174.991" x2="150.811" y2="74.6742" gradientUnits="userSpaceOnUse">
<stop stop-color="#EE3B5C"/>
<stop offset="0.49" stop-color="#F0685B"/>
<stop offset="1" stop-color="#F6CD55"/>
</linearGradient>
<linearGradient id="paint3_linear_178_24" x1="-30.0897" y1="93.9082" x2="67.2728" y2="-6.40906" gradientUnits="userSpaceOnUse">
<stop stop-color="#EE3B5C"/>
<stop offset="0.49" stop-color="#F0685B"/>
<stop offset="1" stop-color="#F6CD55"/>
</linearGradient>
<linearGradient id="paint4_linear_178_24" x1="9.02445" y1="131.877" x2="106.387" y2="31.5665" gradientUnits="userSpaceOnUse">
<stop stop-color="#EE3B5C"/>
<stop offset="0.49" stop-color="#F0685B"/>
<stop offset="1" stop-color="#F6CD55"/>
</linearGradient>
</defs>
</svg>
