<svg width="40" height="36" viewBox="0 0 40 36" fill="none" xmlns="http://www.w3.org/2000/svg">
<path d="M36.3729 8.4505C36.3941 8.46749 36.4154 8.48591 36.4366 8.50574C36.4536 8.52274 36.4678 8.53973 36.4834 8.55673C36.7978 8.86409 37.1009 9.18421 37.3913 9.51707C37.5443 9.69271 37.8148 9.70262 37.9791 9.5369L38.3615 9.15446C38.5188 8.99724 38.5188 8.74228 38.3615 8.58506L36.3573 6.58081C36.2001 6.42358 35.9451 6.42358 35.7879 6.58081L35.3757 6.99299C35.2072 7.16154 35.2213 7.43775 35.4055 7.58931C35.7369 7.8641 36.0613 8.15021 36.3729 8.4505Z" fill="#1447E6"/>
<path d="M24.9441 19.2778C24.1523 19.2778 23.5078 19.9223 23.5078 20.7141C23.5078 21.5059 24.1523 22.1504 24.9441 22.1504C25.3378 22.1504 25.6948 21.9917 25.954 21.7339C25.9554 21.7325 25.9568 21.7311 25.9582 21.7283C25.9597 21.7268 25.9611 21.7254 25.9639 21.724C26.2217 21.4648 26.3803 21.1079 26.3803 20.7141C26.3803 19.9223 25.7359 19.2778 24.9441 19.2778Z" fill="#1447E6"/>
<path d="M8.24198 21.072L8.23206 19.6357H8.19382H2.5111C2.1145 19.6357 1.79297 19.9573 1.79297 20.3539C1.79297 20.7505 2.1145 21.072 2.5111 21.072H8.19948H8.24198Z" fill="#1447E6"/>
<path d="M8.58074 16.7649L8.96459 15.3286H8.90793H0.71813C0.32153 15.3286 0 15.6501 0 16.0467C0 16.4433 0.32153 16.7649 0.71813 16.7649H8.52974H8.58074Z" fill="#1447E6"/>
<path d="M35.7129 20.354C35.7129 19.9574 36.0344 19.6358 36.431 19.6358H40.0018C39.863 16.6939 37.186 11.6103 36.7894 11.0409C36.5146 10.6925 36.2242 10.3568 35.9211 10.0339L33.3489 12.6061C33.2086 12.7463 33.0245 12.8157 32.8418 12.8157C32.6577 12.8157 32.4749 12.7463 32.3347 12.6061C32.0543 12.3256 32.0543 11.871 32.3347 11.5905L34.89 9.03528C34.5273 8.71658 33.3432 7.8653 33.3163 7.82281C31.1067 6.34122 28.4863 5.42904 25.6633 5.2959V7.74774C25.6633 8.14434 25.3418 8.46587 24.9452 8.46587C24.5486 8.46587 24.2271 8.14434 24.2271 7.74774V5.29731C23.7809 5.31856 23.339 5.3568 22.9027 5.4163C22.8843 5.41913 22.8673 5.42196 22.8489 5.42338C19.9013 5.83131 17.1789 7.09476 14.9891 9.02253L17.5571 11.5905C17.8375 11.871 17.8375 12.3256 17.5571 12.6061C17.4169 12.7463 17.2327 12.8157 17.05 12.8157C16.8659 12.8157 16.6832 12.7463 16.5429 12.6061L13.9594 10.0225C13.0018 11.0438 12.1747 12.2109 11.5146 13.5013C11.5004 13.5282 11.4863 13.5537 11.4693 13.5792C11.4579 13.5962 11.2143 13.9701 10.9282 14.701L10.7611 15.3285H16.1534C16.55 15.3285 16.8715 15.65 16.8715 16.0466C16.8715 16.4432 16.55 16.7647 16.1534 16.7647H10.3786L10.2115 17.3922C10.1307 17.8823 10.067 18.422 10.0273 19.0069L10.0316 19.6344H16.1548C16.5514 19.6344 16.873 19.956 16.873 20.3526C16.873 20.7492 16.5514 21.0707 16.1548 21.0707H10.0429L10.0472 21.6982C10.0996 22.2633 10.1817 22.8044 10.2809 23.3129L10.4551 23.9404H16.1548C16.5514 23.9404 16.873 24.2619 16.873 24.6585C16.873 25.0551 16.5514 25.3766 16.1548 25.3766H10.8545L11.0288 26.0041C11.3305 26.8341 11.5812 27.3285 11.5882 27.3412C14.0882 32.1118 18.8857 35.1543 24.2271 35.4064L24.2214 33.2732C24.22 32.8766 24.5415 32.5551 24.9367 32.5537C25.3333 32.5523 25.6548 32.8738 25.6562 33.269L25.6619 35.4064C33.4041 35.0424 39.6378 28.8101 40.0018 21.0679H36.4296C36.0344 21.0721 35.7129 20.7506 35.7129 20.354ZM34.067 29.8341C33.9268 29.9744 33.7426 30.0438 33.5599 30.0438C33.3758 30.0438 33.1931 29.9744 33.0528 29.8341L26.4041 23.1854C25.9764 23.439 25.4792 23.5849 24.9466 23.5849C23.363 23.5849 22.0755 22.2973 22.0755 20.7137C22.0755 19.1302 23.363 17.8426 24.9466 17.8426C26.5302 17.8426 27.8177 19.1302 27.8177 20.7137C27.8177 21.2449 27.6718 21.7435 27.4183 22.1713L34.067 28.82C34.3475 29.099 34.3475 29.5537 34.067 29.8341Z" fill="#1447E6"/>
<path d="M8.61777 23.9434H4.66735C4.27075 23.9434 3.94922 24.2649 3.94922 24.6615C3.94922 25.0581 4.27075 25.3796 4.66735 25.3796H9.01721H9.05828L8.65885 23.9434H8.61777Z" fill="#1447E6"/>
<path d="M21.0005 1.43626H23.5075V4.35836C23.9835 4.31728 24.4622 4.2932 24.9438 4.2932C25.4268 4.2932 25.9056 4.31586 26.3801 4.35694V1.43626H28.8985C29.2951 1.43626 29.6166 1.11473 29.6166 0.71813C29.6166 0.32153 29.2951 0 28.8985 0H21.0033C20.6067 0 20.2852 0.32153 20.2852 0.71813C20.2852 1.11473 20.6039 1.43626 21.0005 1.43626Z" fill="#1447E6"/>
</svg>
