<svg width="40" height="40" viewBox="0 0 40 40" fill="none" xmlns="http://www.w3.org/2000/svg">
<path d="M17.0001 0H5.00048C2.24431 0 0 2.24244 0 5.00048V11.9996C0 13.1021 0.896227 14.0002 2.00058 14.0002H17.0001C18.1026 14.0002 19.0007 13.104 19.0007 11.9996V2.00058C19.0007 0.898099 18.1044 0 17.0001 0Z" fill="#1447E6"/>
<path d="M38.0001 26H23.0006C21.8981 26 21 26.8962 21 28.0006V37.9996C21 39.1021 21.8962 40.0002 23.0006 40.0002H35.0002C37.7564 40.0002 40.0007 37.7578 40.0007 34.9997V28.0006C40.0007 26.8981 39.1044 26 38.0001 26Z" fill="#1447E6"/>
<path d="M35.0002 0H23.0006C21.8981 0 21 0.896227 21 2.00058V22.0006C21 23.1031 21.8962 24.0012 23.0006 24.0012H38.0001C39.1026 24.0012 40.0007 23.1049 40.0007 22.0006V5.00048C40.0007 2.24431 37.7582 0 35.0002 0Z" fill="#1447E6"/>
<path d="M17.0001 16.001H2.00058C0.898099 16.001 0 16.8972 0 18.0016V35.0016C0 37.7578 2.24244 40.0021 5.00048 40.0021H17.0001C18.1026 40.0021 19.0007 39.1059 19.0007 38.0016V18.0016C19.0007 16.8991 18.1044 16.001 17.0001 16.001Z" fill="#1447E6"/>
</svg>
