<svg width="40" height="40" viewBox="0 0 40 40" fill="none" xmlns="http://www.w3.org/2000/svg">
<path d="M40 16.2798C40 18.9169 38.814 21.2627 36.9757 22.883C35.6746 14.6751 28.5691 8.37363 20 8.37363C11.4313 8.37189 4.32582 14.6733 3.02428 22.8813C1.18598 21.261 0 18.9168 0 16.278C0 11.5058 3.80391 7.60431 8.53742 7.44581C10.5414 2.95135 15.0205 0 19.998 0C24.9756 0 29.4548 2.95109 31.4587 7.44581C36.1937 7.60452 39.9961 11.5062 39.9961 16.278L40 16.2798ZM34.4188 25.5812C34.4188 33.5311 27.9518 40 20.0002 40C12.0503 40 5.58154 33.5329 5.58154 25.5812C5.58154 17.6313 12.0486 11.1625 20.0002 11.1625C27.95 11.1625 34.4188 17.6295 34.4188 25.5812ZM15.462 25.5812L18.1968 22.8464C18.7427 22.3005 18.7427 21.418 18.1968 20.8738C17.6509 20.3279 16.7684 20.3279 16.2242 20.8738L12.504 24.594C11.9581 25.14 11.9581 26.0225 12.504 26.5667L16.2242 30.2869C16.4963 30.559 16.8538 30.695 17.2113 30.695C17.5689 30.695 17.9247 30.559 18.1985 30.2869C18.7444 29.7409 18.7444 28.8584 18.1985 28.3142L15.4637 25.5794L15.462 25.5812ZM27.4982 24.5941L23.778 20.8738C23.232 20.3279 22.3495 20.3279 21.8054 20.8738C21.2594 21.4198 21.2594 22.3023 21.8054 22.8465L24.5401 25.5813L21.8054 28.3161C21.2594 28.862 21.2594 29.7445 21.8054 30.2887C22.0774 30.5608 22.435 30.6968 22.7925 30.6968C23.1501 30.6968 23.5059 30.5608 23.7797 30.2887L27.4999 26.5685C28.0458 26.0225 28.0458 25.14 27.4999 24.5959L27.4982 24.5941Z" fill="#1447E6"/>
</svg>
