<svg width="40" height="35" viewBox="0 0 40 35" fill="none" xmlns="http://www.w3.org/2000/svg">
<path fill-rule="evenodd" clip-rule="evenodd" d="M21.2886 12.2488C20.8163 11.0972 20.1479 10.1006 19.3493 9.7661V12.3952C20.0212 12.3778 20.6705 12.3272 21.2886 12.2488ZM22.266 17.3745H22.2677C22.2365 16.0086 22.0351 14.6513 21.6653 13.3359C20.8962 13.4422 20.1236 13.5049 19.3476 13.5224V17.3745L22.266 17.3745ZM15.9081 13.3359C15.5384 14.6513 15.3352 16.0086 15.3057 17.3745H18.2259V13.5224C17.4498 13.505 16.6755 13.4422 15.9081 13.3359ZM16.4325 11.9108C16.3821 12.0205 16.3335 12.1338 16.2866 12.2488C16.9064 12.3272 17.5558 12.3777 18.2259 12.3951V9.76602C17.5558 10.0465 16.9343 10.8149 16.4325 11.9108ZM22.7797 13.146H22.7779C23.1547 14.5241 23.3613 15.9441 23.3942 17.3745H27.0297C26.9099 15.573 26.205 13.8604 25.0227 12.4977C24.2936 12.7765 23.5436 12.9927 22.7797 13.146ZM21.3578 10.057H21.356C21.8005 10.6755 22.1599 11.3514 22.422 12.0675C23.0036 11.956 23.5766 11.8062 24.1373 11.6215C23.3213 10.9229 22.3752 10.3915 21.356 10.0552L21.3578 10.057ZM15.1511 12.0675C15.4132 11.3514 15.7726 10.6755 16.217 10.057C15.1979 10.3915 14.2535 10.9229 13.4358 11.6215C13.9983 11.8079 14.5712 11.956 15.1511 12.0675ZM14.1823 17.3743H14.1806C14.2118 15.9439 14.4184 14.524 14.7952 13.1458C14.0312 12.9925 13.2813 12.7764 12.5521 12.4977C11.3697 13.8601 10.6649 15.5728 10.5434 17.3745L14.1823 17.3743ZM22.7971 22.6619C23.5714 22.817 24.3301 23.0383 25.0662 23.324C26.2225 21.972 26.91 20.2803 27.0281 18.5029H23.3943C23.3613 19.9072 23.1617 21.3047 22.7971 22.6619ZM19.3491 22.2804C20.1321 22.2995 20.9116 22.364 21.6877 22.4703C22.0436 21.1775 22.238 19.8429 22.2693 18.5014H19.3491V22.2804ZM15.8873 22.4703C16.6616 22.364 17.4428 22.2995 18.2258 22.2804V18.5031H15.3057C15.3352 19.8446 15.5314 21.1775 15.8873 22.472V22.4703ZM12.5053 23.324C13.2431 23.0383 14.0018 22.817 14.7761 22.6619C14.4133 21.3047 14.2119 19.9074 14.1807 18.5031H10.5452C10.6633 20.2803 11.3507 21.9718 12.5053 23.324ZM15.1268 23.7422H15.1285C14.5348 23.8571 13.9497 24.0105 13.3768 24.2021C14.2084 24.9269 15.1754 25.4757 16.2223 25.8207C15.764 25.1813 15.3959 24.4826 15.1303 23.7421L15.1268 23.7422ZM18.2258 23.4094C17.5453 23.4268 16.8855 23.4791 16.257 23.5592C16.7223 24.7196 17.4011 25.7667 18.2258 26.1117L18.2276 23.4094L18.2258 23.4094ZM21.3179 23.5592C20.6911 23.4791 20.0314 23.4251 19.3508 23.4094V26.1099C20.1738 25.7649 20.8526 24.7196 21.3179 23.5575V23.5592ZM24.1998 24.2021H24.2016C23.6286 24.0105 23.0436 23.8571 22.4498 23.7422C22.1842 24.4827 21.8179 25.1813 21.3578 25.8207C22.4047 25.4775 23.3717 24.9269 24.2033 24.2022L24.1998 24.2021ZM0 5.12927H37.5733V1.73877V1.74052C37.5716 0.780541 36.799 0.00347898 35.8424 0H1.73269C0.777832 0.00348433 0.00351121 0.780541 4.45053e-05 1.74052V5.13101L0 5.12927ZM3.37853 1.44435C3.82991 1.44435 4.23792 1.71789 4.41152 2.13779C4.5834 2.55593 4.48791 3.03853 4.16846 3.36087C3.84901 3.68145 3.36809 3.77728 2.94969 3.60305C2.53128 3.42882 2.26044 3.02112 2.26044 2.5664C2.26044 1.94616 2.76048 1.44435 3.37853 1.44435ZM6.54697 1.44435C7.00008 1.44435 7.40809 1.71789 7.57996 2.13779C7.75357 2.55593 7.65808 3.03853 7.33863 3.36087C7.01919 3.68145 6.53827 3.77728 6.11986 3.60305C5.70145 3.42882 5.42888 3.02112 5.42888 2.5664C5.42888 1.94616 5.93065 1.44435 6.54697 1.44435ZM18.7084 3.13086C18.3976 3.13086 18.1459 2.87823 18.1459 2.56637C18.1459 2.25452 18.3977 2.00188 18.7084 2.00188H34.7397C35.0505 2.00188 35.3022 2.25452 35.3022 2.56637C35.3022 2.87823 35.0505 3.13086 34.7397 3.13086H18.7084ZM30.8041 30.5997C30.5697 30.3941 30.5472 30.0369 30.752 29.8034C30.9569 29.5699 31.3128 29.5456 31.5455 29.7529L32.8336 30.8923L36.8372 26.3326C37.042 26.0974 37.3979 26.0748 37.6306 26.2804C37.8632 26.4877 37.8858 26.8431 37.6809 27.0784L33.3059 32.0613V32.0596C33.2086 32.1728 33.0698 32.2408 32.9204 32.2495C32.7711 32.2599 32.6253 32.2094 32.5142 32.1101L30.8041 30.5978L30.8041 30.5997ZM38.306 25.0922C36.6532 23.4317 34.1653 22.9352 32.0037 23.8325C29.8422 24.7315 28.4324 26.8484 28.4324 29.195C28.4324 31.5436 29.8422 33.6606 32.0037 34.5576C34.1652 35.4566 36.6531 34.96 38.306 33.2997C40.5647 31.033 40.5647 27.3588 38.306 25.0922ZM34.2174 22.2644C32.3128 22.2644 30.4917 23.0537 29.1862 24.4457C27.8807 25.8378 27.2053 27.709 27.3216 29.6169H1.73287C0.778009 29.6152 0.00368902 28.8399 0.000222315 27.8799V6.25802H37.5736V23.1373C36.5475 22.5624 35.391 22.2627 34.2174 22.2644ZM18.7865 8.5198C21.2762 8.5198 23.6635 9.51118 25.424 11.2778C27.1844 13.0445 28.174 15.4401 28.174 17.9387C28.174 20.4372 27.1844 22.833 25.424 24.5997C23.6635 26.3663 21.2764 27.3577 18.7865 27.3577C16.2986 27.3577 13.9096 26.3663 12.1509 24.5997C10.3905 22.833 9.40087 20.4374 9.40087 17.9387C9.40087 15.4403 10.3905 13.0445 12.1509 11.2778C13.9096 9.51118 16.2985 8.5198 18.7865 8.5198Z" fill="#1447E6"/>
</svg>
