<svg width="40" height="43" viewBox="0 0 40 43" fill="none" xmlns="http://www.w3.org/2000/svg">
<path fill-rule="evenodd" clip-rule="evenodd" d="M26.6958 10.1516V9.05811L0 9.06894V29.1887C0 29.3512 0.135155 29.4859 0.297624 29.4859H19.2486C19.3767 29.2184 19.4313 28.949 19.4313 28.6528V21.8983C19.4313 18.3805 21.4016 14.8773 24.7598 13.5865C24.7014 13.3548 24.6698 13.1132 24.6698 12.866C24.6698 11.6213 25.4718 10.4615 26.6958 10.1516ZM3.48955 13.3558H8.20444C8.54539 13.3558 8.82183 13.6322 8.82183 13.9731V18.688C8.82183 19.029 8.54539 19.3054 8.20444 19.3054H3.48955C3.1486 19.3054 2.87217 19.029 2.87217 18.688V13.9731C2.87217 13.6322 3.1486 13.3558 3.48955 13.3558ZM10.9904 13.3558H15.7053C16.0463 13.3558 16.3227 13.6322 16.3227 13.9731V18.688C16.3227 19.029 16.0463 19.3054 15.7053 19.3054H10.9904C10.6495 19.3054 10.3731 19.029 10.3731 18.688V13.9731C10.3731 13.6322 10.6495 13.3558 10.9904 13.3558ZM10.9904 20.9904H15.7053C16.0463 20.9904 16.3227 21.2668 16.3227 21.6078V26.3227C16.3227 26.6636 16.0463 26.94 15.7053 26.94H10.9904C10.6495 26.94 10.3731 26.6636 10.3731 26.3227V21.6078C10.3731 21.2668 10.6495 20.9904 10.9904 20.9904ZM3.48955 20.9904H8.20444C8.54539 20.9904 8.82183 21.2668 8.82183 21.6078V26.3227C8.82183 26.6636 8.54539 26.94 8.20444 26.94H3.48955C3.1486 26.94 2.87217 26.6636 2.87217 26.3227V21.6078C2.87217 21.2668 3.1486 20.9904 3.48955 20.9904Z" fill="#1447E6"/>
<path fill-rule="evenodd" clip-rule="evenodd" d="M19.4312 31.8222C18.907 32.8436 19.4142 34.4113 20.6735 34.4113H33.9517C35.2491 34.4113 35.6993 32.8059 35.194 31.8222C34.6929 30.8464 33.9597 29.759 33.9597 28.6519V21.8974C33.9597 18.1489 31.3055 14.3452 27.3121 14.3452C23.3187 14.3452 20.6645 18.1489 20.6645 21.8974V28.6519C20.6645 29.7586 19.9313 30.8459 19.4307 31.8217L19.4312 31.8222ZM32.9378 22.1588C32.9378 22.9707 31.703 22.9707 31.703 22.1588C31.703 20.5463 31.071 19.0262 29.8334 17.9732C29.2189 17.4505 30.0147 16.5148 30.6293 17.0375C32.14 18.3226 32.9378 20.1861 32.9378 22.1588Z" fill="#1447E6"/>
<path fill-rule="evenodd" clip-rule="evenodd" d="M34.485 14.5653C33.765 14.1909 34.3338 13.096 35.0544 13.4704C36.567 14.2588 37.3591 15.7342 37.351 17.4196C37.3478 18.2287 36.1182 18.2239 36.121 17.4149C36.1271 16.1919 35.587 15.1394 34.485 14.5653Z" fill="#1447E6"/>
<path fill-rule="evenodd" clip-rule="evenodd" d="M25.0625 35.647C25.541 39.1111 29.0865 39.1111 29.565 35.647H25.0625Z" fill="#1447E6"/>
<path fill-rule="evenodd" clip-rule="evenodd" d="M28.6833 13.2446C28.7097 13.1255 28.7238 12.9988 28.7238 12.866C28.7238 10.824 25.9062 10.8005 25.9062 12.866C25.9062 12.9978 25.9204 13.1245 25.9472 13.2446C26.3918 13.157 26.8486 13.1113 27.3148 13.1113C27.781 13.1113 28.2387 13.157 28.6833 13.2446Z" fill="#1447E6"/>
<path fill-rule="evenodd" clip-rule="evenodd" d="M21.9703 37.5177C22.6639 37.1028 23.2959 38.1591 22.6023 38.5739L21.9326 38.9742C21.2389 39.3891 20.6069 38.3328 21.3006 37.918L21.9703 37.5177Z" fill="#1447E6"/>
<path fill-rule="evenodd" clip-rule="evenodd" d="M23.8987 39.901C24.064 39.6038 24.4384 39.4969 24.7355 39.6622C25.0327 39.8275 25.1396 40.2019 24.9743 40.4991L24.5943 41.1805C24.201 41.8878 23.1254 41.2897 23.5187 40.5824L23.8987 39.901Z" fill="#1447E6"/>
<path fill-rule="evenodd" clip-rule="evenodd" d="M26.7618 40.9987C26.7524 40.1897 27.9824 40.1755 27.9918 40.9841L28.0036 41.7644C28.013 42.5735 26.783 42.5876 26.7735 41.779L26.7618 40.9987Z" fill="#1447E6"/>
<path fill-rule="evenodd" clip-rule="evenodd" d="M29.7901 40.522C29.3752 39.8283 30.4315 39.1963 30.8464 39.89L31.2467 40.5596C31.6616 41.2533 30.6053 41.8853 30.1904 41.1916L29.7901 40.522Z" fill="#1447E6"/>
<path fill-rule="evenodd" clip-rule="evenodd" d="M32.1727 38.5938C31.4654 38.2005 32.0635 37.1249 32.7708 37.5182L33.4522 37.8982C34.1595 38.2914 33.5615 39.367 32.8541 38.9738L32.1727 38.5938Z" fill="#1447E6"/>
<path d="M7.58951 14.5903H4.10938V18.0705H7.58951V14.5903Z" fill="#1447E6"/>
<path d="M15.0895 14.5903H11.6094V18.0705H15.0895V14.5903Z" fill="#1447E6"/>
<path d="M7.58951 22.2251H4.10938V25.7052H7.58951V22.2251Z" fill="#1447E6"/>
<path d="M15.0895 22.2251H11.6094V25.7052H15.0895V22.2251Z" fill="#1447E6"/>
<path fill-rule="evenodd" clip-rule="evenodd" d="M5.97656 0.605373V3.08762C5.97656 3.89478 7.913 3.89478 7.913 3.08762V0.605373C7.913 -0.201791 5.97656 -0.201791 5.97656 0.605373Z" fill="#1447E6"/>
<path fill-rule="evenodd" clip-rule="evenodd" d="M12.3789 0.605373V3.08762C12.3789 3.89478 14.3153 3.89478 14.3153 3.08762V0.605373C14.3153 -0.201791 12.3789 -0.201791 12.3789 0.605373Z" fill="#1447E6"/>
<path fill-rule="evenodd" clip-rule="evenodd" d="M18.7812 0.605175V3.08742C18.7812 3.92331 20.7177 3.85549 20.7177 3.08742V0.605175C20.7177 -0.230716 18.7812 -0.162903 18.7812 0.605175Z" fill="#1447E6"/>
<path fill-rule="evenodd" clip-rule="evenodd" d="M17.5481 2.36328H15.5509V3.08756C15.5509 5.52883 11.1449 5.52883 11.1449 3.08756V2.36328H9.14771V3.08756C9.14771 5.52883 4.74174 5.52883 4.74174 3.08756V2.36328H0.297624C0.135155 2.36328 0 2.49844 0 2.66043V7.83872L26.6958 7.82789V2.66043C26.6958 2.49797 26.5606 2.36328 26.3986 2.36328H21.9545V3.08756C21.9545 5.49257 17.5485 5.58111 17.5485 3.08756L17.5481 2.36328Z" fill="#1447E6"/>
<path fill-rule="evenodd" clip-rule="evenodd" d="M35.7263 12.2205C35.0189 11.824 35.6217 10.7484 36.3291 11.1449C38.6215 12.4287 40.0489 14.7852 39.9994 17.4271C39.9867 18.2361 38.7567 18.2168 38.7694 17.4077C38.8104 15.2137 37.6274 13.2853 35.7263 12.2205Z" fill="#1447E6"/>
</svg>
