<svg width="40" height="44" viewBox="0 0 40 44" fill="none" xmlns="http://www.w3.org/2000/svg">
<path fill-rule="evenodd" clip-rule="evenodd" d="M22.1034 23.1577C21.8242 23.1577 21.5565 23.2687 21.3591 23.4661C21.1617 23.6635 21.0508 23.9312 21.0508 24.2103V42.1051C21.0508 42.3843 21.1617 42.652 21.3591 42.8494C21.5565 43.0468 21.8242 43.1577 22.1034 43.1577H28.4192C28.6984 43.1577 28.9661 43.0468 29.1635 42.8494C29.3609 42.652 29.4718 42.3843 29.4718 42.1051V24.2103C29.4718 23.9312 29.3609 23.6635 29.1635 23.4661C28.9661 23.2687 28.6984 23.1577 28.4192 23.1577H22.1034Z" fill="#1447E6"/>
<path fill-rule="evenodd" clip-rule="evenodd" d="M1.05263 23.1577C0.773464 23.1577 0.505725 23.2687 0.308324 23.4661C0.110923 23.6635 2.65171e-05 23.9312 0 24.2103V42.1051C2.65171e-05 42.3843 0.110923 42.652 0.308324 42.8494C0.505725 43.0468 0.773464 43.1577 1.05263 43.1577H7.36842C7.64759 43.1577 7.91533 43.0468 8.11273 42.8494C8.31013 42.652 8.42103 42.3843 8.42105 42.1051V24.2103C8.42103 23.9312 8.31013 23.6635 8.11273 23.4661C7.91533 23.2687 7.64759 23.1577 7.36842 23.1577H1.05263Z" fill="#1447E6"/>
<path fill-rule="evenodd" clip-rule="evenodd" d="M32.6308 15.7896C32.3516 15.7896 32.0838 15.9005 31.8864 16.0979C31.689 16.2953 31.5782 16.563 31.5781 16.8422V42.1053C31.5782 42.3845 31.689 42.6522 31.8864 42.8496C32.0838 43.047 32.3516 43.1579 32.6308 43.158H38.9465C39.2257 43.1579 39.4935 43.047 39.6909 42.8496C39.8883 42.6522 39.9992 42.3845 39.9992 42.1053V16.8422C39.9992 16.563 39.8883 16.2953 39.6909 16.0979C39.4935 15.9005 39.2257 15.7896 38.9465 15.7896H32.6308Z" fill="#1447E6"/>
<path fill-rule="evenodd" clip-rule="evenodd" d="M11.58 15.7896C11.3008 15.7896 11.0331 15.9005 10.8357 16.0979C10.6383 16.2953 10.5274 16.563 10.5273 16.8422V42.1053C10.5274 42.3845 10.6383 42.6522 10.8357 42.8496C11.0331 43.047 11.3008 43.1579 11.58 43.158H17.8958C18.1749 43.1579 18.4427 43.047 18.6401 42.8496C18.8375 42.6522 18.9484 42.3845 18.9484 42.1053V16.8422C18.9484 16.563 18.8375 16.2953 18.6401 16.0979C18.4427 15.9005 18.1749 15.7896 17.8958 15.7896H11.58Z" fill="#1447E6"/>
<path fill-rule="evenodd" clip-rule="evenodd" d="M14.735 0C13.0034 0 11.5771 1.42631 11.5771 3.15789C11.5771 3.64424 11.6915 4.10557 11.8917 4.51891C11.8812 4.52693 11.8709 4.53515 11.8608 4.54355L5.8308 10.9806C5.35548 10.693 4.79969 10.5263 4.20868 10.5263C2.47709 10.5263 1.05078 11.9526 1.05078 13.6842C1.05078 15.4158 2.47709 16.8421 4.20868 16.8421C5.94027 16.8421 7.36657 15.4158 7.36657 13.6842C7.36657 13.3123 7.29993 12.954 7.17948 12.6213L13.3781 6.00329C13.7904 6.20225 14.2503 6.31579 14.735 6.31579C15.1108 6.31579 15.4726 6.24747 15.8082 6.12459L22.42 12.317C22.2181 12.7319 22.1034 13.1956 22.1034 13.6842C22.1034 15.4158 23.5297 16.8421 25.2613 16.8421C26.9929 16.8421 28.4192 15.4158 28.4192 13.6842C28.4192 13.4844 28.3999 13.2883 28.3637 13.0983L34.6672 6.10609C35.0161 6.24041 35.3939 6.31579 35.7876 6.31579C37.5192 6.31579 38.9455 4.88948 38.9455 3.15789C38.9455 1.42631 37.5192 0 35.7876 0C34.056 0 32.6297 1.42631 32.6297 3.15789C32.6297 3.73303 32.7879 4.27425 33.0615 4.74095L27.2227 11.2192C26.6822 10.7873 25.9998 10.5263 25.2613 10.5263C24.7814 10.5263 24.3259 10.6374 23.9167 10.8326L17.4426 4.77179C17.7275 4.29821 17.8929 3.74568 17.8929 3.15789C17.8929 1.42631 16.4666 0 14.735 0Z" fill="#1447E6"/>
</svg>
