<svg width="60" height="60" viewBox="0 0 60 60" fill="none" xmlns="http://www.w3.org/2000/svg">
<rect x="0.5" y="0.5" width="59" height="59" rx="5.5" fill="#1B1662" stroke="white"/>
<path d="M26.0599 28.2658H18.6031V24.6351H26.0599V28.2658ZM16 36.7688V22.2263H41.3984V33.2555L41.272 33.2322L40.6251 30.7897C40.4682 30.1956 40.0254 29.7474 39.4385 29.5924C38.8553 29.4335 38.248 29.5988 37.818 30.0315L34.5182 33.3692C34.1213 33.7709 33.7015 34.0176 33.1618 34.1623L28.9549 35.3028C27.772 35.6231 27.0588 36.8747 27.3752 38.0734L27.4416 38.3304L17.5402 38.3278C16.6929 38.3278 16 37.6264 16 36.7688ZM29.5625 24.2681C29.5625 24.4709 29.7258 24.6362 29.9262 24.6362H39.1629C39.3632 24.6362 39.5265 24.4709 39.5265 24.2681C39.5265 24.0653 39.3632 23.9 39.1629 23.9H29.9262C29.7259 23.9 29.5625 24.0653 29.5625 24.2681ZM29.5625 26.8191C29.5625 27.0219 29.7258 27.1872 29.9262 27.1872H39.1629C39.3632 27.1872 39.5265 27.0219 39.5265 26.8191C39.5265 26.6163 39.3632 26.451 39.1629 26.451H29.9262C29.7259 26.4536 29.5625 26.6163 29.5625 26.8191ZM29.5625 29.3688C29.5625 29.5716 29.7258 29.7369 29.9262 29.7369H37.3127C37.5131 29.7369 37.6764 29.5716 37.6764 29.3688C37.6764 29.166 37.5169 29.0007 37.3127 29.0007L29.9262 29.002C29.7259 29.0045 29.5625 29.1699 29.5625 29.3688ZM17.8795 28.63C17.8795 28.8328 18.039 28.9981 18.2432 28.9981H26.4261C26.6265 28.9981 26.7898 28.8328 26.7898 28.63V24.2682C26.7898 24.0654 26.6265 23.9001 26.4261 23.9001H18.2396C18.0393 23.9001 17.876 24.0654 17.876 24.2682L17.8772 28.63H17.8795ZM17.8795 31.181C17.8795 31.3837 18.039 31.5491 18.2432 31.5491H26.4261C26.6265 31.5491 26.7898 31.3837 26.7898 31.181C26.7898 30.9782 26.6265 30.8128 26.4261 30.8128H18.2396C18.0406 30.8167 17.8795 30.982 17.8795 31.181ZM17.8795 33.7358C17.8795 33.9386 18.039 34.104 18.2432 34.104H26.4261C26.6265 34.104 26.7898 33.9425 26.7898 33.7358C26.7898 33.5305 26.6265 33.3677 26.4261 33.3677H18.2396C18.0406 33.3677 17.8795 33.533 17.8795 33.7358ZM17.8795 36.2868C17.8795 36.4896 18.039 36.655 18.2432 36.655H26.4261C26.6265 36.655 26.7898 36.4896 26.7898 36.2868C26.7898 36.084 26.6265 35.9187 26.4261 35.9187H18.2396C18.0406 35.9187 17.8795 36.084 17.8795 36.2868ZM41.4023 21.491H16V18.559C16 17.7013 16.6929 17 17.5401 17H39.8621C40.7093 17 41.3983 17.7014 41.3983 18.559V21.491H41.4023ZM25.3631 19.2474C25.3631 19.0447 25.1998 18.8793 24.9994 18.8793H18.9499C18.7496 18.8793 18.5862 19.0446 18.5862 19.2474C18.5862 19.4502 18.7495 19.6156 18.9499 19.6156L24.9994 19.6143C25.1998 19.6143 25.3631 19.4489 25.3631 19.2474ZM34.4329 19.2474C34.4329 19.0447 34.2696 18.8793 34.0692 18.8793H34.0654C33.8651 18.8793 33.7017 19.0446 33.7017 19.2474C33.7017 19.4502 33.8612 19.6156 34.0654 19.6156H34.0692C34.2721 19.6143 34.4329 19.4489 34.4329 19.2474ZM36.625 19.2474C36.625 19.0447 36.4617 18.8793 36.2613 18.8793H36.2575C36.0572 18.8793 35.8938 19.0446 35.8938 19.2474C35.8938 19.4502 36.0533 19.6156 36.2575 19.6156H36.2613C36.4617 19.6143 36.625 19.4489 36.625 19.2474ZM38.8158 19.2474C38.8158 19.0447 38.6525 18.8793 38.4522 18.8793H38.4484C38.248 18.8793 38.0847 19.0446 38.0847 19.2474C38.0847 19.4502 38.2442 19.6156 38.4484 19.6156H38.4522C38.6525 19.6143 38.8158 19.4489 38.8158 19.2474ZM35.4357 41.1951L35.4089 41.1279C35.2851 41.1447 35.1588 41.1719 35.0325 41.2054L34.3154 41.4018L34.739 42.4777L34.9189 42.4041C35.3885 42.2181 35.622 41.6717 35.4357 41.1951ZM34.7122 46.9351C35.1818 46.7465 35.4152 46.2027 35.229 45.7274L33.6123 41.5941L31.8221 42.0798L33.5191 46.4158C33.7054 46.8872 34.2426 47.1236 34.7122 46.9351ZM42.8824 35.3037C42.6986 34.6114 42.1359 34.1257 41.4788 34.0147L42.3018 37.1288C42.8147 36.7013 43.0648 35.996 42.8824 35.3037ZM41.2925 41.7218C41.6293 41.8136 41.9662 41.7218 42.2125 41.4726C42.4587 41.2233 42.5493 40.8849 42.4587 40.5452L39.9285 30.987C39.8379 30.6461 39.5916 30.3968 39.2548 30.3051C38.9179 30.2134 38.581 30.3012 38.3348 30.5543L38.2876 30.6021L41.2274 41.7064L41.2925 41.7218ZM36.7883 40.5L40.4184 41.4855L37.6955 31.2013L35.0389 33.8943C34.5489 34.3864 34.0219 34.6977 33.3559 34.876L32.5494 35.0956L34.0398 40.7234L34.8462 40.5039C35.5084 40.3179 36.1222 40.3178 36.7883 40.5ZM31.849 35.2805L29.1491 36.0128C28.3452 36.2285 27.8654 37.072 28.0824 37.8818L28.7893 40.5607C29.0024 41.3706 29.8356 41.8562 30.6356 41.6405L33.3356 40.9082L31.849 35.2805ZM43.9658 34.6295C43.7719 34.6798 43.6557 34.8826 43.7093 35.0777C43.7629 35.274 43.9594 35.3915 44.1521 35.3373L45.7318 34.9085C45.9257 34.8581 46.038 34.6553 45.9882 34.4602C45.9385 34.2639 45.7381 34.1464 45.5455 34.2006L43.9658 34.6295ZM45.4881 38.2733C45.5876 38.0977 45.5276 37.8755 45.3554 37.7709L43.9416 36.9443C43.7681 36.8435 43.5448 36.9042 43.4452 37.0786C43.3457 37.2542 43.4057 37.4764 43.5779 37.5784L44.9917 38.4051C45.1691 38.5097 45.3885 38.449 45.4881 38.2733ZM43.6749 31.4108C43.5014 31.31 43.2781 31.3708 43.1785 31.5451L42.3619 32.9788C42.2624 33.1506 42.3224 33.3767 42.4921 33.4787C42.6656 33.5795 42.8889 33.5187 42.9884 33.3444L43.805 31.9132C43.9058 31.7376 43.8484 31.5115 43.6749 31.4108Z" fill="white"/>
</svg>
