<svg width="35" height="40" viewBox="0 0 35 40" fill="none" xmlns="http://www.w3.org/2000/svg">
<path d="M14.6655 15.6666C15.9541 15.6666 16.9988 14.622 16.9988 13.3333C16.9988 12.0447 15.9541 11 14.6655 11C13.3768 11 12.3322 12.0447 12.3322 13.3333C12.3322 14.622 13.3768 15.6666 14.6655 15.6666Z" fill="#1447E6"/>
<path d="M13.9581 0.0357988C11.3244 0.219147 8.78566 1.0944 6.5985 2.57313C4.41133 4.05186 2.6532 6.08168 1.50175 8.4575C0.3503 10.8333 -0.153682 13.471 0.0407258 16.1039C0.235134 18.7369 1.12104 21.2719 2.60895 23.4529C4.16651 25.6409 5.35201 28.0711 6.11757 30.6454C7.00753 33.6813 7.41737 36.8376 7.33223 40H23.9987V32.6668H27.9987C28.5291 32.6668 29.0378 32.456 29.4128 32.081C29.7879 31.7059 29.9986 31.1972 29.9986 30.6668V22.6669H34.6652L29.9986 14.667H29.99C29.9449 12.6384 29.4888 10.6401 28.6492 8.79297C27.8096 6.9458 26.604 5.28818 25.1053 3.92041C23.6066 2.55264 21.8459 1.50314 19.9299 0.83544C18.0139 0.167736 15.9823 -0.104298 13.9581 0.0357988ZM14.6655 23.3335C12.3706 23.3307 10.1463 22.54 8.36465 21.0936C6.58298 19.6472 5.35198 17.6329 4.87759 15.3876L3.9036 17.0103L2.76095 16.3236L4.76092 12.9903C4.83602 12.8654 4.94996 12.7686 5.08532 12.7146C5.22067 12.6606 5.36999 12.6525 5.51041 12.6914C5.65083 12.7304 5.77463 12.8143 5.86285 12.9302C5.95107 13.0462 5.99886 13.1879 5.99891 13.3336C5.99669 15.417 6.74499 17.4314 8.10679 19.008C9.46859 20.5846 11.3527 21.6179 13.4142 21.9187C15.4757 22.2194 17.5766 21.7676 19.3321 20.6458C21.0876 19.524 22.3803 17.8074 22.9734 15.8103L24.2507 16.1903C23.6271 18.2496 22.3596 20.0546 20.6344 21.3403C18.9091 22.626 16.8171 23.3246 14.6655 23.3335ZM9.56553 13.3336C9.56573 13.113 9.58154 12.8927 9.61287 12.6743C9.62629 12.5618 9.60508 12.4478 9.55208 12.3477C9.49907 12.2475 9.41679 12.1659 9.3162 12.1137L8.96687 11.921C8.8992 11.8853 8.83951 11.8362 8.79144 11.7767C8.74337 11.7171 8.70793 11.6484 8.68729 11.5748C8.66664 11.5011 8.66121 11.424 8.67135 11.3482C8.68148 11.2723 8.70695 11.1993 8.74621 11.1337L9.71287 9.53369C9.79712 9.39994 9.92943 9.30356 10.0826 9.26437C10.2357 9.22519 10.398 9.24618 10.5362 9.32302L10.8895 9.51769C10.9973 9.57475 11.1191 9.5998 11.2407 9.58988C11.3622 9.57996 11.4784 9.53548 11.5755 9.46169C11.9236 9.20633 12.3026 8.996 12.7035 8.8357C12.8156 8.79548 12.913 8.72248 12.983 8.62617C13.053 8.52987 13.0925 8.41472 13.0962 8.2957V7.90971C13.0998 7.75392 13.165 7.60592 13.2774 7.49801C13.3898 7.39009 13.5403 7.33103 13.6962 7.33371H15.6295C15.7853 7.33103 15.9358 7.39009 16.0482 7.49801C16.1606 7.60592 16.2258 7.75392 16.2295 7.90971V8.2957C16.2332 8.41472 16.2726 8.52987 16.3426 8.62617C16.4127 8.72248 16.51 8.79548 16.6221 8.8357C17.023 8.996 17.402 9.20633 17.7501 9.46169C17.8472 9.53548 17.9634 9.57996 18.0849 9.58988C18.2065 9.5998 18.3283 9.57475 18.4361 9.51769L18.7894 9.32302C18.9276 9.24618 19.0899 9.22519 19.243 9.26437C19.3962 9.30356 19.5285 9.39994 19.6128 9.53369L20.5794 11.1337C20.6187 11.1993 20.6441 11.2723 20.6543 11.3482C20.6644 11.424 20.659 11.5011 20.6383 11.5748C20.6177 11.6484 20.5822 11.7171 20.5342 11.7767C20.4861 11.8362 20.4264 11.8853 20.3587 11.921L20.0094 12.1137C19.9088 12.1659 19.8265 12.2475 19.7735 12.3477C19.7205 12.4478 19.6993 12.5618 19.7127 12.6743C19.7759 13.1116 19.7759 13.5557 19.7127 13.993C19.6993 14.1055 19.7205 14.2195 19.7735 14.3196C19.8265 14.4198 19.9088 14.5014 20.0094 14.5536L20.3587 14.7463C20.4264 14.782 20.4861 14.8311 20.5342 14.8906C20.5822 14.9502 20.6177 15.0188 20.6383 15.0925C20.659 15.1662 20.6644 15.2433 20.6543 15.3191C20.6441 15.395 20.6187 15.4679 20.5794 15.5336L19.6128 17.1336C19.5285 17.2674 19.3962 17.3637 19.243 17.4029C19.0899 17.4421 18.9276 17.4211 18.7894 17.3443L18.4361 17.1496C18.3283 17.0925 18.2065 17.0675 18.0849 17.0774C17.9634 17.0873 17.8472 17.1318 17.7501 17.2056C17.402 17.461 17.023 17.6713 16.6221 17.8316C16.51 17.8718 16.4127 17.9448 16.3426 18.0411C16.2726 18.1374 16.2332 18.2526 16.2295 18.3716V18.7576C16.2258 18.9134 16.1606 19.0614 16.0482 19.1693C15.9358 19.2772 15.7853 19.3363 15.6295 19.3336H13.6962C13.5403 19.3363 13.3898 19.2772 13.2774 19.1693C13.165 19.0614 13.0998 18.9134 13.0962 18.7576V18.3716C13.0925 18.2526 13.053 18.1374 12.983 18.0411C12.913 17.9448 12.8156 17.8718 12.7035 17.8316C12.3026 17.6713 11.9236 17.461 11.5755 17.2056C11.4784 17.1318 11.3622 17.0873 11.2407 17.0774C11.1191 17.0675 10.9973 17.0925 10.8895 17.1496L10.5362 17.3443C10.398 17.4211 10.2357 17.4421 10.0826 17.4029C9.92943 17.3637 9.79712 17.2674 9.71287 17.1336L8.74621 15.5336C8.70695 15.4679 8.68148 15.395 8.67135 15.3191C8.66121 15.2433 8.66664 15.1662 8.68729 15.0925C8.70793 15.0188 8.74337 14.9502 8.79144 14.8906C8.83951 14.8311 8.8992 14.782 8.96687 14.7463L9.3162 14.5536C9.41679 14.5014 9.49907 14.4198 9.55208 14.3196C9.60508 14.2195 9.62629 14.1055 9.61287 13.993C9.58154 13.7746 9.56573 13.5543 9.56553 13.3336ZM24.4534 11.2797L25.4274 9.65702L26.57 10.3437L24.57 13.677C24.5108 13.7756 24.427 13.8572 24.3269 13.9138C24.2268 13.9705 24.1137 14.0003 23.9987 14.0003C23.9386 14.0002 23.8787 13.9922 23.8207 13.9763C23.6802 13.9374 23.5563 13.8534 23.468 13.7374C23.3798 13.6213 23.332 13.4795 23.332 13.3336C23.3343 11.2503 22.586 9.23593 21.2242 7.65932C19.8624 6.08271 17.9782 5.04941 15.9167 4.74863C13.8552 4.44785 11.7544 4.89973 9.99887 6.02151C8.24337 7.1433 6.9507 8.85991 6.35757 10.857L5.08025 10.477C5.71434 8.3437 7.04197 6.48287 8.85291 5.18919C10.6638 3.89552 12.8546 3.24292 15.0783 3.33474C17.3019 3.42657 19.4314 4.25756 21.1295 5.69614C22.8276 7.13472 23.9973 9.09867 24.4534 11.277V11.2797Z" fill="#1447E6"/>
</svg>
