<svg width="54" height="40" viewBox="0 0 54 40" fill="none" xmlns="http://www.w3.org/2000/svg">
<path d="M23.1407 15.5867C23.3673 15.4503 23.6397 15.4096 23.8953 15.4766C25.5732 15.9408 36.0573 18.8412 36.0573 18.8412C36.9324 18.3363 38.8898 17.2283 39.7529 16.7329C41.9804 15.4479 42.7422 12.6169 41.4573 10.401L36.7274 2.30284V2.30523C35.4377 0.103621 32.6027 -0.652529 30.3752 0.613375L0.458131 17.6949C0.17126 17.8672 -0.00472333 18.1759 9.65322e-05 18.5085C0.00491763 18.8411 0.18572 19.1474 0.475004 19.3125L9.49821 24.1464C9.49821 24.1464 22.1039 16.2327 23.1401 15.5864L23.1407 15.5867ZM26.1661 8.35049L31.8939 5.07925V5.07686C32.3423 4.82559 32.9112 4.97875 33.1692 5.41906L35.9439 10.1788V10.1812C36.1922 10.6215 36.0379 11.1766 35.5992 11.4303C35.1604 11.684 34.5987 11.5428 34.3336 11.1145L32.0241 7.13964L27.0894 9.95864C26.6434 10.2027 26.0817 10.0448 25.831 9.60448C25.5779 9.16656 25.7274 8.60656 26.1661 8.35049Z" fill="#1447E6"/>
<path d="M23.7888 17.3711C21.5179 18.7925 13.1622 24.0474 11.0312 25.3663C11.2482 25.7468 14.0398 30.3581 14.0398 30.3581C14.3002 30.7937 14.8667 30.9372 15.3078 30.6812C15.8671 30.3701 33.7906 20.135 33.7906 20.135C31.0834 19.3669 26.585 18.1536 23.7888 17.3711Z" fill="#1447E6"/>
<path d="M2.87861 22.5392C-0.0793459 28.0623 6.78874 33.7359 11.7333 29.8593C11.2102 28.9858 9.44318 26.052 9.44318 26.052C7.64718 25.0924 4.6651 23.4892 2.87861 22.5392Z" fill="#1447E6"/>
<path d="M53.0713 21.7607H50.0169C49.0141 21.7631 48.0546 22.1651 47.3555 22.8758C46.654 23.5866 46.2707 24.5486 46.2924 25.5417H39.8291C39.1661 23.3473 39.6989 20.7245 40.0701 18.5156C36.712 20.4468 29.6244 24.4767 26.0469 26.5298V26.5322C28.0743 28.0997 29.5424 30.2701 30.2367 32.7251C30.8442 34.2638 32.0977 35.4628 33.6695 36.0084C35.2413 36.554 36.9722 36.3913 38.4138 35.5609H46.2922C46.1114 36.6569 46.4176 37.7744 47.1336 38.6263C47.8471 39.4758 48.9006 39.9784 50.0168 39.9999H53.0711C53.5846 39.9975 53.9992 39.5835 54.0016 39.0738V22.6864C53.9992 22.1767 53.5848 21.7631 53.0713 21.7607ZM35.6754 34.1398C33.6938 34.123 32.0954 32.5245 32.0954 30.5574C32.0954 28.5903 33.6937 26.9894 35.6754 26.975C37.6569 26.9894 39.2553 28.5903 39.2553 30.5574C39.2553 32.5245 37.657 34.123 35.6754 34.1398ZM46.2895 33.7138H40.3399C41.2464 32.3043 41.4609 30.5646 40.9282 28.9804L40.4074 27.3914H46.292L46.2895 33.7138Z" fill="#1447E6"/>
<path d="M34.3811 31.8351C36.0782 33.5365 38.7179 30.9497 36.9702 29.265C35.2658 27.597 32.631 30.1552 34.3811 31.8351Z" fill="#1447E6"/>
</svg>
