<svg width="40" height="40" viewBox="0 0 40 40" fill="none" xmlns="http://www.w3.org/2000/svg">
<path d="M35.873 0H4.12698C1.85022 0.00496 0.00495238 1.85022 0 4.12698V25.3968H40V4.12698C39.995 1.85022 38.1498 0.00495238 35.873 0ZM14.1346 20C14.1296 20.5233 13.7055 20.9474 13.1822 20.9524H8.10286C7.84988 20.9524 7.60683 20.8532 7.42825 20.6746C7.24968 20.496 7.14799 20.253 7.15048 20V12.381C7.148 12.128 7.24968 11.8849 7.42825 11.7063C7.60683 11.5278 7.84988 11.4286 8.10286 11.4286H13.1822C13.7055 11.4335 14.1297 11.8576 14.1346 12.381V20ZM23.4921 20C23.4871 20.5233 23.063 20.9474 22.5397 20.9524H17.4603C16.937 20.9474 16.5129 20.5233 16.5079 20V9.84127C16.5129 9.31796 16.937 8.89384 17.4603 8.88889H22.5397C23.063 8.89385 23.4871 9.31796 23.4921 9.84127V20ZM32.8495 20C32.852 20.253 32.7503 20.496 32.5717 20.6746C32.3932 20.8532 32.1501 20.9524 31.8971 20.9524H26.8178C26.2945 20.9474 25.8703 20.5233 25.8654 20V7.30159C25.8704 6.77827 26.2945 6.35416 26.8178 6.34921H31.8971C32.1501 6.34921 32.3932 6.44841 32.5717 6.62698C32.7503 6.80556 32.852 7.04861 32.8495 7.30159V20Z" fill="#1447E6"/>
<path d="M13.6508 38.0954C13.125 38.0954 12.6984 38.522 12.6984 39.0478C12.6984 39.5736 13.125 40.0002 13.6508 40.0002H26.3492C26.875 40.0002 27.3016 39.5736 27.3016 39.0478C27.3016 38.522 26.875 38.0954 26.3492 38.0954H24.127V33.651H35.2381C37.867 33.651 40 31.518 40 28.8891V27.3018H0V28.8891C0 31.518 2.13295 33.651 4.7619 33.651H15.873V38.0954H13.6508Z" fill="#1447E6"/>
</svg>
