<svg width="40" height="40" viewBox="0 0 40 40" fill="none" xmlns="http://www.w3.org/2000/svg">
<path d="M39.5128 35.9809L30.0758 26.5379C32.1153 23.7724 33.3328 20.3654 33.3328 16.6659C33.3328 7.46248 25.8738 0 16.6664 0C7.46245 0 0 7.46248 0 16.6664C0 25.8724 7.46245 33.3329 16.6664 33.3329C20.3689 33.3329 23.7744 32.1139 26.5398 30.0729L35.9813 39.5129C36.6293 40.1624 37.6903 40.1624 38.3383 39.5129L39.5138 38.3359C40.1622 37.6899 40.1622 36.6274 39.5128 35.9809ZM16.6664 6.66648C18.9684 6.66648 20.8329 8.53297 20.8329 10.8345C20.8329 13.136 18.9684 14.9995 16.6664 14.9995C14.3649 15 12.4999 13.136 12.4999 10.8345C12.4999 8.53297 14.3649 6.66648 16.6664 6.66648ZM26.6663 25.4669C24.2248 28.2424 20.6549 30.0014 16.6664 30.0014C12.6794 30.0014 9.10944 28.2419 6.66746 25.4654V23.3329C6.66746 20.5824 8.91694 18.3344 11.6664 18.3344H21.6664C24.4188 18.3344 26.6663 20.5824 26.6663 23.3329V25.4669Z" fill="#1447E6"/>
</svg>
