<svg width="40" height="40" viewBox="0 0 40 40" fill="none" xmlns="http://www.w3.org/2000/svg">
<path d="M1.42857 11.4286C0.639 11.4286 0 10.7896 0 10V1.42857C0 0.639 0.639 0 1.42857 0H7.14286C7.93243 0 8.57143 0.639 8.57143 1.42857C8.57143 2.21814 7.93243 2.85714 7.14286 2.85714H2.85714V10C2.85714 10.7896 2.21814 11.4286 1.42857 11.4286Z" fill="#1447E6"/>
<path d="M38.5725 11.4286C37.783 11.4286 37.144 10.7896 37.144 10V2.85714H32.8583C32.0687 2.85714 31.4297 2.21814 31.4297 1.42857C31.4297 0.639 32.0687 0 32.8583 0H38.5725C39.3621 0 40.0011 0.639 40.0011 1.42857V10C40.0011 10.7896 39.3621 11.4286 38.5725 11.4286Z" fill="#1447E6"/>
<path d="M7.14286 39.9999H1.42857C0.639 39.9999 0 39.3609 0 38.5713V29.9999C0 29.2103 0.639 28.5713 1.42857 28.5713C2.21814 28.5713 2.85714 29.2103 2.85714 29.9999V37.1427H7.14286C7.93243 37.1427 8.57143 37.7817 8.57143 38.5713C8.57143 39.3609 7.93243 39.9999 7.14286 39.9999Z" fill="#1447E6"/>
<path d="M38.5725 39.9999H32.8583C32.0687 39.9999 31.4297 39.3609 31.4297 38.5713C31.4297 37.7817 32.0687 37.1427 32.8583 37.1427H37.144V29.9999C37.144 29.2103 37.783 28.5713 38.5725 28.5713C39.3621 28.5713 40.0011 29.2103 40.0011 29.9999V38.5713C40.0011 39.3609 39.3621 39.9999 38.5725 39.9999Z" fill="#1447E6"/>
<path d="M31.0089 11.8467L25.2946 6.13244C25.0267 5.86458 24.664 5.71387 24.2846 5.71387H9.99888C9.20931 5.71387 8.57031 6.35287 8.57031 7.14244V32.8567C8.57031 33.6463 9.20931 34.2853 9.99888 34.2853H29.9989C30.7885 34.2853 31.4275 33.6463 31.4275 32.8567V12.8567C31.4275 12.4773 31.2767 12.1146 31.0089 11.8467ZM24.2846 27.1424H15.7132C15.3183 27.1424 14.9989 26.823 14.9989 26.4282C14.9989 26.0333 15.3183 25.7139 15.7132 25.7139H24.2846C24.6795 25.7139 24.9989 26.0333 24.9989 26.4282C24.9989 26.823 24.6795 27.1424 24.2846 27.1424ZM24.2846 22.8567H15.7132C15.3183 22.8567 14.9989 22.5373 14.9989 22.1424C14.9989 21.7476 15.3183 21.4282 15.7132 21.4282H24.2846C24.6795 21.4282 24.9989 21.7476 24.9989 22.1424C24.9989 22.5373 24.6795 22.8567 24.2846 22.8567ZM24.2846 18.571H15.7132C15.3183 18.571 14.9989 18.2516 14.9989 17.8567C14.9989 17.4619 15.3183 17.1424 15.7132 17.1424H24.2846C24.6795 17.1424 24.9989 17.4619 24.9989 17.8567C24.9989 18.2516 24.6795 18.571 24.2846 18.571ZM24.2846 14.2853H15.7132C15.3183 14.2853 14.9989 13.9659 14.9989 13.571C14.9989 13.1762 15.3183 12.8567 15.7132 12.8567H24.2846C24.6795 12.8567 24.9989 13.1762 24.9989 13.571C24.9989 13.9659 24.6795 14.2853 24.2846 14.2853Z" fill="#1447E6"/>
</svg>
