<svg width="51" height="40" viewBox="0 0 51 40" fill="none" xmlns="http://www.w3.org/2000/svg">
<path fill-rule="evenodd" clip-rule="evenodd" d="M18.3954 28.3793H0.109696C0.0761498 28.3793 0.047764 28.3923 0.0271199 28.4182C0.00647576 28.4442 -0.00384598 28.4727 0.00131537 28.5064C0.375492 31.0141 2.28762 33.2029 4.83203 33.2029H32.836C32.8953 33.2029 32.947 33.1537 32.947 33.0914V28.4883C32.947 28.4286 32.8979 28.3767 32.836 28.3767H27.9124C27.8685 28.3767 27.8298 28.4027 27.8118 28.4442L27.1692 29.9613C27.035 30.2751 26.7331 30.4644 26.4131 30.4644V30.467H19.8948C19.5335 30.467 19.229 30.2336 19.1154 29.912C19.1154 29.9094 19.1129 29.9068 19.1129 29.9042L18.4961 28.4468C18.4806 28.4053 18.4419 28.3793 18.3954 28.3793ZM40.7194 14.0924V17.3989C40.7194 17.4585 40.7685 17.5104 40.8304 17.5104H44.7657C44.825 17.5104 44.8766 17.4611 44.8766 17.3989V14.0924C44.8766 14.0327 44.8276 13.9809 44.7657 13.9809H40.8304C40.7685 13.9834 40.7194 14.0327 40.7194 14.0924ZM34.5933 9.59815C34.5933 9.05614 35.0372 8.61008 35.5765 8.61008H50.0168C50.5561 8.61008 51 9.05613 51 9.59815V39.0119C51 39.5539 50.5562 40 50.0168 40H35.5765C35.0372 40 34.5933 39.5539 34.5933 39.0119V9.59815ZM39.0705 17.4015V13.8383C39.0705 13.011 39.7491 12.329 40.5723 12.329H45.0186C45.4263 12.329 45.8108 12.5002 46.0792 12.7725L46.0818 12.7699C46.3527 13.0422 46.523 13.4208 46.523 13.8358V17.399C46.523 17.4301 46.5333 17.4561 46.5566 17.4768C46.5772 17.4975 46.6056 17.5079 46.634 17.5079C47.3772 17.5027 47.9758 17.4535 48.5668 18.0473C48.8971 18.3793 49.101 18.8383 49.101 19.344V24.4606C49.101 25.4694 48.2804 26.2941 47.2766 26.2941H38.3174C37.3136 26.2941 36.4929 25.4694 36.4929 24.4606V19.344C36.4929 18.3352 37.3136 17.5105 38.3174 17.5105H38.9625C39.0218 17.5105 39.0705 17.4612 39.0705 17.4015ZM41.9735 29.6524V31.0891C41.9735 31.1254 41.9581 31.1565 41.9271 31.1773C41.8987 31.198 41.8626 31.2032 41.829 31.1928L40.4691 30.7494C40.0382 30.6093 39.5736 30.8453 39.4343 31.2784C39.295 31.7115 39.5298 32.1783 39.9607 32.3183L41.3207 32.7618C41.3542 32.7722 41.38 32.7981 41.3904 32.8318C41.4007 32.8655 41.3955 32.9018 41.3749 32.9304L40.5337 34.0948C40.2679 34.4656 40.3504 34.9817 40.7169 35.2488C41.0859 35.5159 41.5994 35.4329 41.8652 35.0647L42.7064 33.9029C42.7271 33.8743 42.758 33.8562 42.7942 33.8562C42.8303 33.8562 42.8613 33.8717 42.8819 33.9029L43.7231 35.0647C43.9889 35.4355 44.505 35.5159 44.8715 35.2488C45.2405 34.9817 45.3205 34.463 45.0547 34.0948L44.2135 32.9304C44.1928 32.9018 44.1876 32.8655 44.198 32.8318C44.2083 32.7981 44.2341 32.7722 44.2676 32.7618L45.6276 32.3183C46.0585 32.1783 46.2959 31.7115 46.154 31.2784C46.0147 30.8453 45.5502 30.6068 45.1192 30.7494L43.7593 31.1928C43.7257 31.2032 43.6896 31.198 43.6612 31.1773C43.6328 31.1565 43.6148 31.1254 43.6148 31.0891V29.6524C43.6148 29.1959 43.2458 28.8251 42.7916 28.8251C42.3426 28.8251 41.9735 29.1959 41.9735 29.6524ZM44.1464 37.0302H41.4446C40.9904 37.0302 40.6214 37.4011 40.6214 37.8575C40.6214 38.3139 40.9904 38.6848 41.4446 38.6848H44.1464C44.6005 38.6848 44.9696 38.3139 44.9696 37.8575C44.9721 37.4011 44.6031 37.0302 44.1464 37.0302ZM21.6803 7.59319H25.6156C25.6749 7.59319 25.7265 7.54392 25.7265 7.48168V4.17516C25.7265 4.11551 25.6775 4.06364 25.6156 4.06364H21.6803C21.6209 4.06364 21.5693 4.11292 21.5693 4.17516V7.48168C21.5693 7.54392 21.6184 7.59319 21.6803 7.59319ZM11.8075 20.5185L13.1674 20.0751C13.5983 19.935 14.0629 20.171 14.2022 20.6041C14.3415 21.0372 14.1067 21.504 13.6758 21.644L12.3158 22.0875C12.2823 22.0979 12.2565 22.1238 12.2461 22.1575C12.2358 22.1912 12.241 22.2275 12.2616 22.2561L13.1029 23.4205C13.3686 23.7913 13.2861 24.3074 12.9196 24.5745C12.5506 24.8416 12.0371 24.7586 11.7713 24.3904L10.9301 23.2286C10.9094 23.2 10.8785 23.1819 10.8423 23.1819C10.8062 23.1819 10.7752 23.1974 10.7546 23.2286L9.91338 24.3904C9.64759 24.7612 9.13148 24.8416 8.76504 24.5745C8.39603 24.3074 8.31603 23.7887 8.58183 23.4205L9.42305 22.2561C9.44369 22.2275 9.44886 22.1912 9.43853 22.1575C9.42821 22.1238 9.40241 22.0979 9.36886 22.0875L8.00892 21.644C7.57798 21.504 7.34058 21.0372 7.4825 20.6041C7.62185 20.171 8.08634 19.9324 8.51728 20.0751L9.87721 20.5185C9.91076 20.5289 9.94689 20.5237 9.97527 20.503C10.0037 20.4822 10.0217 20.4511 10.0217 20.4148V18.9781C10.0217 18.5216 10.3907 18.1508 10.8449 18.1508C11.2991 18.1508 11.6681 18.5216 11.6681 18.9781V20.4148C11.6681 20.4511 11.6836 20.4822 11.7145 20.503C11.7378 20.5263 11.7713 20.5315 11.8075 20.5185ZM4.11994 26.7244C4.06058 26.7244 4.00897 26.6751 4.00897 26.6129L4.01155 1.3252C4.01155 0.59903 4.60507 0 5.3302 0H41.9683C42.6909 0 43.287 0.596468 43.287 1.3252V6.8464C43.287 6.90604 43.238 6.95791 43.176 6.95791H35.5764C34.1287 6.95791 32.9468 8.14568 32.9468 9.60054V26.6155C32.9468 26.6751 32.8978 26.727 32.8358 26.727L4.11994 26.7244ZM27.3933 20.4148C27.3933 20.4511 27.3778 20.4822 27.3468 20.503C27.3184 20.5237 27.2823 20.5289 27.2488 20.5186L25.8888 20.0751C25.4579 19.9351 24.9934 20.171 24.854 20.6041C24.7147 21.0372 24.9495 21.504 25.3805 21.6441L26.7404 22.0875C26.7739 22.0979 26.7997 22.1238 26.8101 22.1575C26.8204 22.1913 26.8152 22.2276 26.7946 22.2561L25.9534 23.4205C25.6876 23.7913 25.7702 24.3074 26.1366 24.5745C26.5056 24.8416 27.0191 24.7587 27.2849 24.3904L28.1261 23.2286C28.1468 23.2001 28.1778 23.1819 28.2139 23.1819C28.25 23.1819 28.281 23.1975 28.3016 23.2286L29.1428 24.3904C29.4086 24.7613 29.9247 24.8417 30.2912 24.5745C30.6602 24.3074 30.7402 23.7888 30.4744 23.4205L29.6332 22.2561C29.6125 22.2276 29.6074 22.1913 29.6177 22.1575C29.628 22.1238 29.6538 22.0979 29.6874 22.0875L31.0473 21.6441C31.4782 21.504 31.7156 21.0372 31.5737 20.6041C31.4344 20.1711 30.9699 19.9325 30.5389 20.0751L29.179 20.5186C29.1455 20.5289 29.1093 20.5237 29.0809 20.503C29.0525 20.4822 29.0345 20.4511 29.0345 20.4148V18.9781C29.0345 18.5217 28.6655 18.1508 28.2113 18.1508C27.7571 18.1508 27.3881 18.5217 27.3881 18.9781L27.3933 20.4148ZM18.7049 18.9781V20.4148C18.7049 20.4511 18.6894 20.4822 18.6585 20.503C18.6301 20.5237 18.5939 20.5289 18.5604 20.5186L17.2005 20.0751C16.7695 19.9351 16.305 20.171 16.1657 20.6041C16.0263 21.0372 16.2612 21.504 16.6921 21.6441L18.052 22.0875C18.0856 22.0979 18.1114 22.1238 18.1217 22.1575C18.132 22.1913 18.1269 22.2276 18.1062 22.2561L17.265 23.4205C16.9992 23.7913 17.0818 24.3074 17.4482 24.5745C17.8172 24.8416 18.3307 24.7587 18.5966 24.3904L19.4378 23.2286C19.4584 23.2001 19.4894 23.1819 19.5255 23.1819C19.5617 23.1819 19.5926 23.1975 19.6133 23.2286L20.4545 24.3904C20.7203 24.7613 21.2364 24.8417 21.6028 24.5745C21.9718 24.3074 22.0518 23.7888 21.786 23.4205L20.9448 22.2561C20.9242 22.2276 20.919 22.1913 20.9293 22.1575C20.9397 22.1238 20.9655 22.0979 20.999 22.0875L22.3589 21.6441C22.7899 21.504 23.0273 21.0372 22.8854 20.6041C22.746 20.1711 22.2815 19.9325 21.8506 20.0751L20.4907 20.5186C20.4571 20.5289 20.421 20.5237 20.3926 20.503C20.3642 20.4822 20.3461 20.4511 20.3461 20.4148V18.9781C20.3461 18.5217 19.9771 18.1508 19.523 18.1508C19.0739 18.1482 18.7049 18.5191 18.7049 18.9781ZM17.345 9.42666C17.345 8.41788 18.1656 7.59319 19.1694 7.59319H19.8145C19.8739 7.59319 19.9255 7.54392 19.9255 7.48168V3.91843C19.9255 3.08597 20.599 2.40913 21.4273 2.40913H25.8735C26.2838 2.40913 26.6606 2.58029 26.9342 2.8526L26.9367 2.85C27.2077 3.1223 27.378 3.50093 27.378 3.91588V7.47913C27.378 7.51025 27.3883 7.53618 27.4116 7.55693C27.4322 7.57768 27.4606 7.58805 27.489 7.58805C28.2322 7.58287 28.8308 7.53359 29.4218 8.12747C29.7521 8.45941 29.956 8.91843 29.956 9.42411V14.5407C29.956 15.5495 29.1379 16.3742 28.1315 16.3742L19.1697 16.3768C18.1659 16.3768 17.3453 15.5521 17.3453 14.5433L17.345 9.42666Z" fill="#1447E6"/>
</svg>
