<svg width="41" height="40" viewBox="0 0 41 40" fill="none" xmlns="http://www.w3.org/2000/svg">
<path d="M36.4989 0H4.50102C2.01865 0 0 2.01518 0 4.48664V18.8094C0 21.2942 2.01865 23.3161 4.50102 23.3161H8.0511V34.9937C8.0511 37.755 10.3033 40 13.0826 40H14.2371V37.1022L14.2405 13.103V10.2119H9.49917C8.70173 10.2119 8.05444 10.8581 8.05444 11.6541V20.4173H4.50094C3.62346 20.4173 2.90271 19.6912 2.90271 18.8085V4.48578C2.90271 3.60981 3.62341 2.8903 4.50094 2.8903H36.4988C37.383 2.8903 38.097 3.60976 38.097 4.48578V18.8085C38.097 19.6912 37.3863 20.4173 36.4988 20.4173H32.9487V11.6541C32.9487 10.8581 32.3014 10.2119 31.504 10.2119H18.1577V40H27.9174C30.7001 40 32.9489 37.7517 32.9489 34.9937V23.3195H36.499C38.9814 23.3195 41 21.2976 41 18.8128V4.48664C41 2.01518 38.9813 0 36.4989 0ZM25.8116 32.1228C25.8116 32.9189 25.1576 33.565 24.3602 33.565C23.5627 33.565 22.9088 32.9189 22.9088 32.1228V29.4915C22.9088 28.6887 23.5628 28.0425 24.3602 28.0425C25.1576 28.0425 25.8116 28.6887 25.8116 29.4915V32.1228Z" fill="#1447E6"/>
</svg>
