<svg width="60" height="60" viewBox="0 0 60 60" fill="none" xmlns="http://www.w3.org/2000/svg">
<rect x="0.5" y="0.5" width="59" height="59" rx="5.5" fill="#1B1662" stroke="white"/>
<path d="M21.0208 25.9478H16.5946V42.3696H21.0208V25.9478Z" fill="white"/>
<path d="M35.7367 34.1604C35.7343 33.0263 35.3958 31.9184 34.7639 30.9766C34.1321 30.0348 33.2353 29.3015 32.1868 28.8692C31.1384 28.4369 29.9853 28.325 28.8733 28.5478C27.7613 28.7705 26.7403 29.3179 25.9392 30.1206C25.1381 30.9234 24.593 31.9456 24.3726 33.0581C24.1523 34.1706 24.2666 35.3234 24.7012 36.3709C25.1357 37.4184 25.871 38.3136 26.8142 38.9434C27.7573 39.5733 28.8659 39.9094 30 39.9094C31.5226 39.9061 32.9818 39.299 34.0573 38.2212C35.1327 37.1434 35.7368 35.683 35.7367 34.1604ZM29.5086 38.0023V37.7272C29.0661 37.6139 28.6739 37.3564 28.3941 36.9954C28.1142 36.6344 27.9626 36.1904 27.9631 35.7336C27.9577 35.666 27.9664 35.598 27.9886 35.5339C28.0108 35.4698 28.046 35.411 28.092 35.3612C28.138 35.3114 28.1939 35.2716 28.256 35.2444C28.3181 35.2173 28.3852 35.2032 28.453 35.2032C28.5208 35.2032 28.5879 35.2173 28.6501 35.2444C28.7122 35.2716 28.768 35.3114 28.814 35.3612C28.8601 35.411 28.8953 35.4698 28.9174 35.5339C28.9396 35.598 28.9483 35.666 28.9429 35.7336C28.9454 35.9451 29.0105 36.1511 29.1301 36.3256C29.2496 36.5001 29.4182 36.6352 29.6145 36.7139C29.8109 36.7926 30.0261 36.8113 30.2331 36.7676C30.44 36.7239 30.6294 36.6199 30.7772 36.4686C30.925 36.3173 31.0247 36.1256 31.0636 35.9177C31.1024 35.7098 31.0788 35.495 30.9956 35.3006C30.9124 35.1061 30.7734 34.9407 30.5962 34.8252C30.419 34.7097 30.2115 34.6494 30 34.6518C29.5061 34.6416 29.0324 34.4536 28.666 34.1222C28.2995 33.7909 28.0649 33.3385 28.0051 32.8481C27.9454 32.3577 28.0645 31.8622 28.3407 31.4526C28.6169 31.043 29.0315 30.7467 29.5086 30.6182V30.3091C29.5086 30.1788 29.5603 30.0538 29.6525 29.9616C29.7447 29.8694 29.8697 29.8177 30 29.8177C30.1304 29.8177 30.2554 29.8694 30.3475 29.9616C30.4397 30.0538 30.4915 30.1788 30.4915 30.3091V30.6182C30.9332 30.7319 31.3247 30.9891 31.6044 31.3493C31.8841 31.7096 32.0363 32.1526 32.0369 32.6087C32.0423 32.6763 32.0336 32.7443 32.0114 32.8084C31.9893 32.8725 31.9541 32.9313 31.908 32.9811C31.862 33.0309 31.8062 33.0707 31.7441 33.0979C31.6819 33.1251 31.6148 33.1391 31.547 33.1391C31.4792 33.1391 31.4121 33.1251 31.35 33.0979C31.2879 33.0707 31.232 33.0309 31.186 32.9811C31.14 32.9313 31.1048 32.8725 31.0826 32.8084C31.0604 32.7443 31.0517 32.6763 31.0571 32.6087C31.0589 32.3963 30.9975 32.1881 30.8805 32.0108C30.7636 31.8335 30.5965 31.695 30.4005 31.613C30.2045 31.531 29.9886 31.5092 29.7802 31.5504C29.5718 31.5916 29.3804 31.694 29.2304 31.8444C29.0804 31.9949 28.9786 32.1865 28.938 32.3951C28.8974 32.6036 28.9198 32.8195 29.0023 33.0152C29.0849 33.2109 29.2239 33.3776 29.4016 33.4941C29.5793 33.6105 29.7876 33.6714 30 33.6689C30.5121 33.6534 31.0114 33.83 31.3999 34.1639C31.7884 34.4979 32.038 34.965 32.0995 35.4736C32.1611 35.9822 32.0303 36.4954 31.7327 36.9124C31.4352 37.3294 30.9924 37.62 30.4915 37.7272V38.0147C30.4915 38.145 30.4397 38.27 30.3475 38.3622C30.2554 38.4544 30.1304 38.5061 30 38.5061C29.8697 38.5061 29.7447 38.4544 29.6525 38.3622C29.5603 38.27 29.5086 38.145 29.5086 38.0147V38.0023Z" fill="white"/>
<path d="M43.4023 25.9478H38.9761V42.3696H43.4023V25.9478Z" fill="white"/>
<path d="M45.4823 43.3555H14.5176V44.6876H45.4823V43.3555Z" fill="white"/>
<path d="M30 13L13 22.0037V22.6528H47V22.0037L30 13ZM30 20.0843C29.658 20.0849 29.3235 19.984 29.0389 19.7944C28.7543 19.6048 28.5324 19.335 28.4012 19.0191C28.2701 18.7033 28.2356 18.3556 28.3021 18.0202C28.3687 17.6847 28.5333 17.3766 28.7752 17.1348C29.017 16.8929 29.3251 16.7283 29.6606 16.6617C29.996 16.5952 30.3437 16.6297 30.6595 16.7608C30.9754 16.892 31.2452 17.1139 31.4348 17.3985C31.6244 17.6831 31.7253 18.0176 31.7247 18.3596C31.7247 18.817 31.543 19.2557 31.2196 19.5791C30.8961 19.9026 30.4574 20.0843 30 20.0843Z" fill="white"/>
<path d="M47 23.6362H13V24.9653H47V23.6362Z" fill="white"/>
<path d="M47 45.6709H13V47H47V45.6709Z" fill="white"/>
</svg>
