<svg width="40" height="40" viewBox="0 0 40 40" fill="none" xmlns="http://www.w3.org/2000/svg">
<path fill-rule="evenodd" clip-rule="evenodd" d="M22.8976 34.7285H17.4543C16.8232 34.7285 16.3121 35.2382 16.3121 35.8653C16.3121 36.4924 16.8232 37.0003 17.4543 37.0003H22.8976C23.357 36.9985 23.7722 36.7216 23.9475 36.2981C24.1228 35.8745 24.025 35.3868 23.7003 35.0623C23.4881 34.8477 23.1983 34.7285 22.8976 34.7285ZM22.4824 38.1224H17.8711L18.2586 39.2446C18.3952 39.6296 18.6609 40 19.0613 40H21.2904C21.6926 40 21.9565 39.6296 22.0894 39.2446L22.4806 38.1224H22.4824ZM21.9288 33.6119V32.6731C21.9288 32.2624 21.5948 31.9287 21.1815 31.9269H19.1702C18.755 31.9287 18.421 32.2624 18.4192 32.6731V33.6119H21.9288ZM17.4984 23.7068H18.2549V22.955L18.2531 22.9569C18.2549 22.6507 18.0704 22.372 17.7862 22.2546C17.5021 22.1373 17.1736 22.2015 16.954 22.4178C16.7363 22.6342 16.6717 22.9605 16.7916 23.2429C16.9097 23.5253 17.1884 23.7086 17.4965 23.7068L17.4984 23.7068ZM22.0986 22.955V23.7068H22.8552C23.1596 23.7068 23.4364 23.5253 23.5527 23.2448C23.6689 22.9624 23.6043 22.6397 23.3884 22.4252C23.1725 22.2106 22.8478 22.1465 22.5655 22.262C22.2831 22.3793 22.0986 22.6525 22.0986 22.9569L22.0986 22.955ZM18.2531 31.0117C17.6663 31.3472 17.3065 31.9706 17.3083 32.6454V33.5841C17.061 33.6006 16.8193 33.6575 16.5905 33.7528C16.227 31.316 15.0645 28.9233 13.5901 26.712C12.1453 24.5906 11.0584 23.3273 11.0584 20.3569C11.0584 17.1189 12.7967 14.1281 15.618 12.5111C18.4376 10.892 21.914 10.892 24.7336 12.5111C27.555 14.1283 29.2932 17.1188 29.2932 20.3569C29.2932 23.0413 28.4518 24.2807 27.0918 26.2811L26.828 26.6753C25.3296 28.9177 24.1486 31.3124 23.7796 33.7767C23.5508 33.6832 23.3091 33.6282 23.0618 33.6117V32.6729C23.0655 32 22.7038 31.3766 22.1171 31.0392V24.8254H22.8736C23.6376 24.8254 24.3258 24.367 24.6192 23.6666C24.9108 22.9643 24.7502 22.1557 24.2096 21.6203C23.6689 21.0831 22.857 20.9217 22.1503 21.2133C21.4435 21.503 20.984 22.1887 20.984 22.9478V23.6996L19.3861 23.6977V22.946V22.9478C19.3861 22.1887 18.9266 21.503 18.2198 21.2133C17.5149 20.9217 16.7012 21.0831 16.1605 21.6203C15.6217 22.1557 15.4593 22.9643 15.7509 23.6666C16.0443 24.367 16.7325 24.8254 17.4965 24.8254H18.253L18.2531 31.0117ZM20.9656 30.7953V24.8251H19.386V30.7953H20.9656ZM19.6093 6.9409C19.6093 6.62919 19.8621 6.378 20.1758 6.378C20.4895 6.378 20.7423 6.6292 20.7423 6.9409V8.26472C20.7423 8.57642 20.4895 8.82761 20.1758 8.82761C19.8621 8.82761 19.6093 8.57641 19.6093 8.26472V6.9409ZM13.09 8.97429C12.935 8.70476 13.0272 8.36188 13.2985 8.20787C13.5679 8.05386 13.913 8.14737 14.0679 8.41507L14.7248 9.54639C14.8798 9.81409 14.7857 10.157 14.5163 10.311C14.2469 10.465 13.9019 10.3733 13.7469 10.1056L13.09 8.97429ZM8.49342 13.9672C8.22402 13.8132 8.12991 13.4703 8.28491 13.2026C8.44175 12.9349 8.78497 12.8414 9.05622 12.9954L10.1948 13.6481C10.3368 13.716 10.4439 13.8407 10.49 13.991C10.538 14.1414 10.5195 14.3027 10.4402 14.4384C10.3608 14.5741 10.228 14.6713 10.073 14.7061C9.91982 14.7409 9.75744 14.7098 9.62827 14.6199L8.4953 13.9672H8.49342ZM31.2954 12.9954C31.5667 12.8414 31.9099 12.9349 32.0667 13.2026C32.2217 13.4703 32.1276 13.8132 31.8582 13.9672L30.7197 14.6199C30.4503 14.774 30.1052 14.6823 29.9502 14.4146C29.7952 14.145 29.8875 13.8022 30.1569 13.6482L31.2954 12.9954ZM26.2688 8.4152C26.4256 8.142 26.7725 8.04666 27.0475 8.20068C27.3206 8.35653 27.4165 8.70124 27.2615 8.97442L26.6046 10.1057C26.5363 10.2469 26.4127 10.3533 26.2614 10.3991C26.1101 10.445 25.9459 10.4266 25.8093 10.3478C25.6728 10.2689 25.575 10.1387 25.5399 9.98473C25.5067 9.83071 25.5381 9.67119 25.6266 9.54101L26.2835 8.41522L26.2688 8.4152ZM30.4132 20.9385H34.7071C36.2165 20.9385 37.6558 20.2986 38.6596 19.1765C39.6653 18.0562 40.1395 16.5618 39.9642 15.0712C39.7778 13.652 39.1117 12.3373 38.0747 11.3435C36.569 9.94086 34.4949 9.31014 32.4575 9.63102C32.297 9.64752 32.1383 9.59801 32.0184 9.49167C31.8984 9.38348 31.8302 9.2313 31.8302 9.07178C31.8283 7.15207 30.9352 5.34051 29.4074 4.16525C27.8813 2.98811 25.8921 2.58106 24.0212 3.0596C23.5156 3.18612 23.0266 3.37681 22.5709 3.62799C22.3217 3.7655 22.0081 3.69399 21.8438 3.46297C20.4783 1.59639 18.4005 0.369781 16.0977 0.0708731C13.7949 -0.228034 11.4698 0.426582 9.66903 1.88244C7.86622 3.3383 6.74615 5.46703 6.57085 7.76812C6.5524 8.04865 6.32543 8.27234 6.04126 8.28886C4.35102 8.3787 2.76593 9.13414 1.63296 10.3865C0.501839 11.6388 -0.0812732 13.2872 0.00914127 14.9685C0.201048 18.4669 3.21063 21.1513 6.73118 20.9626H9.93824V20.3814V20.3795C9.93824 16.7418 11.8924 13.3791 15.0646 11.5583C18.2365 9.73941 22.1428 9.73941 25.3148 11.5583C28.4868 13.379 30.4412 16.7418 30.4412 20.3795C30.4264 20.5592 30.4224 20.7515 30.4132 20.9385Z" fill="#1447E6"/>
</svg>
