<svg width="42" height="40" viewBox="0 0 42 40" fill="none" xmlns="http://www.w3.org/2000/svg">
<path d="M30.9733 20.4335L25.8885 14.0741C25.6435 13.7679 25.1759 13.7665 24.929 14.0708L19.777 20.4303C19.4532 20.8298 19.7392 21.4242 20.2554 21.4242H22.0782C22.4184 21.4242 22.7012 21.6993 22.6998 22.0376V24.6911C22.6988 24.9537 22.466 25.1662 22.2018 25.1662H10.8594C6.58943 25.1662 3.22568 21.2344 4.23789 16.8209C4.67749 14.9037 5.97903 13.2514 7.75004 12.3764C9.42444 11.5491 11.2533 11.4266 12.9357 11.962L14.5951 12.49L16.2546 13.0185L17.0297 11.4669L17.6887 10.1483C19.1153 7.29334 21.6829 5.10841 24.7951 4.34376C31.454 2.70726 37.6738 7.77914 37.9351 14.1618C38.1642 19.7682 33.9703 24.4577 28.5467 25.0832C28.2657 25.1157 28.0417 24.8874 28.0431 24.6062V22.0324C28.0445 21.6961 28.3105 21.4242 28.6484 21.4242H30.4922C31.0065 21.4242 31.293 20.8335 30.9733 20.4335ZM41.9564 13.4579C41.4183 6.41872 35.7334 0.686124 28.661 0.0597376C22.3316 -0.501226 16.7595 2.94251 14.1723 8.12064C12.6473 7.6353 10.9794 7.4678 9.24058 7.72392C4.36575 8.44218 0.531601 12.4404 0.0532653 17.3174C-0.579071 23.7673 4.50202 29.1988 10.8594 29.1988H19.8265C20.064 29.1988 20.2563 29.0076 20.2563 28.7714V27.6096C20.2563 27.3734 20.064 27.1823 19.8265 27.1823H11.0489C6.6375 27.1823 2.75155 24.0406 2.12248 19.699C1.33801 14.2838 5.56136 9.62118 10.8594 9.62118C11.7723 9.62118 12.679 9.76223 13.554 10.0411L15.2135 10.5696L15.9886 9.01799C18.3686 4.25421 23.4044 1.48094 28.8229 2.10315C34.4482 2.74902 39.3113 7.65061 39.9007 13.25C40.6945 20.7908 34.7422 27.1823 27.3161 27.1823H22.6993V31.8115C22.6993 32.147 22.4384 32.4189 22.101 32.4189H20.2512C19.7369 32.4189 19.4504 33.0095 19.7705 33.4099L24.8553 39.7694C25.1003 40.0756 25.5675 40.077 25.8148 39.7726L30.9668 33.4132C31.2907 33.0137 31.0046 32.4193 30.4885 32.4193H28.6657C28.3255 32.4193 28.0413 32.1442 28.0427 31.8059V29.1612C36.1786 28.7538 42.5929 21.7842 41.9564 13.4579Z" fill="#1447E6"/>
</svg>
