<svg width="35" height="44" viewBox="0 0 35 44" fill="none" xmlns="http://www.w3.org/2000/svg">
<path d="M14.6307 11.2187V7.28125H11.6644V11.2187C11.6644 11.5432 11.3947 11.8128 11.0703 11.8128H7.13281V14.7791H11.0703C11.3947 14.7791 11.6644 15.0488 11.6644 15.3732V19.3107H14.6307V15.3732C14.6307 15.0488 14.9003 14.7791 15.2248 14.7791H19.1623V11.8128H15.2248C14.8477 11.8107 14.6307 11.5411 14.6307 11.2187Z" fill="#1447E6"/>
<path d="M30.8658 15.6405C30.8111 15.5331 30.8111 15.4783 30.8111 15.3709C30.8111 11.1111 29.0857 7.17373 26.012 4.25977C23.0984 1.51048 19.3778 0 15.3879 0H14.6337C6.75851 0.377104 0.34167 6.84884 0.0169987 14.669C-0.197888 19.1984 1.63496 23.6228 4.92568 26.6964C6.97554 28.584 7.99938 31.2806 7.5675 33.9222L6.21919 43.1457H21.1055L22.2916 35.0009C22.3464 34.7312 22.5613 34.5163 22.8309 34.5163H28.8708C29.8946 34.5163 30.7584 33.6525 30.7584 32.6287V25.9422C30.7584 25.6178 31.0281 25.3481 31.3525 25.3481H34.4262C34.6411 25.3481 34.8033 25.2406 34.9108 25.0784C35.0182 24.9162 35.0182 24.7013 34.9655 24.5391L30.8658 15.6405ZM20.2941 15.3161C20.2941 15.6405 20.0244 15.9102 19.6999 15.9102H15.7625V19.8477C15.7625 20.1721 15.4928 20.4418 15.1683 20.4418H11.0686C10.7442 20.4418 10.4745 20.1721 10.4745 19.8477V15.9102H6.53705C6.21261 15.9102 5.94293 15.6406 5.94293 15.3161V11.2164C5.94293 10.892 6.21259 10.6223 6.53705 10.6223H10.4745V6.6848C10.4745 6.36036 10.7442 6.09068 11.0686 6.09068H15.1683C15.4928 6.09068 15.7625 6.36034 15.7625 6.6848V10.6223H19.6999C20.0244 10.6223 20.2941 10.8919 20.2941 11.2164V15.3161Z" fill="#1447E6"/>
</svg>
