<svg width="40" height="40" viewBox="0 0 40 40" fill="none" xmlns="http://www.w3.org/2000/svg">
<path d="M20 40C31.0438 40 40 31.0438 40 20C40 8.95808 31.0438 0 20 0C8.95808 0 0 8.95808 0 20C0 31.0438 8.95808 40 20 40ZM18.5718 8.57049C18.5718 7.78516 19.2147 7.1423 20 7.1423C20.7853 7.1423 21.4282 7.78516 21.4282 8.57049V19.3146L28.036 24.6001C28.6514 25.0933 28.75 25.9936 28.2569 26.6073C27.9793 26.9579 27.5647 27.1424 27.1429 27.1424C26.8288 27.1424 26.5146 27.0438 26.2498 26.8283L19.1072 21.1135C18.7729 20.8432 18.5721 20.4359 18.5721 19.9994L18.5718 8.57049Z" fill="#1447E6"/>
</svg>
