<svg width="40" height="30" viewBox="0 0 40 30" fill="none" xmlns="http://www.w3.org/2000/svg">
<path d="M17.1413 11.631C17.3091 11.5292 17.5109 11.4989 17.7002 11.5489C18.9431 11.8953 26.7091 14.0596 26.7091 14.0596C27.3573 13.6828 28.8073 12.856 29.4466 12.4864C31.0966 11.5274 31.6609 9.41492 30.7091 7.76135L27.2055 1.71841V1.7202C26.2502 0.0773232 24.1502 -0.486926 22.5002 0.457709L0.339357 13.2042C0.126859 13.3327 -0.00349876 13.5631 7.15054e-05 13.8113C0.00364269 14.0595 0.13757 14.2881 0.351855 14.4113L7.03571 18.0184C7.03571 18.0184 16.3733 12.1131 17.1408 11.6308L17.1413 11.631ZM19.3823 6.23125L23.6251 3.79021V3.78843C23.9573 3.60092 24.3787 3.71521 24.5698 4.04378L26.6251 7.59553V7.59732C26.809 7.92589 26.6948 8.34017 26.3698 8.52948C26.0448 8.71876 25.6287 8.6134 25.4323 8.29376L23.7216 5.3277L20.0662 7.43128C19.7359 7.61342 19.3198 7.49556 19.1341 7.167C18.9466 6.84021 19.0573 6.42234 19.3823 6.23125Z" fill="#1447E6"/>
<path d="M17.6219 12.9629C15.9397 14.0236 9.75038 17.9448 8.17188 18.929C8.33259 19.213 10.4004 22.654 10.4004 22.654C10.5933 22.979 11.0129 23.0861 11.3397 22.8951C11.754 22.6629 25.0306 15.0254 25.0306 15.0254C23.0253 14.4522 19.6932 13.5468 17.6219 12.9629Z" fill="#1447E6"/>
<path d="M2.13085 16.8189C-0.0602216 20.9403 5.02725 25.1741 8.68991 22.2813C8.30241 21.6295 6.9935 19.4403 6.9935 19.4403C5.66313 18.7242 3.45418 17.5279 2.13085 16.8189Z" fill="#1447E6"/>
<path d="M39.3111 16.2384H37.0486C36.3057 16.2402 35.595 16.5402 35.0772 17.0705C34.5575 17.6009 34.2736 18.3188 34.2896 19.0598H29.502C29.0109 17.4224 29.4056 15.4652 29.6806 13.8169C27.1931 15.2579 21.943 18.2651 19.293 19.7972V19.799C20.7948 20.9686 21.8823 22.5883 22.3965 24.4202C22.8465 25.5684 23.7751 26.4631 24.9394 26.8702C26.1037 27.2774 27.3858 27.1559 28.4537 26.5363H34.2895C34.1556 27.3542 34.3824 28.1881 34.9127 28.8238C35.4413 29.4577 36.2217 29.8327 37.0484 29.8488H39.3109C39.6913 29.847 39.9984 29.5381 40.0002 29.1577V16.9292C39.9984 16.5489 39.6914 16.2402 39.3111 16.2384ZM26.4252 25.4759C24.9573 25.4634 23.7734 24.2705 23.7734 22.8026C23.7734 21.3348 24.9573 20.1402 26.4252 20.1294C27.893 20.1401 29.077 21.3348 29.077 22.8026C29.077 24.2705 27.8931 25.4633 26.4252 25.4759ZM34.2875 25.158H29.8804C30.5519 24.1062 30.7108 22.808 30.3161 21.6259L29.9304 20.4401H34.2894L34.2875 25.158Z" fill="#1447E6"/>
<path d="M25.466 23.7556C26.7232 25.0253 28.6785 23.0949 27.3839 21.8378C26.1214 20.5931 24.1696 22.5021 25.466 23.7556Z" fill="#1447E6"/>
</svg>
