<svg width="45" height="45" viewBox="0 0 45 45" fill="none" xmlns="http://www.w3.org/2000/svg">
<path d="M30.8453 20.6289L26.6836 20.6589C26.388 20.6589 26.1523 20.8985 26.1523 21.1961V36.1338C28.0954 35.6126 29.8687 34.688 31.3863 33.4598V21.1702C31.3863 20.8747 31.1467 20.633 30.8491 20.633L30.8453 20.6289Z" fill="#1447E6"/>
<path d="M24.5758 15.4287H20.42C20.1245 15.4287 19.8828 15.6684 19.8828 15.9659V36.3754C20.7255 36.5331 21.6002 36.621 22.4949 36.621C23.3896 36.621 24.2582 36.5331 25.113 36.3754V15.9659C25.113 15.6704 24.8733 15.4287 24.5758 15.4287Z" fill="#1447E6"/>
<path d="M44.4508 20.9244H41.2097C40.9441 20.9244 40.7185 20.7207 40.6825 20.4591C39.7579 12.0176 32.9619 5.22383 24.523 4.29952C24.2614 4.26956 24.0577 4.0439 24.0577 3.77234V0.537203C24.0577 0.241649 23.8181 0 23.5205 0H21.4556C21.16 0 20.9184 0.23964 20.9184 0.537203V3.77832C20.9184 4.04392 20.7147 4.26958 20.4531 4.3055C12.0116 5.23012 5.21784 12.0261 4.29353 20.4651C4.26358 20.7267 4.03792 20.9304 3.76635 20.9304H0.537203C0.241649 20.9304 0 21.17 0 21.4676V23.5325C0 23.828 0.23964 24.0697 0.537203 24.0697H3.77831C4.04391 24.0697 4.26958 24.2734 4.3055 24.535C5.23011 32.9765 12.0261 39.7702 20.465 40.6945C20.7266 40.7245 20.9303 40.9502 20.9303 41.2158V44.4629C20.9303 44.7584 21.17 45.0001 21.4675 45.0001H23.5325C23.828 45.0001 24.0697 44.7605 24.0697 44.4629V41.2158C24.0697 40.9541 24.2734 40.7305 24.535 40.6945C32.9764 39.7699 39.7702 32.9739 40.6945 24.535C40.7245 24.2734 40.9501 24.0697 41.2217 24.0697H44.4628C44.7583 24.0697 45 23.83 45 23.5325V21.4676C45 21.172 44.7604 20.9304 44.4628 20.9304L44.4508 20.9244ZM22.4939 37.6673C14.1245 37.6673 7.32055 30.8576 7.32055 22.4939C7.32055 14.1301 14.1245 7.32048 22.4939 7.32048C30.8633 7.32048 37.6673 14.1245 37.6673 22.4939C37.6673 30.8633 30.8633 37.6673 22.4939 37.6673Z" fill="#1447E6"/>
<path d="M18.2953 25.863L14.0976 25.893C13.8021 25.893 13.5664 26.1326 13.5664 26.4302L13.6024 33.4535C15.1161 34.6857 16.8954 35.6103 18.8363 36.1275V26.3941C18.8363 26.0986 18.5967 25.8569 18.2991 25.8569L18.2953 25.863Z" fill="#1447E6"/>
</svg>
