<svg width="40" height="36" viewBox="0 0 40 36" fill="none" xmlns="http://www.w3.org/2000/svg">
<path fill-rule="evenodd" clip-rule="evenodd" d="M15.9316 7.9831C17.1596 7.9831 18.1633 8.98404 18.1633 10.2088V11.9128C18.1633 11.9591 18.1262 11.9961 18.0798 11.9961H13.7833C13.7369 11.9961 13.6998 11.9591 13.6998 11.9128V10.2088C13.6998 8.98589 14.7035 7.9831 15.9316 7.9831ZM7.30908 29.7909C9.02878 29.7909 10.422 31.1803 10.422 32.8954C10.422 34.6105 9.02878 36 7.30908 36C5.58938 36 4.19618 34.6105 4.19618 32.8954C4.19803 31.1803 5.59123 29.7909 7.30908 29.7909ZM29.0567 29.7909C30.7764 29.7909 32.1696 31.1803 32.1696 32.8954C32.1696 34.6105 30.7764 36 29.0567 36C27.337 36 25.9438 34.6105 25.9438 32.8954C25.9438 31.1803 27.337 29.7909 29.0567 29.7909ZM33.151 21.1323L31.2606 14.8954C30.96 13.9074 30.0826 13.2562 29.0474 13.2562H1.25035C0.562105 13.2562 0 13.8168 0 14.5032V31.6503C0 32.3367 0.562105 32.8973 1.25035 32.8973H2.86429C2.90881 32.8973 2.94591 32.8603 2.94777 32.8159C2.99229 30.4514 4.9272 28.5476 7.30916 28.5476C9.69113 28.5476 11.6279 30.4514 11.6706 32.8159C11.6706 32.8603 11.7077 32.8973 11.754 32.8973H24.6118C24.6563 32.8973 24.6934 32.8603 24.6953 32.8159C24.7398 30.4514 26.6747 28.5476 29.0567 28.5476C31.4386 28.5476 33.3754 30.4514 33.4181 32.8159C33.4181 32.8603 33.4552 32.8973 33.5015 32.8973H38.3675C39.2672 32.8973 40 32.1665 40 31.2692L39.9981 25.0399C39.9981 24.1666 39.373 23.4358 38.5066 23.297L35.0023 22.742C34.1063 22.5995 33.4143 21.9981 33.151 21.1323ZM14.5738 16.9861H17.2879C17.7888 16.9861 18.1969 17.395 18.1969 17.8927V20.5032C18.1969 20.5495 18.234 20.5865 18.2804 20.5865H20.8979C21.3988 20.5865 21.807 20.9954 21.807 21.4931V24.1998C21.807 24.6994 21.397 25.1064 20.8979 25.1064H18.2804C18.234 25.1064 18.1969 25.1434 18.1969 25.1897V27.8002C18.1969 28.2998 17.7869 28.7068 17.2879 28.7068H14.5738C14.073 28.7068 13.6648 28.298 13.6648 27.8002V25.1897C13.6648 25.1434 13.6277 25.1064 13.5813 25.1064L10.9638 25.1101C10.4629 25.1101 10.0547 24.7012 10.0547 24.2035V21.4968C10.0547 20.9972 10.4647 20.5902 10.9638 20.5902H13.5813C13.6277 20.5902 13.6648 20.5532 13.6648 20.5069V17.8964C13.6648 17.395 14.0748 16.9861 14.5738 16.9861ZM25.2945 8.09445C25.634 8.04264 25.9531 8.27392 26.005 8.61252C26.057 8.95109 25.8251 9.26931 25.4856 9.32113L22.9904 9.70966C22.6509 9.76147 22.3319 9.53019 22.2799 9.19159C22.2279 8.85299 22.4598 8.5348 22.7994 8.48298L25.2945 8.09445ZM6.37782 9.32108C6.03834 9.26927 5.80461 8.95105 5.85837 8.61247C5.91031 8.27389 6.22939 8.04079 6.56888 8.0944L9.06402 8.48293C9.4035 8.53474 9.63724 8.85296 9.58348 9.19154C9.53153 9.53012 9.21245 9.76323 8.87296 9.70961L6.37782 9.32108ZM9.32375 3.34138C9.11968 3.06386 9.1809 2.67535 9.45732 2.47183C9.73559 2.26831 10.1251 2.32937 10.3292 2.60504L11.8244 4.63468C12.0285 4.9122 11.9673 5.30071 11.6908 5.50423C11.4126 5.70775 11.023 5.64669 10.819 5.37102L9.32375 3.34138ZM21.5342 2.60502C21.7383 2.32749 22.1278 2.26829 22.4061 2.47181C22.6844 2.67532 22.7437 3.06385 22.5397 3.34136L21.0444 5.371C20.8404 5.64852 20.4508 5.70773 20.1726 5.50421C19.8943 5.30069 19.8349 4.91216 20.039 4.63466L21.5342 2.60502ZM15.3067 0.623499C15.3067 0.279371 15.5868 0 15.9319 0C16.2769 0 16.557 0.279371 16.557 0.623499V3.14155C16.557 3.48568 16.2769 3.76505 15.9319 3.76505C15.5868 3.76505 15.3067 3.48568 15.3067 3.14155V0.623499Z" fill="#1447E6"/>
</svg>
