<svg width="40" height="36" viewBox="0 0 40 36" fill="none" xmlns="http://www.w3.org/2000/svg">
<path fill-rule="evenodd" clip-rule="evenodd" d="M24.0684 7.9831C22.8404 7.9831 21.8367 8.98404 21.8367 10.2088V11.9128C21.8367 11.9591 21.8738 11.9961 21.9202 11.9961H26.2167C26.2631 11.9961 26.3002 11.9591 26.3002 11.9128V10.2088C26.3002 8.98589 25.2965 7.9831 24.0684 7.9831ZM32.6909 29.7909C30.9712 29.7909 29.578 31.1803 29.578 32.8954C29.578 34.6105 30.9712 36 32.6909 36C34.4106 36 35.8038 34.6105 35.8038 32.8954C35.802 31.1803 34.4088 29.7909 32.6909 29.7909ZM10.9433 29.7909C9.2236 29.7909 7.8304 31.1803 7.8304 32.8954C7.8304 34.6105 9.2236 36 10.9433 36C12.663 36 14.0562 34.6105 14.0562 32.8954C14.0562 31.1803 12.663 29.7909 10.9433 29.7909ZM6.84904 21.1323L8.73943 14.8954C9.03996 13.9074 9.91745 13.2562 10.9526 13.2562H38.7497C39.4379 13.2562 40 13.8168 40 14.5032V31.6503C40 32.3367 39.4379 32.8973 38.7497 32.8973H37.1357C37.0912 32.8973 37.0541 32.8603 37.0522 32.8159C37.0077 30.4514 35.0728 28.5476 32.6908 28.5476C30.3089 28.5476 28.3721 30.4514 28.3294 32.8159C28.3294 32.8603 28.2923 32.8973 28.246 32.8973H15.3882C15.3437 32.8973 15.3066 32.8603 15.3047 32.8159C15.2602 30.4514 13.3253 28.5476 10.9433 28.5476C8.56137 28.5476 6.62458 30.4514 6.58193 32.8159C6.58193 32.8603 6.54483 32.8973 6.49845 32.8973H1.63251C0.732788 32.8973 0 32.1665 0 31.2692L0.00185394 25.0399C0.00185394 24.1666 0.627033 23.4358 1.49337 23.297L4.99769 22.742C5.8937 22.5995 6.58566 21.9981 6.84904 21.1323ZM25.4262 16.9861H22.7121C22.2112 16.9861 21.8031 17.395 21.8031 17.8927V20.5032C21.8031 20.5495 21.766 20.5865 21.7196 20.5865H19.1021C18.6012 20.5865 18.193 20.9954 18.193 21.4931V24.1998C18.193 24.6994 18.603 25.1064 19.1021 25.1064H21.7196C21.766 25.1064 21.8031 25.1434 21.8031 25.1897V27.8002C21.8031 28.2998 22.2131 28.7068 22.7121 28.7068H25.4262C25.927 28.7068 26.3352 28.298 26.3352 27.8002V25.1897C26.3352 25.1434 26.3723 25.1064 26.4187 25.1064L29.0362 25.1101C29.5371 25.1101 29.9453 24.7012 29.9453 24.2035V21.4968C29.9453 20.9972 29.5353 20.5902 29.0362 20.5902H26.4187C26.3723 20.5902 26.3352 20.5532 26.3352 20.5069V17.8964C26.3352 17.395 25.9252 16.9861 25.4262 16.9861ZM14.7055 8.09445C14.366 8.04264 14.0469 8.27392 13.995 8.61252C13.943 8.95109 14.1749 9.26931 14.5144 9.32113L17.0096 9.70966C17.3491 9.76147 17.6681 9.53019 17.7201 9.19159C17.7721 8.85299 17.5402 8.5348 17.2006 8.48298L14.7055 8.09445ZM33.6222 9.32108C33.9617 9.26927 34.1954 8.95105 34.1416 8.61247C34.0897 8.27389 33.7706 8.04079 33.4311 8.0944L30.936 8.48293C30.5965 8.53474 30.3628 8.85296 30.4165 9.19154C30.4685 9.53012 30.7875 9.76323 31.127 9.70961L33.6222 9.32108ZM30.6763 3.34138C30.8803 3.06386 30.8191 2.67535 30.5427 2.47183C30.2644 2.26831 29.8749 2.32937 29.6708 2.60504L28.1756 4.63468C27.9715 4.9122 28.0327 5.30071 28.3092 5.50423C28.5874 5.70775 28.977 5.64669 29.181 5.37102L30.6763 3.34138ZM18.4658 2.60502C18.2617 2.32749 17.8722 2.26829 17.5939 2.47181C17.3156 2.67532 17.2563 3.06385 17.4603 3.34136L18.9556 5.371C19.1596 5.64852 19.5492 5.70773 19.8274 5.50421C20.1057 5.30069 20.1651 4.91216 19.961 4.63466L18.4658 2.60502ZM24.6933 0.623499C24.6933 0.279371 24.4132 0 24.0681 0C23.7231 0 23.443 0.279371 23.443 0.623499V3.14155C23.443 3.48568 23.7231 3.76505 24.0681 3.76505C24.4132 3.76505 24.6933 3.48568 24.6933 3.14155V0.623499Z" fill="#1447E6"/>
</svg>
