<svg width="60" height="60" viewBox="0 0 60 60" fill="none" xmlns="http://www.w3.org/2000/svg">
<rect x="0.5" y="0.5" width="59" height="59" rx="5.5" fill="#1B1662" stroke="white"/>
<path d="M45.5792 30.7322H38.3479V44.1026H47.0002V32.1532C46.9976 31.3695 46.3629 30.7348 45.5792 30.7322ZM44.0132 41.1816H41.3473V38.5198H44.0132V41.1816ZM44.0132 36.316L41.3473 36.3147V33.674H44.0132V36.316Z" fill="white"/>
<path d="M13.0001 32.1571V44.1064H21.6524V30.7319H14.4293C14.0507 30.7306 13.6867 30.8807 13.4184 31.1477C13.1501 31.416 13.0001 31.7785 13.0001 32.1571ZM15.9954 33.6739H18.6572V36.3358H15.9954V33.6739ZM15.9954 38.5396H18.6572V41.2015H15.9954V38.5396Z" fill="white"/>
<path d="M35.7722 22.6441H35.2036C34.5183 23.8913 33.4065 24.8517 32.0729 25.3471C30.738 25.8439 29.2702 25.8439 27.9353 25.3471C26.6017 24.8517 25.4899 23.8913 24.8045 22.6441H24.2559C23.8774 22.6427 23.5134 22.7928 23.2451 23.0598C22.9781 23.3281 22.8267 23.6908 22.8267 24.0693V44.1025H27.8212V38.128H32.1887V44.1025H37.1818V24.0693C37.1818 23.2883 36.5535 22.6534 35.7725 22.6441L35.7722 22.6441ZM28.4878 35.5656H25.8259V32.9037H28.4878V35.5656ZM28.4878 30.704L25.8259 30.7027V28.0422H28.4878V30.704ZM34.1821 35.5656H31.5202V32.9037H34.1821V35.5656ZM34.1821 30.704L31.5202 30.7027V28.0422H34.1821V30.704Z" fill="white"/>
<path d="M30.0049 24.5509C31.9362 24.5536 33.679 23.39 34.4186 21.6061C35.1598 19.8222 34.752 17.7674 33.3865 16.4004C32.0211 15.0336 29.9661 14.6245 28.1822 15.363C26.397 16.1029 25.2334 17.8443 25.2334 19.7757C25.2334 22.4111 27.3679 24.5496 30.0045 24.5509H30.0049ZM27.1198 19.3109C27.1198 19.0599 27.3231 18.8567 27.5728 18.8567H29.0977V17.3291C29.1003 17.0781 29.3035 16.8749 29.5546 16.8749H30.4857C30.7368 16.8749 30.9413 17.0781 30.944 17.3291V18.8407H32.4689H32.4676C32.7186 18.8407 32.9232 19.0426 32.9258 19.2936V20.2287C32.9232 20.4798 32.7186 20.683 32.4676 20.683H30.9427V22.2119L30.944 22.2105C30.9414 22.4616 30.7368 22.6648 30.4857 22.6648H29.5387C29.2876 22.6648 29.0831 22.4616 29.0817 22.2105V20.699H27.5568C27.3071 20.699 27.1039 20.4957 27.1039 20.246L27.1198 19.3109Z" fill="white"/>
</svg>
