<svg width="40" height="40" viewBox="0 0 40 40" fill="none" xmlns="http://www.w3.org/2000/svg">
<path d="M26.2538 35.6209H31.253C31.5967 35.6209 31.8779 35.3397 31.8779 34.996C31.8779 34.6507 31.5967 34.3711 31.253 34.3711H26.2538C25.9101 34.3711 25.6289 34.6523 25.6289 34.996C25.6289 35.3413 25.9101 35.6209 26.2538 35.6209Z" fill="#1447E6"/>
<path d="M18.1288 19.9985H39.3755C39.7207 19.9985 40.0004 20.3438 40.0004 20.6234V24.3729C40.0004 24.7181 39.7207 24.9978 39.3755 24.9978H18.1288C17.7836 24.9978 17.5039 24.6525 17.5039 24.3729V20.6234C17.5039 20.2782 17.7836 19.9985 18.1288 19.9985Z" fill="#1447E6"/>
<path d="M18.7539 38.1204C18.7539 39.1546 19.5944 39.9951 20.6286 39.9951H36.8761C37.9103 39.9951 38.7508 39.1546 38.7508 38.1204V26.2471H18.7539V38.1204ZM26.2527 33.1212H31.252C32.2862 33.1212 33.1267 33.9617 33.1267 34.9959C33.1267 36.0301 32.2862 36.8706 31.252 36.8706H26.2527C25.2185 36.8706 24.378 36.0301 24.378 34.9959C24.378 33.9617 25.2185 33.1212 26.2527 33.1212Z" fill="#1447E6"/>
<path d="M16.2537 24.3729V24.3463C12.4105 24.0276 9.37954 20.7984 9.37954 16.8739C9.37954 12.7401 12.7447 9.37505 16.8784 9.37505C21.0137 9.37505 24.3772 12.7402 24.3772 16.8739C24.3772 17.5207 24.2944 18.1487 24.1397 18.7486H33.6463C33.715 18.1268 33.7494 17.4988 33.7494 16.8739C33.7494 15.999 33.6806 15.1179 33.5463 14.2555C33.5025 13.9774 33.2776 13.7618 32.9979 13.7306L29.5172 13.3432C29.2329 12.3246 28.8298 11.3482 28.3096 10.428L30.4968 7.69561C30.6718 7.47534 30.6796 7.16446 30.514 6.93637C29.9953 6.22712 29.4219 5.55535 28.808 4.9398C28.1924 4.32426 27.5207 3.75091 26.8114 3.23383C26.5833 3.06823 26.2724 3.07448 26.0522 3.25102L23.3198 5.43819C22.3996 4.91952 21.4232 4.51334 20.4046 4.23058L20.0172 0.749887C19.9859 0.468683 19.7704 0.243726 19.4923 0.201533C17.7675 -0.0671775 15.9803 -0.0671775 14.2571 0.201533C13.979 0.245278 13.7634 0.470243 13.7322 0.749887L13.3447 4.23058C12.3261 4.51491 11.3497 4.918 10.4295 5.43819L7.69717 3.25102C7.4769 3.07604 7.16602 3.06823 6.93793 3.23383C6.22868 3.75251 5.55691 4.32586 4.94136 4.9398C4.32582 5.55535 3.75247 6.22552 3.23539 6.93637C3.06979 7.16446 3.07604 7.47381 3.25258 7.69561L5.43975 10.428C4.92108 11.3482 4.5149 12.3246 4.23214 13.3432L0.751447 13.7306C0.470243 13.7619 0.246845 13.9774 0.203092 14.2555C0.0687373 15.1179 0 15.999 0 16.8739C0 17.7487 0.0687413 18.6298 0.203092 19.4922C0.246833 19.7703 0.471798 19.9859 0.751447 20.0171L4.23214 20.4046C4.51647 21.4232 4.91956 22.3996 5.43975 23.3198L3.25258 26.0521C3.0776 26.2724 3.06979 26.5833 3.23695 26.8114C4.27431 28.2315 5.51784 29.4782 6.93949 30.5139C7.16758 30.6795 7.47849 30.6733 7.69874 30.4983L10.4311 28.3111C11.3513 28.8298 12.3277 29.236 13.3463 29.5187L13.7337 32.9994C13.765 33.2806 13.9806 33.504 14.2587 33.5478C15.121 33.6821 16.0021 33.7509 16.877 33.7509C17.0848 33.7509 17.2926 33.7478 17.5019 33.7384V26.1444C16.7739 25.8866 16.2521 25.1914 16.2521 24.3774L16.2537 24.3729Z" fill="#1447E6"/>
</svg>
