<svg width="40" height="43" viewBox="0 0 40 43" fill="none" xmlns="http://www.w3.org/2000/svg">
<path d="M39.3313 27.5289L30.0223 38.2027C29.4095 38.9058 28.6532 39.4694 27.8043 39.8558C26.9554 40.2421 26.0337 40.4421 25.101 40.4424H11.1025L8.67467 42.8703L0 34.4187L6.21182 28.2463C7.47351 26.9931 9.06252 26.1205 10.797 25.7282C12.5315 25.336 14.3414 25.44 16.0195 26.0284L17.38 26.5052H25.779C26.1324 26.505 26.4821 26.576 26.8073 26.7142C27.1325 26.8523 27.4264 27.0547 27.6715 27.3092C27.9166 27.5637 28.1078 27.865 28.2336 28.1952C28.3594 28.5253 28.4173 28.8775 28.4038 29.2305C28.3643 29.931 28.0554 30.5891 27.5417 31.0669C27.028 31.5447 26.3493 31.8053 25.6478 31.794H20.6259C20.3532 31.794 20.0917 31.9023 19.8989 32.0951C19.7062 32.2879 19.5978 32.5494 19.5978 32.822C19.5978 33.0947 19.7062 33.3561 19.8989 33.5489C20.0917 33.7417 20.3532 33.85 20.6259 33.85H25.6653C26.8951 33.8509 28.0786 33.3808 28.9727 32.5363C29.8668 31.6919 30.4036 30.5372 30.4729 29.3093C30.4729 29.3093 30.4729 29.2655 30.4729 29.2437L35.1361 23.9942C35.6107 23.4462 36.278 23.1019 36.9996 23.0327C37.7213 22.9634 38.4419 23.1746 39.012 23.6224C39.2922 23.8561 39.5231 24.1432 39.6912 24.467C39.8593 24.7909 39.9611 25.145 39.9909 25.5087C40.0206 25.8723 39.9776 26.2383 39.8643 26.5851C39.7511 26.932 39.5699 27.2528 39.3313 27.5289ZM14.0335 9.62394C14.246 8.83541 14.5608 8.07804 14.9696 7.37107L13.9153 5.86186C13.7265 5.59398 13.6384 5.26805 13.6664 4.94153C13.6944 4.61501 13.8368 4.30885 14.0685 4.07705L15.1533 2.99217C15.3854 2.75938 15.6924 2.61629 16.0199 2.58826C16.3474 2.56023 16.6743 2.64909 16.9425 2.83906L18.443 3.89332C19.15 3.48452 19.9073 3.16981 20.6959 2.95718L21.0152 1.14612C21.0727 0.824793 21.2413 0.533912 21.4916 0.324385C21.742 0.114858 22.058 3.1155e-05 22.3844 0H23.9417C24.2688 0.000213527 24.5853 0.115659 24.8357 0.326061C25.0861 0.536463 25.2544 0.828365 25.311 1.1505L25.6303 2.96155C26.4171 3.17306 27.173 3.4863 27.8788 3.89332L29.3662 2.83906C29.6345 2.65081 29.9607 2.56338 30.2873 2.5922C30.6138 2.62101 30.9197 2.76421 31.151 2.99655L32.2533 4.08143C32.485 4.31323 32.6274 4.61938 32.6554 4.9459C32.6834 5.27243 32.5952 5.59836 32.4064 5.86623L31.3347 7.37107C31.7374 8.07895 32.0462 8.83628 32.2533 9.62394L34.0644 9.94328C34.3865 9.99985 34.6784 10.1681 34.8888 10.4185C35.0992 10.6689 35.2147 10.9854 35.2149 11.3125V12.848C35.2147 13.175 35.0992 13.4916 34.8888 13.742C34.6784 13.9924 34.3865 14.1606 34.0644 14.2172L32.2533 14.5365C32.0407 15.325 31.726 16.0824 31.3172 16.7894L32.3714 18.2942C32.5648 18.5581 32.6589 18.8817 32.6373 19.2081C32.6157 19.5346 32.4797 19.8429 32.2533 20.079L31.1685 21.1639C30.9367 21.3956 30.6305 21.538 30.304 21.566C29.9774 21.594 29.6515 21.5058 29.3837 21.317L27.8788 20.2628C27.1718 20.6716 26.4145 20.9863 25.6259 21.1989L25.3066 23.01C25.2492 23.3306 25.0812 23.6209 24.8318 23.8303C24.5824 24.0398 24.2674 24.155 23.9417 24.1561H22.3844C22.0574 24.1559 21.7408 24.0404 21.4904 23.83C21.24 23.6196 21.0718 23.3277 21.0152 23.0056L20.6959 21.1945C19.9074 20.9818 19.15 20.6671 18.443 20.2584L16.9425 21.317C16.6746 21.5058 16.3487 21.594 16.0222 21.566C15.6957 21.538 15.3895 21.3956 15.1577 21.1639L14.0685 20.079C13.8368 19.8472 13.6944 19.5411 13.6664 19.2146C13.6384 18.888 13.7265 18.5621 13.9153 18.2942L14.9696 16.7894C14.5607 16.0825 14.246 15.3251 14.0335 14.5365L12.2224 14.2172C11.9003 14.1606 11.6084 13.9924 11.398 13.742C11.1876 13.4916 11.0721 13.175 11.0719 12.848V11.3125C11.0721 10.9854 11.1876 10.6689 11.398 10.4185C11.6084 10.1681 11.9003 9.99985 12.2224 9.94328L14.0335 9.62394ZM20.0965 13.211C20.1676 13.3475 20.2694 13.4655 20.3939 13.5558C20.5184 13.6462 20.6622 13.7063 20.814 13.7316H20.9277L22.4632 13.8016L22.0695 16.1988C22.0513 16.3089 22.055 16.4214 22.0804 16.53C22.1058 16.6385 22.1523 16.741 22.2173 16.8316C22.2823 16.9222 22.3645 16.9991 22.4592 17.0579C22.554 17.1167 22.6593 17.1563 22.7694 17.1744H22.905C23.0629 17.1754 23.218 17.132 23.3526 17.0493C23.4871 16.9665 23.5958 16.8477 23.6662 16.7063L26.2165 11.8418C26.2857 11.7031 26.3213 11.5501 26.3205 11.3951C26.3197 11.2401 26.2825 11.0875 26.2118 10.9495C26.1411 10.8116 26.039 10.6922 25.9137 10.601C25.7883 10.5098 25.6433 10.4493 25.4903 10.4245H25.381L23.8455 10.3545L24.2392 7.96163C24.2573 7.85129 24.2534 7.73847 24.2278 7.62965C24.2022 7.52082 24.1553 7.41813 24.0898 7.32748C24.0244 7.23683 23.9417 7.16001 23.8464 7.10143C23.7512 7.04284 23.6453 7.00365 23.5349 6.98611H23.3993C23.2417 6.98183 23.0861 7.02177 22.95 7.10141C22.8139 7.18104 22.7029 7.29718 22.6294 7.43668L20.0878 12.3143C20.0188 12.454 19.9836 12.6079 19.9852 12.7637C19.9867 12.9195 20.0248 13.0727 20.0965 13.211Z" fill="#1447E6"/>
</svg>
