<svg width="40" height="40" viewBox="0 0 40 40" fill="none" xmlns="http://www.w3.org/2000/svg">
<path fill-rule="evenodd" clip-rule="evenodd" d="M35.676 11.5585C36.0466 12.2463 36.5109 13.3087 36.6848 13.8418C36.6925 13.8648 36.6887 13.8896 36.6753 13.9106C36.6619 13.9316 36.6409 13.945 36.6161 13.9469C35.6683 14.0616 35.0358 13.9928 34.713 13.8724C33.8856 13.561 34.3633 12.9056 32.3646 14.1246C32.3513 14.1342 32.336 14.138 32.3188 14.1361C29.1106 14.01 27.5648 14.394 28.1686 9.61144V9.60189C28.1954 7.92234 27.817 6.38802 27.0317 5.00083C27.0222 4.98555 27.0107 4.97408 26.9954 4.96644C24.8687 3.97478 22.4956 3.41872 19.9947 3.41872C19.4845 3.41872 18.9801 3.44356 18.4813 3.4875C18.4546 3.48942 18.4336 3.50279 18.4202 3.52572C16.3413 6.94024 14.7229 11.0596 18.1011 11.5278H18.1145C23.2907 11.3539 23.3919 24.1312 21.4086 25.0097C21.4029 25.0117 21.3991 25.0136 21.3933 25.0136C16.5305 26.16 17.9273 16.8506 13.5972 16.5243C10.8687 16.318 11.1438 18.8364 9.20441 18.7848C7.2994 18.7332 7.586 16.1556 4.5288 16.1383C4.32052 16.1364 4.11225 16.1536 3.90591 16.1861C3.87343 16.1919 3.84668 16.2148 3.84095 16.2473C3.43204 18.0204 3.3155 19.8586 3.50274 21.693C3.50465 21.7159 3.49892 21.735 3.48554 21.7522C3.47217 21.7694 3.45306 21.779 3.43013 21.7809L2.37347 21.8745C2.32952 21.8783 2.28939 21.8458 2.28557 21.8019C1.5671 14.6901 5.11155 7.94521 11.306 4.45218C13.9352 2.96947 16.9582 2.18986 19.9943 2.18986C26.7774 2.19941 32.6682 5.9869 35.676 11.5585ZM0.000146478 0.605892V7.5132C0.000146478 7.84758 0.271474 8.11892 0.605864 8.11892C0.940243 8.11892 1.21158 7.84759 1.21158 7.5132V1.29168C1.21158 1.24774 1.24788 1.21143 1.29183 1.21143H7.51336C7.84774 1.21143 8.11907 0.940105 8.11907 0.605716C8.11907 0.271337 7.84775 0 7.51336 0H0.60604C0.27166 0 0.000146478 0.271503 0.000146478 0.605892ZM31.8811 0.605892C31.8811 0.940271 32.1524 1.21161 32.4868 1.21161H38.7064C38.7504 1.21161 38.7867 1.24791 38.7867 1.29186V7.51338C38.7867 7.84776 39.058 8.11909 39.3924 8.11909C39.7268 8.11909 39.9981 7.84777 39.9981 7.51338L40 0.606069C40 0.27169 39.7287 0.000352201 39.3943 0.000352201H32.487C32.1526 0.000352201 31.8811 0.271503 31.8811 0.605892ZM38.7884 32.4868C38.7884 32.1525 39.0598 31.8811 39.3942 31.8811C39.7285 31.8811 39.9999 32.1524 39.9999 32.4868V39.3941C39.9999 39.7285 39.7285 39.9999 39.3942 39.9999H32.4868C32.1525 39.9999 31.8811 39.7285 31.8811 39.3941C31.8811 39.0598 32.1524 38.7884 32.4868 38.7884H38.7064C38.7504 38.7884 38.7867 38.7521 38.7867 38.7082L38.7884 32.4868ZM7.51303 38.7886C7.84741 38.7886 8.11875 39.0599 8.11875 39.3943C8.11875 39.7287 7.84742 40 7.51303 40H0.605717C0.271337 40 0 39.7287 0 39.3943V32.487C0 32.1526 0.271327 31.8813 0.605717 31.8813C0.940096 31.8813 1.21143 32.1526 1.21143 32.487V38.7085C1.21143 38.7524 1.24774 38.7887 1.29168 38.7887L7.51303 38.7886ZM19.9331 36.9523C19.0255 28.31 11.2066 22.0464 2.55303 23.0805C2.5301 23.0824 2.511 23.0939 2.49762 23.113C2.48424 23.1321 2.47851 23.1531 2.48233 23.176C3.87529 30.9071 10.2589 36.9026 18.1773 37.7073C18.2155 37.7111 18.2518 37.6882 18.2632 37.6518C18.2747 37.6155 18.2594 37.5754 18.225 37.5563C14.8526 35.6933 11.868 33.3183 9.70694 30.2841C9.51396 30.0128 9.57701 29.6345 9.84834 29.4414C10.1197 29.2485 10.498 29.3115 10.691 29.5828C12.9552 32.7623 16.19 35.1812 19.8147 37.0311C19.8414 37.0445 19.872 37.0426 19.8968 37.0254C19.9236 37.0101 19.9369 36.981 19.9331 36.9523ZM20.1853 36.3677C20.1796 36.404 20.1987 36.4384 20.2312 36.4536C20.2656 36.4689 20.3038 36.4613 20.3286 36.4326C21.37 35.1658 22.4897 33.8932 23.5788 32.8079C27.2283 29.1698 32.3322 29.1068 33.3198 25.3043C33.4038 24.9814 33.7325 24.7865 34.0554 24.8706C34.3783 24.9547 34.5732 25.2833 34.4891 25.6062C33.3064 30.1595 27.9849 30.1213 24.4312 33.664C23.2293 34.862 22.0409 36.2321 20.9021 37.6422C20.881 37.667 20.8772 37.7014 20.8925 37.7301C20.9078 37.7587 20.9365 37.7759 20.9689 37.774C30.3489 37.2696 37.8007 29.5064 37.8007 20.0002C37.8007 18.4391 37.5981 16.9239 37.2198 15.4813C37.2102 15.4431 37.1739 15.4182 37.1338 15.4221C37.0937 15.4259 37.0631 15.4584 37.0612 15.5004C36.6313 26.1796 22.7803 19.0888 20.1853 36.3677Z" fill="#1447E6"/>
</svg>
