<svg width="40" height="38" viewBox="0 0 40 38" fill="none" xmlns="http://www.w3.org/2000/svg">
<path fill-rule="evenodd" clip-rule="evenodd" d="M27.0607 26.9887C27.0799 26.8909 27.1297 26.8016 27.2031 26.7334C27.2121 26.7249 27.2216 26.7164 27.2311 26.7088C27.274 26.636 27.3156 26.5622 27.3558 26.4885C27.3644 26.4696 27.3744 26.4514 27.3857 26.4339C28.1096 25.0836 28.4681 23.5711 28.4265 22.0432C28.3849 20.5153 27.9445 19.0241 27.1481 17.7143C26.3517 16.4045 25.2264 15.3208 23.8815 14.5683C22.5366 13.8158 21.0179 13.4202 19.4728 13.4199C17.9276 13.4196 16.4087 13.8146 15.0635 14.5665C13.7183 15.3185 12.5926 16.4018 11.7957 17.7113C10.9988 19.0207 10.5578 20.5118 10.5155 22.0396C10.4733 23.5675 10.8312 25.0802 11.5546 26.4308C11.5665 26.4496 11.577 26.4691 11.5862 26.4894C12.6892 28.507 14.5396 30.0236 16.7488 30.7206C18.958 31.4176 21.3543 31.2408 23.4346 30.2275C23.4409 30.2208 23.4472 30.2145 23.454 30.2082C23.526 30.1411 23.6172 30.0977 23.7152 30.084C25.0805 29.3539 26.2323 28.2878 27.0594 26.9887H27.0607ZM14.1527 16.6872L14.164 16.6783C15.6637 15.288 17.6598 14.543 19.7141 14.6068C21.7685 14.6706 23.7133 15.5379 25.122 17.0185L25.1315 17.0296C25.5907 17.5138 25.9846 18.0547 26.3033 18.639C26.3173 18.6605 26.3295 18.6831 26.3399 18.7065C27.2223 20.3716 27.4587 22.2985 27.0047 24.1241C27.0001 24.1516 26.9931 24.1787 26.9839 24.205C26.7248 25.1994 26.2654 26.1318 25.6331 26.9462C25.6203 26.9655 25.6061 26.9839 25.5907 27.0012C25.3465 27.31 25.079 27.5999 24.7903 27.8685L24.779 27.8778C23.2773 29.2705 21.2779 30.0159 19.2206 29.9503C17.1633 29.8847 15.2166 29.0133 13.8088 27.5278C13.6479 27.3573 13.4962 27.1821 13.3537 27.0021C13.3372 26.9845 13.3221 26.9657 13.3085 26.9458C12.6758 26.131 12.216 25.1981 11.9568 24.2032C11.9481 24.1783 11.9414 24.1527 11.9369 24.1268C11.4811 22.3005 11.7168 20.3723 12.5994 18.706C12.6094 18.6831 12.6212 18.6609 12.6347 18.6399C13.0308 17.9126 13.5433 17.2535 14.1522 16.6881L14.1527 16.6872ZM4.62943 6.66555H1.9577C1.94592 6.66528 1.93421 6.66735 1.92326 6.67165C1.91232 6.67595 1.90236 6.68239 1.89398 6.69059C1.8857 6.69887 1.87919 6.70872 1.87484 6.71955C1.87049 6.73038 1.86839 6.74197 1.86867 6.75362V7.68122C1.86974 7.95078 1.97844 8.209 2.17109 8.39965C2.36374 8.59031 2.62473 8.69794 2.89723 8.69912H4.01618L4.63124 6.66376L4.62943 6.66555ZM35.9856 8.70091H37.1046C37.377 8.6995 37.6379 8.59179 37.8305 8.40119C38.0231 8.21058 38.1318 7.9525 38.1331 7.68301V6.75541C38.133 6.74365 38.1306 6.73204 38.1259 6.72122C38.1213 6.7104 38.1145 6.7006 38.106 6.69237C38.0976 6.68418 38.0877 6.67774 38.0767 6.67344C38.0658 6.66914 38.0541 6.66706 38.0423 6.66734H35.3706L35.9856 8.70269V8.70091ZM35.1776 9.33793L35.4058 10.0934H4.59418L4.82014 9.33793C4.82636 9.32079 4.83164 9.30333 4.83596 9.28563L5.72261 6.35263C5.72869 6.33578 5.73382 6.31862 5.73798 6.30122L6.99476 2.14379C7.17514 1.51982 7.55803 0.97189 8.0844 0.584511C8.61076 0.197131 9.25135 -0.00817832 9.90736 0.000249478H30.0926C30.7482 -0.007712 31.3882 0.197761 31.9141 0.585017C32.44 0.972273 32.8226 1.51983 33.003 2.14334L34.2598 6.30077C34.2639 6.31817 34.2691 6.33534 34.2751 6.35218L35.1618 9.28518C35.1659 9.30294 35.1712 9.32041 35.1776 9.33749V9.33793ZM6.45065 16.2402C6.14557 15.9385 5.74418 15.7508 5.31488 15.709C4.88558 15.6673 4.45492 15.774 4.09628 16.0112C3.73764 16.2483 3.47321 16.6011 3.34803 17.0094C3.22286 17.4178 3.24469 17.8564 3.40981 18.2506C3.57493 18.6449 3.87311 18.9703 4.25356 19.1714C4.63402 19.3725 5.0732 19.4369 5.49628 19.3536C5.91935 19.2704 6.30016 19.0446 6.57381 18.7147C6.84746 18.3848 6.99702 17.9713 6.99702 17.5446C6.99731 17.3023 6.94919 17.0623 6.85543 16.8385C6.76167 16.6146 6.6241 16.4113 6.45065 16.2402ZM5.13196 14.7524C5.78552 14.7524 6.41888 14.9765 6.9241 15.3867C7.42933 15.7968 7.77517 16.3675 7.9027 17.0016C8.03023 17.6357 7.93155 18.2939 7.62348 18.864C7.31542 19.4342 6.81702 19.8811 6.21321 20.1285C5.60941 20.3759 4.93755 20.4086 4.31213 20.221C3.6867 20.0333 3.1464 19.637 2.78328 19.0994C2.42016 18.5619 2.2567 17.9164 2.32074 17.273C2.38478 16.6296 2.67236 16.0281 3.13449 15.571C3.39644 15.311 3.70778 15.1048 4.05059 14.9644C4.39339 14.8239 4.7609 14.7519 5.13196 14.7524ZM36.1858 16.242C35.8807 15.9399 35.4792 15.7519 35.0497 15.7099C34.6202 15.6679 34.1892 15.7746 33.8302 16.0117C33.4713 16.2488 33.2066 16.6017 33.0812 17.0102C32.9558 17.4188 32.9775 17.8577 33.1426 18.2522C33.3077 18.6467 33.606 18.9723 33.9866 19.1737C34.3672 19.375 34.8066 19.4395 35.23 19.3563C35.6533 19.273 36.0344 19.0472 36.3082 18.7171C36.5821 18.3871 36.7317 17.9734 36.7317 17.5464C36.732 17.3041 36.684 17.0642 36.5903 16.8403C36.4966 16.6165 36.3592 16.4131 36.1858 16.242ZM34.868 14.7524C35.5216 14.7523 36.155 14.9764 36.6603 15.3864C37.1656 15.7965 37.5116 16.3672 37.6392 17.0013C37.7668 17.6353 37.6682 18.2936 37.3601 18.8638C37.0521 19.434 36.5538 19.881 35.95 20.1284C35.3462 20.3759 34.6743 20.4086 34.0488 20.221C33.4234 20.0334 32.883 19.6371 32.5199 19.0995C32.1567 18.562 31.9932 17.9165 32.0573 17.2731C32.1213 16.6297 32.4089 16.0281 32.871 15.571C33.1329 15.3111 33.4442 15.105 33.7869 14.9645C34.1296 14.824 34.4971 14.7519 34.868 14.7524ZM2.26048 27.159V29.8886C2.26144 30.0592 2.33041 30.2226 2.45243 30.3432C2.57445 30.4639 2.73965 30.532 2.91215 30.5328H6.83523C7.00773 30.5317 7.17287 30.4635 7.29485 30.3428C7.41683 30.2222 7.48583 30.0588 7.4869 29.8882V27.159H2.26048ZM32.5131 27.159V29.8886C32.5143 30.0592 32.5833 30.2224 32.7053 30.343C32.8273 30.4635 32.9923 30.5317 33.1648 30.5328H37.0879C37.2604 30.532 37.4257 30.4638 37.5477 30.3431C37.6698 30.2224 37.7387 30.0589 37.7395 29.8882V27.159H32.5131ZM13.0563 24.5215H25.8849C25.6702 25.1228 25.3696 25.6906 24.9923 26.2077H13.9497C13.5721 25.6907 13.2712 25.1229 13.0563 24.5215ZM13.3351 19.3681H25.6065C26.2384 20.6749 26.4285 22.1482 26.1488 23.5702H12.7947C12.5146 22.1482 12.7048 20.6749 13.337 19.3681H13.3351ZM14.831 17.3564C16.1482 16.1406 17.8992 15.4915 19.6997 15.5515C21.5003 15.6115 23.2032 16.3757 24.4347 17.6765L24.4441 17.6877C24.661 17.9171 24.8616 18.1612 25.0443 18.4181H13.8969C14.1673 18.0371 14.4767 17.6846 14.8201 17.3662L14.8314 17.3569L14.831 17.3564ZM12.6898 15.1212C11.1962 16.5081 10.1729 18.3181 9.76022 20.303C9.34758 22.2878 9.56583 24.3504 10.385 26.2077H0.484002C0.35582 26.2071 0.233057 26.1565 0.142418 26.0668C0.0517781 25.9772 0.000594271 25.8557 0 25.7289V15.165C0.00309933 14.0726 0.4431 13.0259 1.22389 12.2533C2.00468 11.4808 3.0628 11.0453 4.16712 11.042H35.8329C36.937 11.0453 37.995 11.4807 38.7758 12.253C39.5566 13.0254 39.9967 14.0719 40 15.1641V25.7307C39.9994 25.8575 39.9482 25.979 39.8576 26.0686C39.7669 26.1583 39.6442 26.2089 39.516 26.2095H28.5575C29.4711 24.1401 29.6351 21.8223 29.0217 19.6472C28.4083 17.4721 27.0551 15.573 25.1906 14.2702C23.326 12.9675 21.0642 12.3409 18.7868 12.4963C16.5094 12.6516 14.3559 13.5794 12.6898 15.123V15.1212ZM27.1032 32.05C27.2326 31.9702 27.3537 31.8779 27.4648 31.7747L28.5245 30.7912L28.5358 30.7822C28.6438 30.6811 28.7415 30.5699 28.8277 30.4501L34.1147 36.0313C34.3289 36.2578 34.4434 36.5593 34.433 36.8693C34.4226 37.1793 34.2881 37.4725 34.0591 37.6845C33.8301 37.8964 33.5254 38.0097 33.212 37.9994C32.8986 37.989 32.6022 37.856 32.3879 37.6295L27.1032 32.05ZM28.2407 29.5109C28.1718 29.7369 28.0438 29.9409 27.8697 30.1023L27.8584 30.1117L26.8095 31.0844C26.6363 31.2447 26.4235 31.3572 26.1926 31.4108C26.183 31.4124 26.1735 31.4145 26.1641 31.417C26.0553 31.4397 25.9441 31.4493 25.8329 31.4456C25.6542 31.44 25.4785 31.3996 25.3157 31.3267C25.1528 31.2538 25.0061 31.1499 24.8839 31.021L24.572 30.6919C25.7789 29.9732 26.8187 29.0105 27.6234 27.8667L27.9347 28.1952L27.9442 28.2064C28.1848 28.4664 28.3125 28.8095 28.2999 29.1617C28.2963 29.2692 28.2799 29.3759 28.2511 29.4796C28.2475 29.4899 28.2443 29.5006 28.2416 29.5109H28.2407ZM14.4469 20.8768C14.4469 20.7509 14.4974 20.6302 14.5874 20.5411C14.6774 20.4521 14.7995 20.4021 14.9268 20.4021C15.0541 20.4021 15.1762 20.4521 15.2662 20.5411C15.3562 20.6302 15.4067 20.7509 15.4067 20.8768V22.4258C15.4067 22.5517 15.3562 22.6725 15.2662 22.7615C15.1762 22.8505 15.0541 22.9006 14.9268 22.9006C14.7995 22.9006 14.6774 22.8505 14.5874 22.7615C14.4974 22.6725 14.4469 22.5517 14.4469 22.4258V20.8768ZM17.4295 20.8768C17.4295 20.7509 17.4801 20.6302 17.5701 20.5411C17.6601 20.4521 17.7822 20.4021 17.9094 20.4021C18.0367 20.4021 18.1588 20.4521 18.2488 20.5411C18.3388 20.6302 18.3894 20.7509 18.3894 20.8768V22.4258C18.3894 22.5517 18.3388 22.6725 18.2488 22.7615C18.1588 22.8505 18.0367 22.9006 17.9094 22.9006C17.7822 22.9006 17.6601 22.8505 17.5701 22.7615C17.4801 22.6725 17.4295 22.5517 17.4295 22.4258V20.8768ZM20.4121 20.8768C20.4121 20.7509 20.4627 20.6302 20.5527 20.5411C20.6427 20.4521 20.7648 20.4021 20.8921 20.4021C21.0194 20.4021 21.1414 20.4521 21.2315 20.5411C21.3215 20.6302 21.372 20.7509 21.372 20.8768V22.4258C21.372 22.5517 21.3215 22.6725 21.2315 22.7615C21.1414 22.8505 21.0194 22.9006 20.8921 22.9006C20.7648 22.9006 20.6427 22.8505 20.5527 22.7615C20.4627 22.6725 20.4121 22.5517 20.4121 22.4258V20.8768ZM23.3948 20.8768C23.3986 20.7534 23.4509 20.6362 23.5405 20.5503C23.6302 20.4643 23.7501 20.4162 23.875 20.4162C23.9998 20.4162 24.1198 20.4643 24.2094 20.5503C24.299 20.6362 24.3513 20.7534 24.3551 20.8768V22.4258C24.3513 22.5492 24.299 22.6664 24.2094 22.7524C24.1198 22.8383 23.9998 22.8864 23.875 22.8864C23.7501 22.8864 23.6302 22.8383 23.5405 22.7524C23.4509 22.6664 23.3986 22.5492 23.3948 22.4258V20.8768Z" fill="#1447E6"/>
</svg>
