<svg width="40" height="43" viewBox="0 0 40 43" fill="none" xmlns="http://www.w3.org/2000/svg">
<path d="M13.3323 21.435C13.3323 24.1312 14.9571 26.5618 17.4475 27.5955C19.94 28.6271 22.8067 28.056 24.7147 26.15C26.6207 24.2418 27.1918 21.3752 26.1603 18.8827C25.1265 16.3924 22.6959 14.7676 19.9997 14.7676C16.3184 14.7676 13.3323 17.7535 13.3323 21.435ZM23.535 17.8998C24.1858 18.5506 24.1858 19.6065 23.535 20.2574L22.3574 21.435L23.535 22.6126C23.856 22.9248 24.0398 23.3498 24.0442 23.7969C24.0486 24.2441 23.8715 24.6757 23.555 24.9901C23.2406 25.3066 22.809 25.4837 22.3618 25.4793C21.9146 25.4749 21.4896 25.2911 21.1775 24.9702L19.9999 23.7925L18.8222 24.9702C18.5101 25.2911 18.0851 25.4749 17.638 25.4793C17.1908 25.4837 16.7591 25.3066 16.4448 24.9901C16.1282 24.6758 15.9512 24.2441 15.9556 23.7969C15.96 23.3498 16.1437 22.9247 16.4647 22.6126L17.6424 21.435L16.4647 20.2574C16.1437 19.9452 15.96 19.5202 15.9556 19.0731C15.9512 18.6259 16.1282 18.1943 16.4448 17.8799C16.7591 17.5634 17.1908 17.3863 17.638 17.3907C18.0851 17.3951 18.5102 17.5789 18.8222 17.8998L19.9999 19.0775L21.1775 17.8998C21.8283 17.249 22.8842 17.249 23.535 17.8998Z" fill="#1447E6"/>
<path d="M36.7997 4.72891C31.467 4.3548 26.2717 2.87611 21.5432 0.383512C20.5781 -0.127837 19.4225 -0.127837 18.4574 0.383512C13.729 2.87605 8.53348 4.35478 3.20091 4.72891C1.41894 4.8086 0.0110505 6.27185 0 8.05602V18.6792C0.00885457 23.733 1.56946 28.6627 4.46933 32.8046C7.36921 36.9441 11.4691 40.0963 16.2169 41.832L18.86 42.7927V42.795C19.5949 43.0628 20.4029 43.0628 21.1378 42.795L23.7809 41.8343V41.832C28.5292 40.0965 32.6287 36.9443 35.5285 32.8046C38.4283 28.6629 39.9912 23.733 40 18.6792V8.05602C39.9889 6.27185 38.5811 4.80859 36.7991 4.72891H36.7997ZM30.0017 21.435C30.0017 24.087 28.948 26.6305 27.0708 28.5056C25.1958 30.3828 22.6523 31.4365 20.0002 31.4365C17.348 31.4365 14.8047 30.3828 12.9295 28.5056C11.0524 26.6307 9.99867 24.0872 9.99867 21.435C9.99867 18.7828 11.0524 16.2396 12.9295 14.3644C14.8045 12.4872 17.348 11.4335 20.0002 11.4335C22.6521 11.4379 25.1934 12.4916 27.0685 14.3666C28.9437 16.2416 29.9973 18.7829 30.0017 21.435Z" fill="#1447E6"/>
</svg>
