<svg width="40" height="38" viewBox="0 0 40 38" fill="none" xmlns="http://www.w3.org/2000/svg">
<path d="M39.8653 26.437C39.5708 25.6276 38.8507 25.0825 38.0248 24.9852C38.8844 15.6004 33.5563 6.80701 24.7217 3.28369C24.1587 2.47607 23.7632 1.57959 23.5459 0.616702C23.5005 0.415532 23.336 0.263183 23.1319 0.232913C21.0533 -0.0776375 18.9458 -0.0776375 16.8692 0.232913C16.6651 0.263183 16.501 0.415532 16.4551 0.616702C16.2374 1.57959 15.8418 2.47608 15.2789 3.28369C6.46269 6.79968 1.13817 15.564 1.98137 24.9808C1.56822 25.0276 1.17625 25.1862 0.843306 25.4517C0.375536 25.8247 0.0810964 26.3579 0.0142064 26.9526C-0.101514 27.9849 0.499066 28.9526 1.47466 29.3071C2.47368 29.6704 3.3687 30.231 4.13237 30.9692C8.50786 35.2642 14.2544 37.4107 20.0015 37.4107C25.7471 37.4097 31.4932 35.2642 35.8663 30.9722C36.6319 30.231 37.5264 29.6714 38.5264 29.3071C39.0884 29.103 39.5376 28.6919 39.7906 28.1499C40.0435 27.6079 40.0699 26.9995 39.8653 26.437ZM22.3521 4.60498C22.4283 4.33838 22.7056 4.18603 22.9693 4.25928C23.2349 4.33448 23.3897 4.61084 23.315 4.87647C22.9048 6.3296 22.7017 7.83252 22.71 9.34327C22.7115 9.61964 22.4888 9.84425 22.2129 9.8462C22.2119 9.8462 22.211 9.8462 22.21 9.8462C21.9351 9.8462 21.7115 9.62452 21.71 9.34913C21.7007 7.74463 21.917 6.14893 22.3521 4.60498ZM17.0318 4.25928C17.2989 4.18604 17.5743 4.33838 17.649 4.60498C18.0835 6.1499 18.2998 7.74561 18.2906 9.34912C18.2891 9.62451 18.0655 9.84619 17.7906 9.84619C17.7896 9.84619 17.7886 9.84619 17.7876 9.84619C17.5118 9.84424 17.2891 9.61963 17.2906 9.34326C17.2989 7.83349 17.0957 6.33056 16.6861 4.87646C16.6114 4.61084 16.7662 4.33447 17.0318 4.25928ZM13.3013 27.0415C13.3013 26.9829 13.3047 26.9224 13.3111 26.8638C13.3584 26.4214 13.5752 26.023 13.9224 25.7427C14.2696 25.4634 14.7066 25.3364 15.1475 25.3833C18.3677 25.7271 21.6333 25.7271 24.8536 25.3833C24.9092 25.3765 24.9703 25.3735 25.0313 25.3735C25.9512 25.3735 26.6993 26.1216 26.6993 27.0415V27.7808C26.6993 28.6372 26.0577 29.3501 25.2061 29.44C23.479 29.6226 21.7398 29.7134 20.0005 29.7134C18.2613 29.7134 16.522 29.6226 14.795 29.44C13.9434 29.3511 13.3013 28.6372 13.3013 27.7808V27.0415ZM33.2354 29.6265C28.9063 30.7485 24.4532 31.3091 20.0005 31.3091C15.5474 31.3091 11.0948 30.7485 6.76567 29.6265C6.49858 29.5571 6.33794 29.2837 6.40727 29.0171C6.47563 28.7495 6.75004 28.5884 7.01665 28.6577C15.5108 30.8618 24.4903 30.8618 32.9844 28.6577C33.2515 28.5894 33.525 28.7495 33.5938 29.0171C33.6631 29.2837 33.5025 29.5571 33.2354 29.6265Z" fill="#1447E6"/>
</svg>
