<svg width="40" height="41" viewBox="0 0 40 41" fill="none" xmlns="http://www.w3.org/2000/svg">
<path fill-rule="evenodd" clip-rule="evenodd" d="M13.3698 37.1868H20.0726V37.6642C20.0726 39.4991 18.565 41 16.722 41C14.8789 41 13.3714 39.4991 13.3714 37.6642V37.1868H13.3698ZM17.7155 26.8797C16.5845 26.8797 15.5844 26.3061 15.0213 25.33C14.4566 24.3571 14.4566 23.2083 15.0213 22.2354L21.559 10.9604C20.2331 9.89465 18.5505 9.25258 16.7221 9.25258C12.4778 9.25258 9.00618 12.7106 9.00618 16.9344C9.00618 24.4844 7.68034 27.9603 2.6244 33.9668V36.1602H30.8203V33.9668C28.5729 31.2959 27.0621 29.1267 26.0786 26.8782H17.7178L17.7155 26.8797ZM39.7375 24.7319C39.3872 25.3365 38.7849 25.6835 38.0843 25.6835H17.7175C17.0153 25.6835 16.4146 25.3381 16.0643 24.7319C15.714 24.129 15.714 23.4364 16.0643 22.8318L21.1563 14.0515L26.2467 5.26961C26.6002 4.66505 27.1993 4.31796 27.8999 4.31796C28.6004 4.31796 29.2028 4.66343 29.553 5.26961L34.6451 14.0515L39.7371 22.8318C40.0874 23.4364 40.0878 24.129 39.7375 24.7319ZM30.0064 9.47418C28.9245 8.23897 26.8735 8.23897 25.7914 9.47418C25.2693 10.0706 25.0418 10.8202 25.1498 11.6024L26.0648 18.2822C26.1581 18.9601 26.6197 19.5044 27.2319 19.726C26.2858 20.0112 25.5951 20.8863 25.5951 21.9227C25.5951 23.1889 26.6263 24.2155 27.8981 24.2155C29.1699 24.2155 30.2011 23.1889 30.2011 21.9227C30.2011 20.8863 29.5137 20.0128 28.5676 19.726C29.1814 19.506 29.6397 18.9601 29.7347 18.2822L30.6464 11.6024C30.7528 10.8202 30.5302 10.069 30.0064 9.47418ZM26.5675 10.1488C26.2401 10.522 26.1026 10.9718 26.1714 11.4639L27.0831 18.1437C27.1371 18.5266 27.4596 18.8069 27.8458 18.8069H27.9506C28.3369 18.8069 28.661 18.5266 28.7117 18.1437L29.6267 11.4639C29.6938 10.9718 29.558 10.522 29.2306 10.1488C28.5562 9.38132 27.2386 9.38132 26.5675 10.1488ZM26.6231 21.9211C26.6231 22.6185 27.1977 23.1889 27.8966 23.1889C28.5972 23.1889 29.1701 22.6169 29.1701 21.9211C29.1701 21.2236 28.5988 20.6532 27.8966 20.6532C27.1944 20.6532 26.6231 21.222 26.6231 21.9211ZM16.6972 6.98916C17.3323 6.98916 17.8528 6.47095 17.8528 5.83868L17.8545 1.15048C17.8545 0.518213 17.3339 0 16.6989 0C16.0638 0 15.5465 0.518213 15.5465 1.15048V5.84035C15.5465 6.47262 16.0638 6.99083 16.6989 6.99083L16.6972 6.98916ZM10.2744 7.8724C10.5903 8.41994 11.3007 8.60896 11.8506 8.29446C12.4022 7.97669 12.5921 7.27109 12.2746 6.72355L9.9208 2.66261C9.60162 2.11344 8.89288 1.92442 8.34291 2.24056C7.79294 2.55507 7.60308 3.2623 7.91898 3.80984L10.276 7.8724H10.2744ZM2.65311 9.911L6.73209 12.2544C7.28369 12.5721 7.99244 12.3831 8.30997 11.8356C8.62916 11.2864 8.43601 10.5808 7.88605 10.2646L3.80707 7.92129C3.25546 7.60352 2.54672 7.79256 2.22918 8.34009C1.91327 8.88764 2.10315 9.59487 2.65311 9.911ZM7.02189 16.6655C7.02189 16.0332 6.50137 15.515 5.86629 15.515L1.15559 15.5166C0.520515 15.5166 0 16.0348 0 16.6671C0 17.2994 0.520515 17.8176 1.15559 17.8176H5.86629C6.50137 17.8176 7.02189 17.2994 7.02189 16.6671V16.6655Z" fill="#1447E6"/>
</svg>
