<svg width="40" height="40" viewBox="0 0 40 40" fill="none" xmlns="http://www.w3.org/2000/svg">
<path fill-rule="evenodd" clip-rule="evenodd" d="M20.001 19.4072L31.8285 12.5772L26.1717 9.31048L20.001 5.74931L8.17356 12.5793L20.001 19.4072ZM19.4852 20.2969V33.9547L7.65773 27.1269V13.4692L19.4852 20.2969ZM16.603 21.3694L14.9115 22.3472C14.6665 22.489 14.5827 22.805 14.7245 23.0499C14.8664 23.2949 15.1823 23.3788 15.4273 23.2369L17.1188 22.2591C17.3638 22.1172 17.4477 21.8013 17.3058 21.5563C17.1639 21.3113 16.848 21.2275 16.603 21.3694ZM12.2357 23.8924L10.5442 24.8703C10.2992 25.0121 10.2132 25.3238 10.355 25.5709C10.4969 25.8159 10.8085 25.9019 11.0557 25.76L12.7472 24.7822C12.9922 24.6403 13.0782 24.3266 12.9363 24.0816C12.7944 23.8344 12.4807 23.7506 12.2357 23.8924ZM32.3445 13.4692V27.127L20.517 33.9547V20.297L32.3445 13.4692ZM23.399 21.3693C23.154 21.2275 22.8381 21.3113 22.6962 21.5563C22.5544 21.8013 22.6382 22.1172 22.8832 22.259L24.5747 23.2369C24.8197 23.3787 25.1356 23.2949 25.2775 23.0499C25.4193 22.8049 25.3355 22.489 25.0905 22.3471L23.399 21.3693ZM27.0657 24.0815C26.9239 24.3265 27.0098 24.6403 27.2549 24.7821L28.9463 25.76C29.1914 25.9018 29.5051 25.8159 29.647 25.5709C29.7888 25.3259 29.7029 25.0121 29.4579 24.8703L27.7664 23.8924C27.5214 23.7506 27.2076 23.8344 27.0657 24.0815ZM27.5687 1.03159C27.285 1.03159 27.0528 0.801634 27.0528 0.515797C27.0528 0.232106 27.2828 0 27.5687 0H39.4842C39.7679 0 40 0.22996 40 0.515797V12.4306C40 12.7143 39.77 12.9464 39.4842 12.9464C39.2005 12.9464 38.9683 12.7164 38.9683 12.4306L38.9705 1.03132L27.5687 1.03159ZM38.9708 27.567V38.9684H27.5687C27.285 38.9684 27.0528 39.1984 27.0528 39.4842C27.0528 39.7679 27.2828 40 27.5687 40H39.4842C39.7679 40 40 39.77 40 39.4842V27.5672C40 27.2835 39.77 27.0514 39.4842 27.0514C39.2005 27.0536 38.9708 27.2833 38.9708 27.567ZM12.4338 38.9684H1.03166V27.567C1.03166 27.2833 0.801684 27.0512 0.515829 27.0512C0.23212 27.0512 0 27.2811 0 27.567V39.4817C0 39.7654 0.229974 39.9975 0.515829 39.9975H12.4313C12.715 39.9975 12.9472 39.7676 12.9472 39.4817C12.9472 39.198 12.7175 38.9684 12.4338 38.9684ZM1.03166 12.4331C1.03166 12.7167 0.801684 12.9488 0.515829 12.9488C0.23212 12.9488 0 12.7189 0 12.4331L0.00214929 0.516073C0.00214929 0.232381 0.232124 0.000275465 0.517978 0.000275465H12.4335C12.7172 0.000275465 12.9493 0.230236 12.9493 0.516073C12.9493 0.799758 12.7193 1.03187 12.4335 1.03187H1.03133L1.03166 12.4331ZM20.5171 9.3748V11.3284C20.5171 11.6121 20.2871 11.8442 20.0012 11.8442C19.7175 11.8442 19.4854 11.6142 19.4854 11.3284V9.3748C19.4854 9.09111 19.7154 8.859 20.0012 8.859C20.2871 8.859 20.5171 9.09111 20.5171 9.3748ZM19.4854 14.421C19.4854 14.1373 19.7154 13.9052 20.0012 13.9052C20.2849 13.9052 20.5171 14.1352 20.5171 14.421V16.3746C20.5171 16.6583 20.2871 16.8904 20.0012 16.8904C19.7175 16.8904 19.4854 16.6605 19.4854 16.3746V14.421Z" fill="#1447E6"/>
</svg>
