<svg width="40" height="39" viewBox="0 0 40 39" fill="none" xmlns="http://www.w3.org/2000/svg">
<path fill-rule="evenodd" clip-rule="evenodd" d="M12.4258 26.5749L15.092 28.9188L16.7561 27.0357C16.4759 26.841 16.2025 26.6381 15.9357 26.4252C15.2737 25.8995 14.6568 25.3189 14.0898 24.6901L12.4258 26.5749ZM15.172 30.1033L7.31521 39L3.39009 35.5482L11.2486 26.6514L11.5588 26.9242L14.8502 29.8171L14.8569 29.8205L15.172 30.1033ZM14.4484 23.8333C12.6409 21.7156 11.4253 19.0555 11.0902 16.0829C10.6433 12.1121 11.8505 8.33732 14.1649 5.44315C16.4793 2.55025 19.9011 0.538888 23.8794 0.0917303C27.8579 -0.354107 31.6432 0.850281 34.5441 3.15928C37.4438 5.46827 39.4616 8.88034 39.9081 12.8494C40.3549 16.8186 39.1477 20.595 36.8333 23.4875C34.5189 26.38 31.0989 28.3935 27.1205 28.8389C23.6339 29.2298 20.2993 28.3532 17.5746 26.5782C17.5629 26.5682 17.5496 26.5599 17.5363 26.5532C17.1644 26.3087 16.8043 26.0492 16.4558 25.7714C15.7388 25.2008 15.0752 24.562 14.4749 23.8633C14.4666 23.8533 14.4584 23.8432 14.4484 23.8333ZM37.6005 13.1083C37.9757 16.4437 36.9619 19.6142 35.0176 22.0446C33.0751 24.475 30.2022 26.1652 26.8607 26.5396C23.5176 26.9139 20.3413 25.9025 17.9035 23.9628C15.4674 22.0231 13.7732 19.1586 13.3979 15.825C13.0228 12.4896 14.0366 9.32073 15.9808 6.88861C17.925 4.45821 20.7962 2.76803 24.1377 2.39361C27.4809 2.01932 30.6589 3.03075 33.095 4.97044C35.5294 6.90846 37.2252 9.77461 37.6005 13.1083ZM33.6153 4.31631C36.2115 6.38243 38.0206 9.4352 38.4274 12.9865C38.4307 13.0048 38.4324 13.0231 38.434 13.043C38.8275 16.5947 37.7437 19.9731 35.6711 22.5632C33.6001 25.1534 30.5389 26.9582 26.9806 27.364C26.9623 27.3673 26.9439 27.369 26.9239 27.3707C23.364 27.7616 19.9776 26.682 17.3814 24.6142C14.7769 22.5414 12.966 19.4774 12.5643 15.9138C12.1624 12.3521 13.2463 8.96365 15.3239 6.36673C17.4015 3.76828 20.4727 1.96159 24.0446 1.56085C27.6179 1.16327 31.0127 2.24458 33.6157 4.31568L33.6153 4.31631ZM10.1678 14.8782L3.71839 14.8166C3.52831 15.6534 2.77797 16.2772 1.88254 16.2772C0.84207 16.2772 0 15.4354 0 14.3991C0 13.361 0.843735 12.5209 1.88254 12.5209C2.77964 12.5209 3.52997 13.1464 3.72006 13.9848L10.1712 14.0464C10.1612 14.3225 10.1612 14.6004 10.1678 14.8782ZM10.9399 9.65963C11.0316 9.38016 11.1333 9.104 11.2417 8.82954L4.85368 8.76799V4.30961C5.69238 4.11997 6.31769 3.37139 6.31769 2.47805C6.31769 1.44 5.47396 0.599902 4.43515 0.599902C3.39467 0.598238 2.5526 1.44 2.5526 2.47805C2.5526 3.37139 3.17787 4.11997 4.01661 4.30961V9.18065H4.01828C4.01828 9.40855 4.20336 9.59487 4.4318 9.59653L10.9399 9.65963ZM2.55289 26.4549C2.55289 27.4929 3.39662 28.333 4.43543 28.333C5.47591 28.333 6.31798 27.4913 6.31798 26.4549C6.31798 25.5615 5.69271 24.813 4.85397 24.6233V20.1632L11.2368 20.1017C11.1284 19.8289 11.0284 19.551 10.935 19.2716L4.43222 19.3348C4.20211 19.3365 4.0187 19.5228 4.0187 19.7507H4.01703V24.6217C3.17833 24.813 2.55289 25.5615 2.55289 26.4549ZM17.283 19.1888L21.3699 10.6898L25.4251 16.7584C25.5435 16.9347 25.7819 16.9829 25.9586 16.8648C26.0137 16.8282 26.0554 16.78 26.0837 16.7268L28.6249 12.5213L31.4111 15.0749C31.5612 15.2129 31.7946 15.208 31.9397 15.0682L34.876 12.33C35.0311 12.1853 35.0394 11.9441 34.896 11.7894C34.751 11.6347 34.5092 11.6264 34.3541 11.7694L31.6712 14.2714L28.8116 11.6513C28.7899 11.6297 28.7649 11.6098 28.7366 11.5931C28.5548 11.4833 28.318 11.5416 28.2096 11.7229L25.7285 15.8285L21.6367 9.70496L21.635 9.70663C21.5983 9.65173 21.5466 9.60515 21.4816 9.57354C21.2915 9.48205 21.0614 9.56356 20.9714 9.75321L16.5926 18.8595C16.5009 19.0491 16.5826 19.2787 16.7727 19.3685C16.9645 19.46 17.193 19.3784 17.283 19.1888Z" fill="#1447E6"/>
</svg>
