<svg width="40" height="36" viewBox="0 0 40 36" fill="none" xmlns="http://www.w3.org/2000/svg">
<path fill-rule="evenodd" clip-rule="evenodd" d="M21.3332 20.9509L17.4326 24.8326C17.4061 24.859 17.4007 24.9013 17.422 24.9331C18.0438 25.8726 18.8533 26.6783 19.7974 27.297C19.8293 27.3182 19.8718 27.3146 19.8984 27.2864L23.799 23.4047C24.0204 23.1844 24.3233 23.1068 24.6245 23.195C26.162 23.6409 27.8891 23.2602 29.1025 22.0544C30.3248 20.8381 30.7038 19.0982 30.2362 17.5576C30.2274 17.5294 30.2079 17.51 30.1795 17.5029C30.1512 17.4959 30.1229 17.5029 30.1034 17.5241L27.8608 19.7558C27.8449 19.7716 27.8254 19.7787 27.8041 19.7787H25.0585C25.0142 19.7787 24.9787 19.7434 24.9787 19.6994V16.967C24.9787 16.9459 24.9858 16.9265 25.0018 16.9106L27.2443 14.6789C27.2656 14.6578 27.2727 14.6313 27.2656 14.6031C27.2585 14.5749 27.239 14.5538 27.2107 14.5467C25.6625 14.0831 23.9159 14.4586 22.6919 15.6749C21.4803 16.8807 21.0977 18.6012 21.5458 20.1313C21.6344 20.4292 21.5564 20.7305 21.3332 20.9509ZM13.2768 6.64951V11.9448C13.2768 11.9889 13.3122 12.0241 13.3565 12.0241H18.6776C18.7219 12.0241 18.7573 11.9889 18.7573 11.9448V6.64951C18.7573 6.60544 18.7219 6.57019 18.6776 6.57019H13.3565C13.3122 6.57019 13.2768 6.60544 13.2768 6.64951ZM13.376 0.0793859V2.2864C13.376 2.33047 13.4114 2.36572 13.4557 2.36572H14.4282C14.4725 2.36572 14.5079 2.33047 14.5079 2.2864L14.5097 0.0793859C14.5097 0.0353161 14.4742 6.04655e-05 14.43 6.04655e-05H13.4575C13.4132 -0.00170222 13.376 0.0353165 13.376 0.0793859ZM5.38169 2.28464V0.0793859C5.38169 0.0353161 5.34627 6.04655e-05 5.30198 6.04655e-05H4.3295C4.28522 6.04655e-05 4.24979 0.0353165 4.24979 0.0793859V2.2864C4.24979 2.33047 4.28522 2.36572 4.3295 2.36572H5.30198C5.34627 2.36572 5.38169 2.32871 5.38169 2.28464ZM6.06014 5.41888H0.0797117C0.0354272 5.41888 0 5.38363 0 5.33956V2.92451C0 2.31989 0.496011 1.82628 1.10358 1.82628H3.01134C3.05563 1.82628 3.09106 1.86154 3.09106 1.90561V2.37453C3.09106 3.00384 3.60652 3.51504 4.23712 3.51504H5.39031C5.70561 3.51504 5.99257 3.38636 6.19985 3.18011C6.5807 2.80111 6.54173 2.39742 6.53642 1.90561C6.53642 1.8827 6.5435 1.86507 6.55944 1.84921C6.57539 1.83334 6.59487 1.82629 6.61613 1.82629H12.1376C12.1819 1.82629 12.2173 1.86154 12.2173 1.90561V2.37454C12.2173 3.00384 12.7328 3.51505 13.3634 3.51505H14.5166C14.8319 3.51505 15.1189 3.38636 15.3261 3.18011C15.707 2.80111 15.668 2.39742 15.6627 1.90562C15.6627 1.8827 15.6698 1.86507 15.6857 1.84921C15.7017 1.83334 15.7212 1.82629 15.7424 1.82629H17.6484C18.256 1.82629 18.752 2.3199 18.752 2.92452V5.33957C18.752 5.38364 18.7166 5.41889 18.6723 5.41889L6.06014 5.41888ZM13.2767 13.2562C13.2767 13.2121 13.3122 13.1769 13.3564 13.1769H18.6775C18.7218 13.1769 18.7572 13.2121 18.7572 13.2562V17.5328C18.7572 18.1374 18.2612 18.631 17.6537 18.631H13.3563C13.312 18.631 13.2765 18.5957 13.2765 18.5517L13.2767 13.2562ZM14.5132 16.2547C14.2829 16.0361 14.274 15.673 14.4937 15.4438C14.7133 15.2146 15.0783 15.2058 15.3085 15.4244L15.6309 15.7311C15.6628 15.7611 15.7142 15.7611 15.7443 15.7294L16.6282 14.8074C16.8479 14.5783 17.2128 14.5694 17.4431 14.788C17.6733 15.0066 17.6822 15.3698 17.4625 15.5989L16.1252 16.9933C15.9055 17.2224 15.5406 17.2313 15.3103 17.0127L14.5132 16.2547ZM6.63768 13.2562V18.5515C6.63768 18.5955 6.67311 18.6308 6.71739 18.6308H12.0385C12.0828 18.6308 12.1182 18.5955 12.1182 18.5515L12.1199 13.2562C12.1199 13.2121 12.0845 13.1769 12.0402 13.1769L6.71916 13.1751C6.67488 13.1751 6.63768 13.2121 6.63768 13.2562ZM5.08947 13.1751H0.0817523C0.0374673 13.1751 0.0020406 13.2104 0.0020406 13.2544V17.531C0.0020406 18.1356 0.498051 18.6292 1.10562 18.6292H5.40301C5.4473 18.6292 5.48273 18.594 5.48273 18.5499V13.2564C5.48273 13.2124 5.4473 13.1771 5.40301 13.1771L5.08947 13.1751ZM1.24201 15.1918C1.46167 14.9626 1.82659 14.9538 2.05686 15.1724L2.37925 15.4791C2.41114 15.5091 2.46251 15.5091 2.49262 15.4773L3.37654 14.5554C3.59619 14.3262 3.96111 14.3174 4.19139 14.536C4.42166 14.7546 4.43052 15.1177 4.21087 15.3469L2.87348 16.7412C2.65383 16.9704 2.28891 16.9792 2.05863 16.7606L1.26152 16.0044C1.03124 15.784 1.02236 15.4209 1.24201 15.1918ZM5.48273 11.326V6.65119C5.48273 6.60712 5.4473 6.57186 5.40301 6.57186H0.0819428C0.0376578 6.57186 0.0022311 6.60712 0.0022311 6.65119V11.9465C0.0022311 11.9905 0.0376583 12.0258 0.0819428 12.0258H5.40301C5.4473 12.0258 5.48273 11.9905 5.48273 11.9465V11.326ZM12.1202 11.326V6.65119C12.1202 6.60712 12.0848 6.57186 12.0405 6.57186L6.71945 6.5701C6.67517 6.5701 6.63974 6.60536 6.63974 6.64943V11.9447C6.63974 11.9888 6.67517 12.024 6.71945 12.024H12.0405C12.0848 12.024 12.1202 11.9888 12.1202 11.9447V11.326ZM10.7191 9.00437L9.3817 10.3987C9.16205 10.6279 8.79713 10.6367 8.56685 10.4181L7.76974 9.66186C7.53946 9.44327 7.5306 9.08012 7.75025 8.85097C7.9699 8.6218 8.33482 8.61299 8.5651 8.83157L8.88749 9.1383C8.91938 9.16827 8.97075 9.16827 9.00086 9.13654L9.88477 8.21458C10.1044 7.98542 10.4693 7.97661 10.6996 8.19519C10.9299 8.41025 10.9387 8.77341 10.7191 9.00437ZM27.3398 7.26799C28.8579 7.60997 30.2786 8.20403 31.5558 9.00613C31.5806 9.02199 31.6089 9.02376 31.6355 9.00965L33.2527 8.18996C33.6354 7.99605 34.0817 8.06656 34.3847 8.368L36.443 10.4164C36.7477 10.7196 36.8168 11.162 36.6219 11.5428L35.7982 13.1522C35.7858 13.1787 35.7858 13.2069 35.8018 13.2316C36.6077 14.5025 37.2047 15.9163 37.5484 17.427C37.5555 17.4552 37.575 17.4764 37.6015 17.4852L39.3269 18.0423C39.7361 18.1745 40 18.5376 40 18.966V21.8623C40 22.2906 39.7343 22.6538 39.3269 22.786L37.6015 23.343C37.5732 23.3519 37.5537 23.373 37.5484 23.4012C37.2047 24.912 36.6078 26.3257 35.8018 27.5967C35.7858 27.6214 35.7841 27.6496 35.7982 27.676L36.6219 29.2854C36.8168 29.6662 36.7459 30.1104 36.443 30.4119L34.3847 32.4603C34.08 32.7635 33.6354 32.8322 33.2527 32.6383L31.6355 31.8186C31.6089 31.8063 31.5806 31.8063 31.5558 31.8221C30.2786 32.6242 28.8579 33.2183 27.3398 33.5603C27.3115 33.5673 27.2902 33.5867 27.2814 33.6132L26.7216 35.3301C26.5888 35.7373 26.2238 36 25.7934 36H22.883C22.4526 36 22.0877 35.7356 21.9548 35.3301L21.395 33.6132C21.3862 33.585 21.3649 33.5656 21.3366 33.5603C19.8185 33.2183 18.3978 32.6242 17.1206 31.8221C17.0958 31.8063 17.0675 31.8045 17.0409 31.8186L15.4237 32.6383C15.041 32.8322 14.5947 32.7617 14.2917 32.4603L12.2334 30.4119C11.9287 30.1087 11.8596 29.6662 12.0545 29.2854L12.8782 27.676C12.8906 27.6496 12.8906 27.6214 12.8746 27.5967C12.0687 26.3257 11.4717 24.912 11.128 23.4012C11.1209 23.373 11.1014 23.3519 11.0749 23.343L9.34954 22.786C8.94035 22.6538 8.6764 22.2906 8.6764 21.8623L8.67286 19.9109C8.67286 19.8668 8.70828 19.8315 8.75257 19.8315H14.7928C14.8159 19.8315 14.8354 19.8404 14.8513 19.8562C14.8672 19.8721 14.8743 19.8932 14.8726 19.9162C14.5856 25.3121 18.9025 29.8478 24.3352 29.8478C29.5697 29.8478 33.8119 25.6259 33.8119 20.4171C33.8119 15.208 29.5695 10.9863 24.3352 10.9863C22.8047 10.9863 21.3593 11.3477 20.0786 11.9894C20.0538 12.0017 20.0254 12.0017 20.0006 11.9858C19.9758 11.97 19.9617 11.947 19.9617 11.9171L19.9634 7.71282C19.9634 7.67756 19.9847 7.64759 20.0184 7.63701C20.447 7.49423 20.8864 7.37083 21.3345 7.27035C21.3628 7.2633 21.3841 7.24391 21.3929 7.21747L21.9527 5.5005C22.0856 5.09329 22.4505 4.83062 22.8809 4.83062H25.7913C26.2218 4.83062 26.5867 5.09504 26.7195 5.5005L27.2793 7.21747C27.2899 7.24391 27.3112 7.2633 27.3395 7.26859L27.3398 7.26799Z" fill="#1447E6"/>
</svg>
