<svg width="40" height="34" viewBox="0 0 40 34" fill="none" xmlns="http://www.w3.org/2000/svg">
<path fill-rule="evenodd" clip-rule="evenodd" d="M31.8657 13.9999L37.5178 11.6183C36.1239 8.30624 33.862 5.54087 31.0622 3.53758L26.5126 10.3873L27.6218 11.1216L28.6946 9.50551C30.0364 10.7345 31.1283 12.2552 31.8643 13.9978L31.8657 13.9999ZM19.3326 18.8464C19.3326 18.4801 19.6329 18.1798 20.0009 18.1798C20.3672 18.1798 20.6675 18.4801 20.6675 18.8464V22.7556C20.6675 22.9501 20.5825 23.1271 20.4505 23.2469L18.4942 25.3039C18.239 25.5713 17.819 25.5834 17.5551 25.3282C17.2878 25.0748 17.2791 24.6547 17.5308 24.3891L19.3326 22.4918L19.3326 18.8464ZM7.77326 17.1765C8.46068 17.3223 9.10122 17.5914 9.67056 17.9628L10.4187 17.633C10.4708 17.6087 10.5298 17.6 10.5888 17.607C10.2017 18.3117 9.89623 19.0582 9.6775 19.8324L9.01785 20.0876C8.80608 20.1709 8.61687 20.2889 8.45371 20.4365C7.94164 20.0181 7.28719 19.7682 6.57373 19.7682C4.92466 19.7682 3.58799 21.1048 3.58799 22.7556C3.58799 24.4064 4.92461 25.7414 6.57373 25.7414C7.28719 25.7414 7.94159 25.4914 8.45371 25.0748C8.61688 25.2206 8.80609 25.3421 9.01785 25.4237L9.6775 25.6789C9.89622 26.4514 10.2035 27.1978 10.5888 27.9043C10.5298 27.9095 10.4708 27.9026 10.4187 27.8783L9.67056 27.5484C9.10122 27.9164 8.46063 28.189 7.77326 28.3348L7.47816 29.0951C7.42435 29.2374 7.27506 29.3259 7.09974 29.3259H6.04605C5.87073 29.3259 5.72318 29.2357 5.66763 29.0951L5.37426 28.3348C4.68684 28.189 4.04631 27.9164 3.47522 27.5484L2.72879 27.8783C2.59166 27.939 2.42154 27.8973 2.29655 27.7741L1.55185 27.0294C1.4286 26.9044 1.38694 26.7343 1.44769 26.5972L1.77751 25.8507C1.4095 25.2796 1.14044 24.6391 0.991172 23.9517L0.230872 23.6583C0.0885308 23.6045 0 23.4552 0 23.2799V22.2262C0 22.0509 0.0902639 21.9033 0.230872 21.8478L0.991172 21.5527C1.13698 20.8687 1.40952 20.2247 1.77751 19.6554L1.44769 18.9072C1.38694 18.7701 1.4286 18.6 1.55185 18.4767L2.29655 17.732C2.42154 17.607 2.59165 17.5671 2.72879 17.6279L3.47522 17.9577C4.04635 17.5862 4.68689 17.3171 5.37426 17.1713L5.66763 16.4075C5.72144 16.2687 5.87073 16.1767 6.04605 16.1767H7.09974C7.27506 16.1767 7.42261 16.2687 7.47816 16.4075L7.77326 17.1713V17.1765ZM34.6257 17.1765C35.3132 17.3223 35.9537 17.5914 36.5248 17.9628L37.2712 17.633C37.4083 17.5723 37.5785 17.6122 37.7035 17.7372L38.4482 18.4819C38.5714 18.6051 38.6131 18.7753 38.5523 18.9124L38.2225 19.6606C38.5905 20.2299 38.863 20.8722 39.0088 21.5579L39.7691 21.853C39.9115 21.9068 40 22.0561 40 22.2314V23.2851C40 23.4604 39.9097 23.6079 39.7691 23.6635L39.0088 23.9569C38.863 24.6443 38.5905 25.2848 38.2225 25.8559L38.5523 26.6023C38.6131 26.7395 38.5714 26.9096 38.4482 27.0346L37.7035 27.7793C37.5785 27.9025 37.4083 27.9442 37.2712 27.8834L36.5248 27.5536C35.9537 27.9216 35.3131 28.1941 34.6257 28.3399L34.3324 29.1002C34.2786 29.2426 34.1293 29.3311 33.9539 29.3311H32.9003C32.7249 29.3311 32.5774 29.2408 32.5218 29.1002L32.2267 28.3399C31.5428 28.1941 30.8988 27.9216 30.3294 27.5536L29.5813 27.8834C29.5292 27.9077 29.4702 27.9147 29.4112 27.9095C29.7983 27.203 30.1038 26.4565 30.3225 25.6823L30.9821 25.4289C31.1939 25.3456 31.3866 25.2258 31.5463 25.08C32.0584 25.4949 32.7128 25.7466 33.4263 25.7466C35.0753 25.7466 36.412 24.4099 36.412 22.7608C36.412 21.1117 35.0754 19.7733 33.4263 19.7733C32.7128 19.7733 32.0584 20.0233 31.5463 20.4417C31.3866 20.2924 31.1939 20.1743 30.9821 20.0927L30.3225 19.8376C30.1038 19.0634 29.7965 18.3169 29.4112 17.6122C29.4702 17.6052 29.5292 17.6139 29.5813 17.6382L30.3294 17.968C30.8988 17.5965 31.5411 17.3275 32.2267 17.1817L32.5218 16.4179C32.5757 16.279 32.7249 16.187 32.9003 16.187H33.9539C34.1293 16.187 34.2768 16.279 34.3324 16.4179L34.6257 17.1817V17.1765ZM21.9936 13.4877C23.1324 13.7342 24.1982 14.1821 25.1442 14.7966L26.3871 14.2463C26.6145 14.1439 26.8975 14.2133 27.1023 14.4182L28.3383 15.6559C28.5431 15.8607 28.6125 16.1419 28.5101 16.3711L27.9616 17.6105C28.5743 18.5583 29.0222 19.6224 29.2669 20.7646L30.5307 21.2542C30.765 21.3444 30.9161 21.5892 30.9161 21.8826V23.6306C30.9161 23.9205 30.765 24.1687 30.5307 24.259L29.2669 24.7485C29.0239 25.8873 28.5726 26.9531 27.9616 27.8992L28.5101 29.1421C28.6125 29.3712 28.5431 29.6524 28.3383 29.8573L27.1023 31.0932C26.8975 31.3015 26.6128 31.3674 26.3871 31.2685L25.1442 30.7182C24.1964 31.3327 23.1324 31.7806 21.9936 32.0236L21.5041 33.2891C21.4138 33.52 21.1656 33.671 20.8757 33.671H19.1259C18.836 33.671 18.5878 33.52 18.4975 33.2891L18.0114 32.0236C16.871 31.7806 15.8051 31.331 14.8573 30.7182L13.6179 31.2685C13.3887 31.3674 13.1075 31.3015 12.8992 31.0932L11.6633 29.8573C11.4584 29.6524 11.389 29.3712 11.4914 29.1421L12.0417 27.8992C11.4272 26.9514 10.9794 25.889 10.7329 24.7485L9.46911 24.259C9.23477 24.1687 9.08375 23.9205 9.08375 23.6306V21.8826C9.08375 21.5892 9.23477 21.3445 9.46911 21.2542L10.7329 20.7646C10.9759 19.6241 11.4272 18.5583 12.0382 17.6105L11.4897 16.3711C11.3873 16.1419 11.4567 15.8607 11.6615 15.6559L12.8975 14.4182C13.1058 14.2133 13.387 14.1439 13.6161 14.2463L14.8556 14.7966C15.8034 14.1821 16.8674 13.7342 18.0097 13.4877L18.4958 12.224C18.586 11.9897 18.8343 11.8386 19.1242 11.8386H20.8739C21.1638 11.8386 21.412 11.9897 21.5023 12.224L21.9919 13.4877H21.9936ZM20.0025 16.7234C23.3337 16.7234 26.0329 19.4227 26.0329 22.7555C26.0329 26.0883 23.3336 28.7876 20.0025 28.7876C16.6715 28.7876 13.9704 26.0848 13.9704 22.7555C13.9704 19.4261 16.6697 16.7234 20.0025 16.7234ZM29.9528 2.80346C27.2032 1.1127 24.018 0.118029 20.6673 0V8.22292H21.9988V6.28393C23.6253 6.53911 25.1685 7.10151 26.5555 7.92261L29.9528 2.80346ZM19.3329 0C15.9843 0.118038 12.7973 1.1127 10.0474 2.80346L14.5935 9.65323L15.7027 8.91897L14.6282 7.30113C16.0863 6.63282 17.6781 6.23185 19.3307 6.14328V8.89979e-05L19.3329 0ZM8.93821 3.53771C6.13823 5.54092 3.87621 8.30598 2.48262 11.6184L8.13477 14.0001C9.05131 11.8285 10.5199 10.0006 12.3373 8.65722L8.93821 3.53771Z" fill="#1447E6"/>
</svg>
