<svg width="60" height="60" viewBox="0 0 60 60" fill="none" xmlns="http://www.w3.org/2000/svg">
<rect x="0.5" y="0.5" width="59" height="59" rx="5.5" fill="#1B1662" stroke="white"/>
<path d="M22.2741 45H17.1193C16.9577 45 16.8254 44.8695 16.8254 44.71C16.8254 44.5505 16.9577 44.42 17.1193 44.42H22.2741C22.4357 44.42 22.568 44.5505 22.568 44.71C22.568 44.8695 22.4357 45 22.2741 45ZM36.9329 25.3872C36.9315 25.2277 36.8007 25.0986 36.639 25.0972H28.8002C28.4607 25.0957 28.1785 24.8391 28.1491 24.5055L27.4759 16.1209C27.4215 15.4945 26.8938 15.0101 26.2559 15H24.445C24.2833 15 24.151 15.1305 24.151 15.29C24.151 15.4495 24.2833 15.58 24.445 15.58H26.2559C26.5954 15.5815 26.8791 15.8382 26.907 16.1717L27.5934 24.5518C27.6478 25.1855 28.1829 25.6728 28.8281 25.6771H36.6668C36.8182 25.6612 36.9329 25.5366 36.9329 25.3872ZM30.8153 26.2573H29.5953C29.0603 26.5343 28.7855 27.1346 28.931 27.7132C29.075 28.2933 29.6012 28.6993 30.2053 28.6993C30.8094 28.6993 31.3356 28.2932 31.4797 27.7132C31.6252 27.1346 31.3503 26.5343 30.8153 26.2573ZM35.444 26.2573H34.2211C33.686 26.5343 33.4127 27.1361 33.5582 27.7132C33.7022 28.2918 34.2284 28.6993 34.8325 28.6993C35.4366 28.6993 35.9628 28.2918 36.1069 27.7132C36.2524 27.1361 35.979 26.5343 35.444 26.2573ZM33.4494 20.9788H34.5782V20.2059L33.4494 20.2044V20.9788ZM31.7282 20.2059V20.9788H32.8614V20.2059H31.7282ZM38.4497 18.7325L36.8814 23.1684L36.8829 23.1669C36.7079 23.6614 36.2376 23.9949 35.707 24.0022H28.7104L28.1459 17.0646H37.2591C37.6648 17.0675 38.0455 17.2648 38.2792 17.5939C38.5114 17.9217 38.5702 18.3422 38.435 18.7192L38.4497 18.7325ZM36.7565 19.9158V19.9144C36.7565 19.7549 36.6256 19.6244 36.4625 19.6244H35.1661V18.5034C35.1661 18.3439 35.0338 18.2134 34.8721 18.2134C34.709 18.2134 34.5781 18.3439 34.5781 18.5034V19.6128H33.4493V18.5034C33.4493 18.3439 33.317 18.2134 33.1553 18.2134C32.9922 18.2134 32.8613 18.3439 32.8613 18.5034V19.6128H31.7442V18.5034C31.7442 18.3439 31.6119 18.2134 31.4503 18.2134C31.2871 18.2134 31.1563 18.3439 31.1563 18.5034V19.6128H29.8422C29.6805 19.6128 29.5483 19.7433 29.5483 19.9028C29.5483 20.0638 29.6805 20.1928 29.8422 20.1928H31.1401V20.9657H29.9642V20.9672C29.8025 20.9672 29.6702 21.0962 29.6702 21.2572C29.6702 21.4167 29.8025 21.5472 29.9642 21.5472H31.1401V22.5406C31.1401 22.7001 31.2724 22.8306 31.4341 22.8306C31.5958 22.8306 31.7281 22.7001 31.7281 22.5406V21.5588H32.8613V22.5522C32.8613 22.7117 32.9921 22.8422 33.1553 22.8422C33.317 22.8422 33.4492 22.7117 33.4492 22.5522V21.5588H34.5781V22.5522C34.5781 22.7117 34.7089 22.8422 34.8721 22.8422C35.0338 22.8422 35.166 22.7117 35.166 22.5522V21.5588H35.9495C36.1112 21.5588 36.2434 21.4283 36.2434 21.2688C36.2434 21.1079 36.1112 20.9788 35.9495 20.9788H35.166V20.2059L36.4477 20.2044C36.5301 20.2103 36.6124 20.1812 36.6712 20.1232C36.73 20.0652 36.7623 19.9855 36.7564 19.9028L36.7565 19.9158ZM20.4235 31.7358C20.3853 31.7126 20.3368 31.7126 20.2986 31.7358C20.2559 31.7546 20.2295 31.7952 20.2324 31.8402V32.1462C20.2324 32.529 19.9179 32.8379 19.5298 32.8379H17.2413C17.178 32.8379 17.1281 32.8886 17.1281 32.951V33.7239C17.1281 33.7862 17.178 33.8356 17.2413 33.8356H19.5387C19.9267 33.8385 20.2398 34.1488 20.2398 34.5316V34.8376C20.2413 34.8811 20.2677 34.9202 20.3089 34.9391C20.35 34.9565 20.3971 34.9507 20.4323 34.9231L22.2432 33.4194V33.4179C22.2682 33.3976 22.2829 33.3657 22.2814 33.3338C22.2829 33.299 22.2682 33.2671 22.2432 33.2439L20.4235 31.7358ZM25.3901 30.5133V36.1441C25.3901 36.4733 25.2578 36.788 25.0226 37.02C24.7874 37.252 24.4684 37.3825 24.1363 37.3825H15.2582C14.5644 37.3825 14.0015 36.8286 14 36.1442V30.5148C14 29.8289 14.563 29.2735 15.2582 29.2735H24.1363C24.8285 29.275 25.39 29.8304 25.39 30.5148L25.3901 30.5133ZM22.8619 33.3294C22.8619 33.1235 22.7708 32.9292 22.6105 32.7958L20.7997 31.2949C20.5924 31.118 20.2985 31.0789 20.0515 31.1949C19.8075 31.3123 19.6546 31.5574 19.659 31.8257V32.1316V32.1302C19.659 32.1925 19.6091 32.2433 19.5459 32.2433H17.2411C16.8531 32.2433 16.54 32.5522 16.54 32.935V33.7079C16.5371 33.8935 16.6091 34.0733 16.7414 34.2053C16.8722 34.3372 17.053 34.4126 17.2411 34.4126H19.5385C19.6017 34.4141 19.6517 34.4663 19.6517 34.5286V34.8346V34.8332C19.6473 35.1 19.8001 35.3436 20.0442 35.4596C20.1368 35.5046 20.2382 35.5263 20.3411 35.5263C20.5072 35.5263 20.6659 35.4683 20.7923 35.3639L22.6105 33.8674C22.7722 33.734 22.8648 33.5368 22.8619 33.3294ZM18.1583 43.8382H21.1965V37.9624H18.1775L18.1583 43.8382ZM39.1083 40.2927V31.7095H35.4483V40.2942L39.1083 40.2927ZM24.1157 28.6918V28.6932C25.1343 28.6947 25.9588 29.5096 25.9588 30.5146V31.1294H39.4035H39.402C39.5652 31.1294 39.696 31.2584 39.696 31.4194V40.313H42.6636H42.8091V28.5454C42.7092 28.5642 42.6078 28.5744 42.5063 28.5773H36.2946C36.2123 28.673 36.1212 28.7629 36.0242 28.8441L35.9933 28.8716C35.9345 28.9137 35.8801 28.9528 35.8169 28.992L35.8155 28.9905C35.7552 29.0268 35.692 29.0601 35.6273 29.0906C35.5906 29.1094 35.5524 29.1239 35.5141 29.137C35.426 29.1733 35.3334 29.2023 35.2393 29.2226H35.1761H35.1775C35.0629 29.2443 34.9482 29.2559 34.8321 29.2574C34.716 29.2574 34.6014 29.2472 34.4867 29.2269H34.4235H34.425C34.3309 29.2066 34.2383 29.1776 34.1501 29.1413C34.1119 29.1283 34.0737 29.1123 34.0369 29.0949C33.9708 29.0645 33.9076 29.0297 33.8444 28.9949C33.7812 28.9601 33.7268 28.918 33.6724 28.8745L33.6445 28.8397C33.5445 28.7614 33.4534 28.6715 33.374 28.5729H31.6646C31.5852 28.6715 31.4941 28.7614 31.3941 28.8397L31.3633 28.8673C31.3089 28.9093 31.2501 28.9485 31.1913 28.9876C31.1325 29.0268 31.0663 29.0572 30.9987 29.0877C30.962 29.1051 30.9238 29.121 30.8855 29.1341C30.7959 29.1704 30.7048 29.1979 30.6107 29.2182L30.5681 29.2269C30.3417 29.2733 30.108 29.2733 29.8816 29.2269H29.7832C29.6906 29.2052 29.598 29.1776 29.5098 29.1413C29.4701 29.1283 29.4319 29.1123 29.3951 29.0949C29.3319 29.0645 29.2687 29.0311 29.207 28.9949C29.1438 28.9557 29.0894 28.918 29.0306 28.8745L28.9997 28.8397C28.9012 28.7585 28.8116 28.6701 28.7293 28.5729H24.136L24.1157 28.6918ZM44 19.3661C43.9985 18.5642 43.3386 17.916 42.5272 17.916H39.0657C39.1421 18.2467 39.1215 18.5932 39.0069 18.9137L38.3293 20.8163H42.5271C43.3384 20.8163 43.9985 20.1666 44 19.3661ZM42.5272 24.5169C42.6286 24.5184 42.7286 24.5285 42.8285 24.5474V21.3644C42.7286 21.3832 42.6286 21.3934 42.5272 21.3963H38.125L37.4313 23.3481C37.4004 23.4308 37.3651 23.512 37.321 23.5889L37.274 23.6701L37.1873 23.8049L37.1123 23.8977L37.03 23.9905H37.0315C36.9976 24.0253 36.9624 24.0601 36.9256 24.0906L36.8742 24.1327V24.1341C36.6493 24.3241 36.3803 24.4575 36.0908 24.5198H42.5271L42.5272 24.5169ZM31.9958 27.9972H33.0467H33.0452C32.9688 27.8043 32.9262 27.5999 32.9203 27.394C32.9188 26.9821 33.057 26.5819 33.3113 26.2571H31.7048C31.959 26.5819 32.0972 26.9821 32.0972 27.394C32.0972 27.5984 32.0634 27.8029 31.9943 27.9972H31.9958ZM42.5272 25.097H37.4665C37.5018 25.1898 37.5209 25.2869 37.5209 25.387C37.5209 25.867 37.127 26.2571 36.639 26.2571H36.3333C36.589 26.5819 36.7257 26.9821 36.7257 27.394C36.7243 27.5999 36.686 27.8029 36.6155 27.9972H42.5273C43.3386 27.9972 43.9971 27.3476 43.9971 26.5471C43.9971 25.7452 43.3385 25.097 42.5272 25.097ZM20.1458 27.9972H28.4165C28.346 27.8029 28.3078 27.5999 28.3063 27.394C28.3004 26.9749 28.4386 26.5659 28.6988 26.2339C27.9815 26.1889 27.3553 25.735 27.0996 25.0738H20.1458C19.3345 25.0738 18.676 25.722 18.676 26.5239C18.676 27.3243 19.3345 27.974 20.1458 27.974L20.1458 27.9972ZM23.6926 37.9625H21.8038V40.2827H23.6926V37.9625ZM42.6833 40.8743H21.804V43.6499H42.6833C43.0184 43.6499 43.3388 43.5194 43.5769 43.2859C43.8136 43.0524 43.9459 42.7348 43.9459 42.4057V42.1186C43.9459 41.4312 43.3815 40.8743 42.6833 40.8743ZM19.8519 21.3688V24.5475C19.9489 24.5286 20.0474 24.5185 20.1458 24.517H26.9852L26.9455 24.0762L26.922 23.7702V23.6731L26.7338 21.3949L20.1459 21.3964C20.0474 21.3935 19.9489 21.3833 19.8519 21.3688ZM25.9782 36.1441C25.9752 37.0853 25.2462 37.8683 24.2966 37.951V40.2944H27.6244V31.7097H25.9782V36.1441ZM20.1458 20.8164H26.6792L26.444 17.9162H20.1458C19.3344 17.9162 18.6759 18.5644 18.6759 19.3663C18.6759 20.1668 19.3344 20.8164 20.1458 20.8164ZM28.2167 40.2945V31.7098H34.8795V40.2945H28.2167ZM32.4265 36.404L31.4197 37.3973H31.4182C31.3035 37.5104 31.3035 37.6946 31.4182 37.8077C31.4741 37.8628 31.549 37.8933 31.6269 37.8933C31.7048 37.8947 31.7798 37.8643 31.8342 37.8077L32.841 36.8144C32.8969 36.7607 32.9292 36.6868 32.9292 36.6085C32.9292 36.5316 32.8969 36.4577 32.841 36.404C32.7264 36.2909 32.5412 36.2909 32.4265 36.404ZM29.9998 37.4669C30.0542 37.522 30.1291 37.5525 30.207 37.5525C30.285 37.551 30.3599 37.5206 30.4158 37.4669L32.3986 35.5064C32.5059 35.3933 32.503 35.2149 32.3912 35.1047C32.2795 34.9931 32.0987 34.9902 31.9826 35.0975L29.9998 37.058C29.944 37.1117 29.9116 37.1856 29.9116 37.2625C29.9116 37.3393 29.9439 37.4133 29.9998 37.4669Z" fill="white"/>
</svg>
