<svg width="60" height="60" viewBox="0 0 60 60" fill="none" xmlns="http://www.w3.org/2000/svg">
<rect x="0.5" y="0.5" width="59" height="59" rx="5.5" fill="#1B1662" stroke="white"/>
<path fill-rule="evenodd" clip-rule="evenodd" d="M19.5793 20.1259C20.1606 20.2484 20.7036 20.4771 21.1861 20.7899L21.8191 20.511C21.9356 20.4594 22.0802 20.4933 22.185 20.5996L22.815 21.2281C22.9198 21.3344 22.9537 21.4775 22.9036 21.5941L22.6232 22.227C22.936 22.711 23.1647 23.2525 23.2901 23.8339L23.9349 24.0832C24.053 24.129 24.1297 24.2559 24.1297 24.4049V25.2946C24.1297 25.4436 24.053 25.5691 23.9349 25.6163L23.2901 25.8656C23.1662 26.4455 22.9375 26.9885 22.6232 27.4724L22.9036 28.1054C22.9537 28.222 22.9198 28.3666 22.815 28.4714L22.185 29.1014C22.0802 29.2062 21.9356 29.2401 21.8191 29.1885L21.1861 28.9096C20.7036 29.2224 20.1621 29.4511 19.5793 29.5736L19.3299 30.2198C19.2842 30.3379 19.1587 30.4146 19.0112 30.4146H18.12C17.9709 30.4146 17.8455 30.3379 17.7983 30.2198L17.549 29.575C16.9691 29.4511 16.4261 29.2224 15.9421 28.9081L15.3091 29.187C15.1926 29.2386 15.0495 29.2047 14.9462 29.0999L14.3161 28.4699C14.2099 28.3651 14.1759 28.2205 14.2276 28.104L14.5079 27.471C14.1951 26.9885 13.9664 26.4455 13.841 25.8642L13.1962 25.6148C13.0782 25.5691 13 25.4422 13 25.2931V24.4034C13 24.2544 13.0782 24.129 13.1962 24.0817L13.841 23.8324C13.965 23.2525 14.1937 22.7095 14.505 22.2256L14.2261 21.5926C14.1745 21.476 14.2084 21.3329 14.3147 21.2267L14.9447 20.5981C15.0495 20.4918 15.1911 20.4579 15.3077 20.5095L15.9407 20.7884C16.4246 20.4756 16.9661 20.2469 17.5475 20.1244L17.7968 19.4782C17.8426 19.3602 17.9695 19.2834 18.1185 19.2834H19.0097C19.1587 19.2834 19.2827 19.3602 19.3284 19.4782L19.5778 20.1244L19.5793 20.1259ZM38.5276 45.1341V32.1422L29.0712 27.2891V33.5556H13.0015V34.6903H14.8178V45.1337L38.5276 45.1341ZM24.9517 18.2358H31.5706V19.3675H30.4964V26.8276L28.0087 25.5513V32.4935H26.0257V19.369H24.9515L24.9517 18.2358ZM33.8547 14.8657H40.4736V16.0004H39.3994V27.0504L36.4809 25.5528V29.8997L34.9287 29.1044L34.9301 16.0006H33.856V14.866L33.8547 14.8657ZM47 45.1342V32.1422L37.5451 27.2892V30.4438L39.5902 31.4943V45.1337L47 45.1342ZM40.8899 34.7142H43.652V38.2199H40.8899V34.7142ZM19.3624 37.4084H24.5267V38.5401H19.3624V37.4084ZM19.3624 40.715H24.5267V41.8497H19.3624V40.715ZM32.4175 34.7141H35.1796V38.2198H32.4175V34.7141ZM18.5654 22.3201C19.9612 22.3201 21.093 23.4503 21.093 24.8476C21.093 26.2449 19.9612 27.3751 18.5654 27.3751C17.1696 27.3751 16.0379 26.2434 16.0379 24.8476C16.0379 23.4518 17.1696 22.3201 18.5654 22.3201Z" fill="white"/>
</svg>
