<svg width="28" height="40" viewBox="0 0 28 40" fill="none" xmlns="http://www.w3.org/2000/svg">
<path fill-rule="evenodd" clip-rule="evenodd" d="M9.05966 38.3915V39.1957C9.0617 39.6401 9.42711 39.998 9.87622 40H11.9829C12.432 39.996 12.7934 39.6381 12.7954 39.1957V38.3915H9.05966ZM17.2316 31.5152H4.62591V32.6472C4.62795 33.2725 5.14239 33.7792 5.77725 33.7792H16.0845C16.7173 33.7792 17.2318 33.2725 17.2338 32.6472V31.5152H17.2316ZM6.3714 34.9534V36.0874C6.37548 36.7107 6.88787 37.2154 7.52274 37.2194H14.3369C14.9718 37.2154 15.4842 36.7107 15.4883 36.0874V34.9554L6.3714 34.9534ZM25.5482 11.2419H27.9837C27.9939 11.0931 28 10.9323 28 10.7654H27.998C28 7.93435 26.867 5.22018 24.8501 3.20502C22.8332 1.19031 20.0895 0.0382444 17.2175 0V2.34444C17.2584 2.34444 17.3012 2.34243 17.3441 2.34243C19.0079 2.34243 20.3552 3.66945 20.3552 5.30815C20.3552 6.94684 19.0079 8.27387 17.3441 8.27387H17.2175V11.2436H20.939C20.9982 11.2436 21.0595 11.2537 21.1166 11.2717C21.2677 11.318 21.3922 11.4205 21.4657 11.5593C21.5392 11.696 21.5555 11.8569 21.5086 12.0056C21.48 12.0921 21.4596 12.1806 21.4473 12.271C21.4331 12.3615 21.4249 12.454 21.4249 12.5445C21.4433 13.5217 22.2516 14.3038 23.2418 14.3038C24.2339 14.3038 25.0423 13.5217 25.0586 12.5445C25.0607 12.3736 25.0362 12.2027 24.9872 12.0378C24.9606 11.9715 24.9484 11.9031 24.9484 11.8327C24.9484 11.6759 25.0117 11.5251 25.124 11.4125C25.2362 11.3019 25.389 11.2399 25.5482 11.2419ZM11.0806 18.1686V21.8341C11.0806 22.0271 10.9846 22.208 10.8233 22.3166C10.6621 22.4272 10.4579 22.4533 10.2742 22.385C10.1966 22.3629 10.117 22.3468 10.0374 22.3347C9.94552 22.3206 9.85162 22.3126 9.75771 22.3126C8.76764 22.3307 7.97146 23.1269 7.97146 24.1021C7.97146 25.0793 8.76759 25.8755 9.75771 25.8916C9.94348 25.8936 10.1293 25.8655 10.3048 25.8112C10.4865 25.7569 10.6845 25.7891 10.8356 25.8997C10.9887 26.0102 11.0785 26.1852 11.0785 26.3722V30.3392H15.886C16.0432 26.2777 17.7866 24.0358 19.385 21.9851C20.3404 20.7586 21.2406 19.6045 21.6387 18.1709L20.1117 18.1689C20.1117 18.2111 20.1138 18.2513 20.1138 18.2935V18.2955C20.0933 19.9181 18.7521 21.2231 17.1027 21.2231C15.4553 21.2231 14.114 19.9181 14.0916 18.2955C14.0916 18.2533 14.0937 18.2111 14.0957 18.1709L11.0806 18.1686ZM6.16487 18.1686H9.88636V21.1383C9.84553 21.1363 9.80266 21.1343 9.75979 21.1343L9.75775 21.1363C8.11035 21.1585 6.78546 22.4795 6.78546 24.1021C6.78546 25.7266 8.11035 27.0477 9.75775 27.0698H9.88432V30.3411H5.97093C5.81374 26.2796 4.07038 24.0378 2.47196 21.9871C1.51863 20.7646 0.624456 19.6145 0.222314 18.1728H1.55944C1.71867 18.1708 1.86974 18.1085 1.98201 17.9979C2.09225 17.8873 2.15553 17.7365 2.15553 17.5817C2.15553 17.5113 2.14124 17.441 2.11674 17.3746V17.3143L2.11266 17.3022V17.1836L2.1147 17.1695V17.1434C2.10041 17.0529 2.09225 16.9624 2.09429 16.8699C2.11062 15.8928 2.919 15.1106 3.91116 15.1106C4.90123 15.1106 5.70964 15.8927 5.72804 16.8699C5.72804 16.9624 5.71987 17.0529 5.70558 17.1434V17.2459L5.63618 17.262V17.266L5.63209 17.2821L5.62801 17.2962V17.3062L5.62597 17.3163V17.3364L5.62188 17.3485V17.3605C5.59739 17.4269 5.58514 17.4972 5.58514 17.5676C5.58514 17.7224 5.64638 17.8732 5.75866 17.9838C5.87093 18.0944 6.02404 18.1547 6.18123 18.1547L6.16487 18.1686ZM9.88636 5.79708C7.17944 6.05243 4.66646 7.29299 2.83961 9.27552C1.0105 11.2581 -0.00203507 13.8397 3.07096e-06 16.5157C3.07096e-06 16.6786 0.00612704 16.8374 0.0183758 16.9922H0.855374V16.8676H0.853332C0.873747 15.245 2.21701 13.94 3.8644 13.94C5.5118 13.94 6.85509 15.245 6.87547 16.8676C6.87547 16.9098 6.87547 16.952 6.87343 16.9922H9.88858V13.3268C9.88858 13.1418 9.9784 12.9649 10.1315 12.8543C10.2846 12.7437 10.4806 12.7115 10.6623 12.7678C10.75 12.794 10.8399 12.8141 10.9317 12.8282C11.0236 12.8422 11.1154 12.8483 11.2094 12.8483C12.2015 12.8322 12.9956 12.036 12.9956 11.0588C12.9956 10.0816 12.2015 9.28535 11.2094 9.26924C11.0358 9.26924 10.8623 9.29337 10.6949 9.34162C10.6276 9.36575 10.5561 9.37781 10.4847 9.37781C10.3275 9.37781 10.1744 9.31548 10.0621 9.20691C9.94981 9.09632 9.88857 8.94552 9.88857 8.7907L9.88636 5.79708Z" fill="#1447E6"/>
</svg>
