<svg width="35" height="40" viewBox="0 0 35 40" fill="none" xmlns="http://www.w3.org/2000/svg">
<path fill-rule="evenodd" clip-rule="evenodd" d="M19.6003 0.000289476C15.5155 0.000289476 11.5972 1.61971 8.70775 4.50186C5.82014 7.38589 4.19793 11.297 4.19793 15.3745L0.153889 23.1965H0.152188C-0.0926983 23.6464 -0.0382791 24.1997 0.288236 24.5953C0.647063 25.0213 1.18445 25.2573 1.74223 25.2301H4.25909H4.25739C4.41725 25.2318 4.5686 25.2963 4.67914 25.4117C4.78798 25.5255 4.8475 25.6799 4.8424 25.8378L4.60261 31.0916C4.82879 33.0471 5.3509 34.568 8.17216 34.568H9.57857C10.553 34.5714 11.3438 35.3591 11.3455 36.3334V39.4195V39.4178C11.3455 39.7403 11.6074 40 11.9288 40H27.2715C27.5946 40 27.8565 39.7403 27.8582 39.4178V32.1524C27.8276 29.9932 28.7085 27.9206 30.2884 26.4419C33.2525 23.5901 34.948 19.6724 34.9989 15.5628C35.0482 11.4532 33.4496 7.4948 30.5552 4.5698C27.6625 1.64671 23.7174 0.000289476 19.6003 0.000289476ZM25.1206 25.9346C21.6582 27.7594 17.5206 27.7747 14.0461 25.972C10.5717 24.1693 8.20448 20.7795 7.71297 16.9024C7.2215 13.0253 8.667 9.15507 11.5801 6.54425L10.7094 6.4441C10.5717 6.43561 10.4441 6.37111 10.3557 6.26586C10.2673 6.16062 10.2264 6.02312 10.2418 5.88733C10.2588 5.74983 10.3302 5.62591 10.4407 5.54443C10.5513 5.46126 10.6924 5.42901 10.8285 5.45277L12.8437 5.68702V5.68872C13.1158 5.72267 13.3096 5.9688 13.279 6.24039L13.0698 8.28246C13.0341 8.55406 12.7858 8.74756 12.5121 8.71701C12.24 8.68306 12.0461 8.43693 12.0767 8.16535L12.1686 7.38788C10.0139 9.38754 8.75886 12.1715 8.68572 15.1082C8.6143 18.0449 9.73157 20.8848 11.7859 22.988C13.8403 25.0913 16.658 26.2795 19.6001 26.2828C21.3602 26.2862 23.0948 25.8619 24.6541 25.0471C24.8854 24.9707 25.1405 25.0708 25.2561 25.2864C25.37 25.5003 25.3139 25.7685 25.12 25.9162L25.1206 25.9346ZM26.4266 13.0813L26.9878 13.1815V13.1798C27.6698 13.302 28.1663 13.8961 28.1629 14.5887V16.1623V16.1606C28.1663 16.8514 27.6698 17.4439 26.9878 17.5644L26.4266 17.668V17.6696C26.3229 17.9837 26.1953 18.2892 26.0474 18.5863L26.3688 19.0514H26.3705C26.7719 19.6201 26.7038 20.3941 26.209 20.8847L25.0951 21.9966C24.6053 22.4838 23.8383 22.5533 23.2703 22.1629L22.801 21.837C22.5034 21.9864 22.1973 22.1137 21.8809 22.2189L21.7806 22.7757C21.6514 23.4411 21.0681 23.9232 20.3878 23.9266H18.808C18.1158 23.9283 17.5223 23.4343 17.4016 22.7536L17.2978 22.1969C16.9832 22.0899 16.6754 21.9626 16.3795 21.8149L15.9135 22.1409C15.3438 22.533 14.5752 22.4634 14.0837 21.9762L12.9749 20.8847C12.4868 20.3958 12.4171 19.6286 12.8082 19.0599L13.1484 18.5863C12.9987 18.2893 12.8712 17.9837 12.7657 17.6697L12.2079 17.5661V17.5644C11.526 17.4439 11.0311 16.8515 11.0328 16.1606V14.5887C11.0294 13.8961 11.526 13.3021 12.2079 13.1798L12.7521 13.0627C12.8627 12.7537 12.9953 12.4533 13.1484 12.163L12.8219 11.6979C12.429 11.1293 12.4987 10.362 12.9868 9.87313L14.1007 8.76127H14.1024C14.5905 8.2707 15.3608 8.20108 15.9306 8.59492L16.3965 8.91574V8.91744C16.6941 8.76976 17.0002 8.64414 17.3148 8.5389L17.4186 7.97872C17.541 7.30481 18.1226 6.81254 18.808 6.80576H20.3844C21.0765 6.80236 21.6718 7.29803 21.7942 7.97872L21.8946 8.5389C22.2092 8.64245 22.517 8.76806 22.8129 8.91744L23.2823 8.59662L23.284 8.59492C23.8503 8.2011 24.6206 8.2707 25.107 8.76127L26.209 9.87313C26.7004 10.3603 26.7702 11.131 26.3739 11.6979L26.0525 12.163C26.2056 12.4533 26.3382 12.7538 26.4488 13.0627L26.4266 13.0813ZM27.6017 24.1882L28.4724 24.2832C28.7479 24.3138 28.9452 24.5616 28.9146 24.8366C28.884 25.1116 28.6357 25.3102 28.3602 25.2779L26.3399 25.0437C26.0678 25.0097 25.8739 24.7636 25.9046 24.492L26.1392 22.4754C26.1732 22.2038 26.4198 22.0103 26.6919 22.0408C26.964 22.0799 27.1562 22.3243 27.1273 22.5976L27.0354 23.3751C28.0184 22.4618 28.8262 21.3788 29.418 20.177C30.7717 17.4067 30.889 14.1931 29.7411 11.3316C28.5932 8.47002 26.2872 6.22727 23.391 5.15435C20.4949 4.08325 17.2809 4.28354 14.5412 5.70602C14.4255 5.76882 14.2878 5.78071 14.162 5.74166C14.0361 5.70262 13.9307 5.61435 13.8712 5.49723C13.8031 5.3784 13.7878 5.23581 13.8269 5.10511C13.8678 4.9744 13.9613 4.86576 14.0837 4.80635C17.5444 2.99173 21.6754 2.98325 25.1426 4.78428C28.6084 6.5853 30.9724 9.96854 31.4669 13.8387C31.9618 17.7073 30.5265 21.5743 27.6236 24.1881L27.6017 24.1882ZM25.5899 13.6975C25.4573 13.2205 25.2668 12.7639 25.0253 12.3328C24.9471 12.1987 24.9471 12.0323 25.0253 11.8982L25.5474 11.1428V11.1411C25.6613 10.9714 25.6409 10.7456 25.4998 10.5979L24.3808 9.48606C24.2345 9.34347 24.0066 9.3214 23.8366 9.43343L23.0832 9.95455V9.95625C22.9523 10.0394 22.7856 10.0479 22.6479 9.97662C22.2159 9.73558 21.7567 9.54546 21.2806 9.41304C21.1241 9.36721 21.0068 9.23821 20.9762 9.07694L20.8112 8.17728V8.17898C20.7704 7.97018 20.5867 7.8225 20.3759 7.8259H18.8079C18.597 7.8225 18.4134 7.97018 18.3725 8.17898L18.211 9.07864V9.07694C18.1804 9.2382 18.0596 9.36721 17.9032 9.41305C17.427 9.54545 16.9696 9.73557 16.5393 9.97662C16.4016 10.0479 16.2349 10.0394 16.104 9.95625L15.3506 9.43513V9.43343C15.1788 9.3197 14.9492 9.34007 14.803 9.48606L13.6891 10.5979H13.6874C13.5462 10.7456 13.5258 10.9714 13.6398 11.1411L14.1619 11.8965V11.8982C14.2401 12.0323 14.2401 12.1987 14.1619 12.3328C13.9204 12.7639 13.7299 13.2206 13.5972 13.6975C13.5513 13.8537 13.4221 13.9708 13.2622 14.0014L12.3609 14.166C12.1534 14.2068 12.0038 14.3901 12.0072 14.6006V16.1742C12.0038 16.3847 12.1534 16.568 12.3609 16.6087L13.2622 16.77C13.4221 16.8005 13.5513 16.9211 13.5972 17.0772C13.7299 17.5542 13.9221 18.0125 14.1669 18.442C14.2452 18.5761 14.2452 18.7424 14.1669 18.8765L13.6449 19.6285C13.5275 19.8 13.5479 20.0292 13.6925 20.1768L14.8064 21.2887C14.956 21.433 15.1839 21.4533 15.3557 21.3362L16.109 20.8185V20.8202C16.2434 20.7421 16.4101 20.7421 16.5444 20.8202C16.9848 21.0527 17.4525 21.2327 17.9372 21.3532C18.0953 21.399 18.2144 21.528 18.2467 21.6893L18.3725 22.589C18.4133 22.7961 18.597 22.9438 18.8079 22.9404H20.3843C20.5952 22.9437 20.7789 22.7961 20.8197 22.589L20.9847 21.6893C21.0153 21.5297 21.1326 21.399 21.2891 21.3532C21.7653 21.2208 22.2244 21.0307 22.6563 20.7896C22.7907 20.7115 22.9573 20.7115 23.0917 20.7896L23.8587 21.3193C24.0287 21.433 24.2549 21.4126 24.4028 21.2717L25.5218 20.1599V20.1582C25.6647 20.0105 25.6851 19.7813 25.5695 19.6116L25.0474 18.8596H25.0457C24.9691 18.7255 24.9691 18.5591 25.0457 18.425C25.2889 17.9939 25.4776 17.5355 25.612 17.0603C25.6579 16.9024 25.7888 16.7819 25.9521 16.7513L26.8534 16.5901V16.5918C27.0609 16.551 27.2105 16.3677 27.2054 16.1572V14.5887C27.2105 14.3765 27.0609 14.1932 26.8534 14.1542L25.9487 13.9895L25.947 13.9878C25.782 13.9674 25.6443 13.8537 25.5899 13.6975ZM22.4166 18.1821C21.0663 19.5198 18.9559 19.7167 17.3796 18.6557C15.8014 17.5931 15.196 15.5663 15.9324 13.8143C16.667 12.0642 18.5411 11.0746 20.4047 11.4548C22.2703 11.8334 23.6053 13.4748 23.5967 15.3743C23.5933 16.4301 23.1699 17.4404 22.4166 18.1821ZM21.7074 13.2712C22.7125 14.2727 22.869 15.8446 22.0799 17.0244C21.2925 18.2041 19.7789 18.6624 18.4661 18.1209C17.1532 17.5794 16.4067 16.1875 16.6821 14.7973C16.9576 13.4053 18.1804 12.4038 19.6004 12.4021C20.3911 12.4004 21.1497 12.7127 21.7074 13.2712Z" fill="#1447E6"/>
</svg>
