<svg width="40" height="35" viewBox="0 0 40 35" fill="none" xmlns="http://www.w3.org/2000/svg">
<path fill-rule="evenodd" clip-rule="evenodd" d="M20 30.0201H18.9285C18.2587 30.0201 17.7121 29.481 17.7121 28.8202V27.2257C17.7121 27.1057 17.6955 26.9907 17.6638 26.8822C16.6857 26.6455 15.7643 26.2658 14.9261 25.7628C14.8245 25.8171 14.7311 25.8877 14.6445 25.9716L13.5014 27.0992C13.0282 27.566 12.255 27.566 11.7801 27.0992L10.2655 25.605C9.79224 25.1382 9.79224 24.3755 10.2655 23.907L11.4086 22.7794C11.4935 22.6956 11.5652 22.6019 11.6202 22.5033C11.112 21.6765 10.7254 20.7675 10.4854 19.8026C10.3754 19.7714 10.2588 19.755 10.1372 19.755H8.52251C7.85267 19.755 7.3061 19.2158 7.3061 18.555V16.4412C7.3061 15.7805 7.85262 15.2413 8.52251 15.2413H10.1372C10.2588 15.2413 10.3754 15.2249 10.4854 15.1936C10.7254 14.2288 11.1102 13.3198 11.6202 12.493C11.5652 12.3944 11.4935 12.3007 11.4086 12.2168L10.2655 11.0892C9.79224 10.6224 9.79224 9.85972 10.2655 9.39125L11.7801 7.8971C12.2534 7.43028 13.0265 7.43028 13.5014 7.8971L14.6445 9.0247C14.7295 9.10853 14.8245 9.17921 14.9261 9.23345C15.7642 8.73212 16.684 8.35076 17.6638 8.11406C17.6955 8.00558 17.7121 7.88887 17.7121 7.77052V6.17774C17.7121 5.51697 18.2587 4.9778 18.9285 4.9778L20 4.98109H21.0714C21.7412 4.98109 22.2878 5.52021 22.2878 6.18102V7.77381C22.2878 7.8938 22.3044 8.00886 22.3361 8.11735C23.3142 8.35404 24.2356 8.73372 25.0738 9.23674C25.1738 9.1825 25.2688 9.11181 25.3554 9.02799L26.4985 7.90039C26.9717 7.43356 27.7449 7.43356 28.2198 7.90039L29.7344 9.39454C30.2077 9.86137 30.2077 10.6241 29.7344 11.0925L28.5914 12.2201C28.5064 12.304 28.4347 12.3976 28.3798 12.4963C28.888 13.323 29.2746 14.232 29.5145 15.1969C29.6245 15.2281 29.7411 15.2446 29.8628 15.2446H31.4774C32.1473 15.2446 32.6938 15.7837 32.6938 16.4445V18.5583C32.6938 19.2191 32.1473 19.7583 31.4774 19.7583H29.8628C29.7411 19.7583 29.6245 19.7747 29.5145 19.8059C29.2746 20.7708 28.8897 21.6798 28.3798 22.5066C28.4347 22.6052 28.5064 22.6989 28.5914 22.7827L29.7344 23.9103C30.2077 24.3771 30.2077 25.1398 29.7344 25.6083L28.2198 27.1024C27.7465 27.5693 26.9734 27.5693 26.4985 27.1024L25.3554 25.9748C25.2704 25.891 25.1755 25.8203 25.0738 25.7661C24.2357 26.2674 23.3159 26.6488 22.3361 26.8855C22.3044 26.994 22.2878 27.1107 22.2878 27.229V28.8218C22.2878 29.4826 21.7413 30.0217 21.0714 30.0217L20 30.0201ZM15.4028 1.73021C16.5959 1.3916 17.8406 1.1812 19.1153 1.11548C20.3483 1.05137 21.6131 1.12534 22.8878 1.34724C27.4103 2.13458 31.1807 4.65278 33.622 8.09128C36.0632 11.5298 37.1728 15.8873 36.3746 20.3502C36.1497 21.6093 35.7865 22.8043 35.3049 23.9253C34.8067 25.0825 34.1818 26.1641 33.4503 27.1553C33.2703 27.3985 33.3253 27.7404 33.5719 27.9179C33.7452 28.0429 33.9669 28.0527 34.1468 27.964V27.9656C34.1552 27.9623 36.8495 26.6194 39.6773 25.3258C39.9556 25.1992 40.0772 24.8738 39.9489 24.5993C39.8206 24.3247 39.4907 24.2048 39.2124 24.3313C37.8294 24.9642 36.4747 25.6102 35.4466 26.1082C35.7699 25.5428 36.0631 24.956 36.3247 24.3511C36.8413 23.1479 37.2295 21.874 37.4678 20.5409C38.3176 15.7839 37.1329 11.137 34.5285 7.46858C31.9241 3.79649 27.9017 1.10746 23.0794 0.267555C21.728 0.0325047 20.3817 -0.044753 19.0603 0.0242865C17.7056 0.0933217 16.3792 0.318513 15.0995 0.681775C14.8063 0.76396 14.6363 1.0664 14.7196 1.35572C14.8029 1.64501 15.1095 1.81402 15.4028 1.73021ZM24.5958 33.2699C23.4027 33.6085 22.1581 33.8189 20.8833 33.8846C19.6503 33.9487 18.3856 33.8748 17.1109 33.6529C12.5884 32.8655 8.81793 30.3473 6.37668 26.9088C3.93556 23.4718 2.82584 19.1128 3.62399 14.6499C3.84894 13.3908 4.21218 12.1958 4.69374 11.0748C5.19197 9.91758 5.81681 8.83602 6.54833 7.84484C6.72829 7.60157 6.6733 7.25969 6.42669 7.08215C6.2584 6.96216 6.04511 6.94737 5.87015 7.02791V7.02955C3.03581 8.3248 0.313237 9.68253 0.304706 9.68745C0.0314374 9.82388 -0.0785405 10.1526 0.0597616 10.4222C0.198064 10.6918 0.531333 10.8003 0.804593 10.6638C0.811258 10.6605 2.4892 9.82388 4.58873 8.83434C4.25047 9.41786 3.94555 10.026 3.67561 10.6523C3.15908 11.8555 2.77082 13.1294 2.53254 14.4624C1.68273 19.2195 2.86746 23.8663 5.47185 27.5348C8.07627 31.2036 12.0986 33.8942 16.921 34.7324C18.2723 34.9675 19.6187 35.0448 20.94 34.9757C22.2947 34.9067 23.6228 34.6815 24.9008 34.3182C25.1941 34.236 25.364 33.9336 25.2807 33.6443C25.1957 33.355 24.8908 33.1861 24.5958 33.2699ZM20.0004 12.0493C18.4741 12.0493 17.0927 12.6591 16.0929 13.6454C15.0931 14.6316 14.475 15.9942 14.475 17.4999C14.475 19.0056 15.0931 20.3682 16.0929 21.3545C17.0927 22.3407 18.474 22.9505 20.0004 22.9505C21.5267 22.9505 22.908 22.3407 23.9078 21.3545C24.9076 20.3682 25.5258 19.0056 25.5258 17.4999C25.5258 15.9942 24.9076 14.6316 23.9078 13.6454C22.908 12.6591 21.5267 12.0493 20.0004 12.0493ZM15.3064 12.8695C14.105 14.0546 13.3619 15.6918 13.3619 17.4999C13.3619 19.3081 14.105 20.9452 15.3064 22.1303C16.5078 23.3155 18.1674 24.0485 20.0004 24.0485C21.8333 24.0485 23.4929 23.3154 24.6943 22.1303C25.8958 20.9452 26.6389 19.3081 26.6389 17.4999C26.6389 15.6918 25.8957 14.0547 24.6943 12.8695C23.493 11.6844 21.8333 10.9513 20.0004 10.9513C18.1675 10.9529 16.5079 11.686 15.3064 12.8695Z" fill="#1447E6"/>
</svg>
