<svg width="40" height="34" viewBox="0 0 40 34" fill="none" xmlns="http://www.w3.org/2000/svg">
<path fill-rule="evenodd" clip-rule="evenodd" d="M39.9983 24.5917H0V27.0425C0 27.1398 0.0386181 27.2284 0.102421 27.2933C0.166226 27.3581 0.253534 27.3973 0.349241 27.3973H39.6473C39.743 27.3973 39.8303 27.3581 39.8941 27.2933C39.9579 27.2284 39.9966 27.1398 39.9966 27.0425L39.9983 24.5917ZM0 23.727H40L39.9983 3.35645C39.9983 3.25924 39.9597 3.17055 39.8959 3.10574C39.8321 3.04093 39.7448 3.00171 39.6491 3.00171L0.349281 3C0.253574 3 0.166266 3.03923 0.102462 3.10404C0.0386569 3.16885 4.04798e-05 3.25753 4.04798e-05 3.35475L0 23.727ZM3.57971 25.4308C3.88697 25.4308 4.13548 25.6832 4.13548 25.9953C4.13548 26.3075 3.88699 26.5599 3.57971 26.5599C3.27244 26.5599 3.02393 26.3075 3.02393 25.9953C3.02393 25.6832 3.27243 25.4308 3.57971 25.4308ZM6.3132 25.4308C6.62046 25.4308 6.86898 25.6832 6.86898 25.9953C6.86898 26.3075 6.62048 26.5599 6.3132 26.5599C6.00592 26.5599 5.75742 26.3075 5.75742 25.9953C5.75742 25.6832 6.0076 25.4308 6.3132 25.4308ZM9.04837 25.4308C9.35563 25.4308 9.60414 25.6832 9.60414 25.9953C9.60414 26.3075 9.35565 26.5599 9.04837 26.5599C8.7411 26.5599 8.49259 26.3075 8.49259 25.9953C8.49259 25.6832 8.74109 25.4308 9.04837 25.4308ZM12.8949 20.7782V15.2882C12.8949 15.0699 12.9839 14.8721 13.1299 14.7306C13.2727 14.5907 13.4657 14.5037 13.679 14.5037H15.442C15.6552 14.5037 15.8483 14.5907 15.991 14.7306C16.1354 14.8738 16.2261 15.0717 16.2261 15.2882V20.7782C16.2261 21.0067 16.132 21.2131 15.9809 21.3632C15.8332 21.5098 15.63 21.6002 15.405 21.6002L13.721 21.6019V21.6036C13.4976 21.6036 13.2945 21.5133 13.1451 21.3666C12.9939 21.2182 12.9016 21.0101 12.8999 20.7816L12.8949 20.7782ZM13.7445 18.1704V15.3683H15.3715V20.739L13.7445 20.7407V18.1704ZM9.43453 12.1107H11.0615V20.7936H9.43453V12.1107ZM8.58324 18.1704V12.0321C8.58324 11.8138 8.67223 11.616 8.81831 11.4744C8.96103 11.3346 9.15412 11.2476 9.36734 11.2476H11.1303C11.3436 11.2476 11.5367 11.3346 11.6794 11.4744C11.8238 11.6177 11.9144 11.8155 11.9144 12.0321V20.836C11.9144 21.0645 11.8204 21.2709 11.6693 21.4209C11.5199 21.5676 11.3167 21.658 11.0934 21.658H9.36905C9.15581 21.658 8.96272 21.571 8.82002 21.4312C8.67562 21.2879 8.58495 21.0901 8.58495 20.8735L8.58324 18.1704ZM6.74974 15.3683V20.7954H5.12273V15.3683H6.74974ZM5.05391 14.5036H6.81692C7.03016 14.5036 7.22325 14.5905 7.36595 14.7304C7.51035 14.8737 7.60102 15.0715 7.60102 15.2881V20.8736C7.60102 21.092 7.51035 21.2898 7.36595 21.4313C7.22323 21.5712 7.03014 21.6582 6.81692 21.6582H5.05391C4.84235 21.6582 4.64758 21.5712 4.50488 21.4313C4.36049 21.2881 4.26982 21.0902 4.26982 20.8736L4.27149 15.2881C4.27149 15.0698 4.36216 14.8719 4.50656 14.7304C4.6476 14.5905 4.84237 14.5036 5.05391 14.5036ZM18.0564 13.5076H19.6834V20.795H18.0564V13.5076ZM17.2051 20.8361V13.4272C17.2051 13.2089 17.2941 13.0128 17.4402 12.8695C17.5829 12.7297 17.776 12.6427 17.9892 12.6427H19.7522C19.9638 12.6427 20.1586 12.7297 20.3013 12.8695C20.4457 13.0128 20.5363 13.2106 20.5363 13.4272V20.8736C20.5363 21.0919 20.4457 21.2898 20.3013 21.4313C20.1585 21.5712 19.9655 21.6582 19.7522 21.6582H18.0279C17.8046 21.6582 17.6014 21.5678 17.452 21.4211C17.2992 21.271 17.2051 21.0646 17.2051 20.8361ZM6.29291 11.3175C6.38358 11.4096 6.44067 11.5392 6.44067 11.6808C6.44067 11.8223 6.38358 11.9503 6.29291 12.0441C6.20224 12.1362 6.07464 12.1942 5.93528 12.1942C5.79591 12.1942 5.66999 12.1362 5.57764 12.0441C5.48697 11.952 5.42988 11.8223 5.42988 11.6808C5.42988 11.5392 5.48697 11.4113 5.57764 11.3175C5.66831 11.2254 5.79591 11.1674 5.93528 11.1674C6.07464 11.1674 6.20224 11.2254 6.29291 11.3175ZM10.6046 7.96788C10.6953 8.05998 10.7523 8.18959 10.7523 8.33115C10.7523 8.47271 10.6953 8.60062 10.6046 8.69442C10.5139 8.78652 10.3863 8.84451 10.2469 8.84451C10.1076 8.84451 9.98166 8.78652 9.88931 8.69442C9.79864 8.60233 9.74156 8.47271 9.74156 8.33115C9.74156 8.18959 9.79864 8.06168 9.88931 7.96788C9.97998 7.87578 10.1076 7.81779 10.2469 7.81779C10.3863 7.81779 10.5122 7.87578 10.6046 7.96788ZM14.9145 11.3175C15.0052 11.4096 15.0623 11.5392 15.0623 11.6808C15.0623 11.8223 15.0052 11.9503 14.9145 12.0441C14.8239 12.1362 14.6963 12.1942 14.5569 12.1942C14.4175 12.1942 14.2916 12.1362 14.1993 12.0441C14.1086 11.952 14.0515 11.8223 14.0515 11.6808C14.0515 11.5392 14.1086 11.4113 14.1993 11.3175C14.2899 11.2254 14.4175 11.1674 14.5569 11.1674C14.6979 11.1674 14.8239 11.2254 14.9145 11.3175ZM19.2262 9.40394C19.3169 9.49603 19.374 9.62565 19.374 9.76721C19.374 9.90877 19.3169 10.0367 19.2262 10.1305C19.1355 10.2226 19.0079 10.2806 18.8686 10.2806C18.7292 10.2806 18.6033 10.2226 18.5109 10.1305C18.4203 10.0384 18.3632 9.90877 18.3632 9.76721C18.3632 9.62565 18.4203 9.49774 18.5109 9.40394C18.6016 9.31184 18.7292 9.25385 18.8686 9.25385C19.0079 9.25385 19.1355 9.31184 19.2262 9.40394ZM18.8686 8.38916C19.243 8.38916 19.5822 8.54266 19.8273 8.79337C20.0725 9.04237 20.2253 9.3869 20.2253 9.76723C20.2253 10.1476 20.0741 10.4921 19.8273 10.7411C19.5822 10.9901 19.243 11.1453 18.8686 11.1453C18.4941 11.1453 18.155 10.9918 17.9098 10.7411C17.893 10.724 17.8746 10.7053 17.8578 10.6865L15.9067 11.5529C15.9101 11.5956 15.9118 11.6382 15.9118 11.6826C15.9118 12.0629 15.7606 12.4074 15.5138 12.6564C15.2687 12.9054 14.9295 13.0606 14.5551 13.0606C14.1807 13.0606 13.8415 12.9071 13.5963 12.6564C13.3512 12.4074 13.1984 12.0629 13.1984 11.6826C13.1984 11.5239 13.2253 11.3721 13.274 11.2306L11.0089 9.4705C10.7907 9.62229 10.5271 9.71098 10.2433 9.71098C9.95956 9.71098 9.69596 9.62229 9.47769 9.4705L7.21268 11.2306C7.26137 11.3721 7.28824 11.5256 7.28824 11.6826C7.28824 12.0629 7.13712 12.4074 6.8903 12.6564C6.64516 12.9054 6.30599 13.0606 5.93156 13.0606C5.55713 13.0606 5.21795 12.9071 4.97281 12.6564C4.72767 12.4074 4.57488 12.0629 4.57488 11.6826C4.57488 11.3022 4.72599 10.9577 4.97281 10.7087C5.21795 10.4597 5.55713 10.3045 5.93156 10.3045C6.21532 10.3045 6.47891 10.3932 6.69718 10.545L8.96219 8.78489C8.9135 8.64333 8.88664 8.49154 8.88664 8.33291C8.88664 7.95258 9.03775 7.60805 9.28457 7.35905C9.52971 7.11004 9.86889 6.95484 10.2433 6.95484C10.6177 6.95484 10.9569 7.10834 11.2021 7.35905C11.4472 7.60805 11.6 7.95258 11.6 8.33291C11.6 8.49152 11.5731 8.64332 11.5244 8.78489L13.7895 10.545C14.0077 10.3932 14.2713 10.3045 14.5551 10.3045C14.9295 10.3045 15.2687 10.458 15.5138 10.7087C15.5306 10.7257 15.5491 10.7445 15.5659 10.7633L17.5169 9.89685C17.5136 9.85422 17.5119 9.81158 17.5119 9.76723C17.5119 9.3869 17.663 9.04237 17.9098 8.79337C18.155 8.54437 18.4941 8.38916 18.8686 8.38916ZM25.2572 15.9565C25.0221 15.9565 24.8307 15.7621 24.8307 15.525C24.8307 15.2862 25.0205 15.0935 25.2572 15.0935H28.7194C28.9545 15.0935 29.1442 15.2863 29.1442 15.525C29.1442 15.7638 28.9545 15.9565 28.7194 15.9565H25.2572ZM25.2572 17.7831C25.0221 17.7831 24.8307 17.5887 24.8307 17.3516C24.8307 17.1129 25.0205 16.9184 25.2572 16.9184H32.1664C32.4014 16.9184 32.5929 17.1112 32.5929 17.3516C32.5929 17.5904 32.4031 17.7831 32.1664 17.7831H25.2572ZM25.2572 19.6097C25.0221 19.6097 24.8307 19.417 24.8307 19.1782C24.8307 18.9395 25.0205 18.745 25.2572 18.745H28.7194C28.9545 18.745 29.1442 18.9395 29.1442 19.1782C29.1442 19.417 28.9545 19.6097 28.7194 19.6097H25.2572ZM25.2572 21.4363C25.0221 21.4363 24.8307 21.2436 24.8307 21.0031C24.8307 20.7644 25.0205 20.5716 25.2572 20.5716H30.8769C31.1119 20.5716 31.3034 20.7644 31.3034 21.0031C31.3034 21.2419 31.1136 21.4363 30.8769 21.4363H25.2572ZM31.3506 5.06864C32.5595 5.06864 33.6525 5.56664 34.445 6.36997C35.2358 7.17324 35.7261 8.28525 35.7261 9.51322C35.7261 10.7412 35.2359 11.8515 34.445 12.6565C33.6525 13.4598 32.5595 13.9578 31.3506 13.9578C30.1433 13.9578 29.0486 13.4598 28.2561 12.6565C27.4653 11.8515 26.975 10.7412 26.975 9.51322C26.975 8.28695 27.4652 7.17495 28.2561 6.36997C29.0486 5.56669 30.1416 5.06864 31.3506 5.06864ZM31.7753 5.95894C32.5779 6.05786 33.2983 6.42965 33.8423 6.98227C34.3862 7.53489 34.7523 8.26652 34.8497 9.08176H31.7754L31.7753 5.95894ZM32.7341 12.8068C32.3093 12.991 31.8425 13.0933 31.3505 13.0933C30.3767 13.0933 29.4952 12.6925 28.8588 12.0444C28.2208 11.3963 27.8262 10.5009 27.8262 9.51171C27.8262 9.01371 27.927 8.53785 28.1083 8.10635L31.0416 9.82721L32.7341 12.8068ZM32.0843 9.9466H34.848C34.7506 10.7618 34.3846 11.4935 33.8406 12.0461C33.723 12.1655 33.5971 12.2763 33.4645 12.377L32.0843 9.9466ZM28.5315 7.36273C28.6305 7.228 28.7413 7.10008 28.8572 6.9807C29.4012 6.42812 30.1215 6.0563 30.9241 5.95737V8.76465L28.5315 7.36273ZM23.0863 29.9574V28.2621H16.9109V29.9574L19.9567 29.6333C19.9886 29.6299 20.0221 29.6299 20.054 29.635L23.0863 29.9574ZM23.4977 30.8681C23.4759 30.8681 23.4557 30.8647 23.4356 30.8613L19.9986 30.4963L16.5616 30.863C16.5414 30.8664 16.5213 30.8681 16.4994 30.8698L10.3072 31.5298V33H29.6919V31.5298L23.4977 30.8681Z" fill="#1447E6"/>
</svg>
