<svg width="40" height="48" viewBox="0 0 40 48" fill="none" xmlns="http://www.w3.org/2000/svg">
<path d="M5.12042 34.3447C6.27931 34.3447 7.32329 33.6474 7.76703 32.5777C8.21077 31.5059 7.96711 30.2738 7.14697 29.4536C6.32683 28.6335 5.09465 28.3898 4.02293 28.8316C2.95319 29.2753 2.25391 30.3213 2.25391 31.4802C2.25589 33.061 3.53761 34.3427 5.12042 34.3447Z" fill="#1447E6"/>
<path d="M20.736 30.3582C20.736 32.464 19.0304 34.1696 16.9266 34.1696C14.8228 34.1696 13.1172 32.464 13.1172 30.3582C13.1172 28.2545 14.8228 26.5488 16.9266 26.5488C19.0304 26.5488 20.736 28.2545 20.736 30.3582Z" fill="#1447E6"/>
<path d="M31.1356 35.1782C28.7981 35.1802 26.5576 36.1093 24.9055 37.7634C23.2514 39.4156 22.3223 41.6561 22.3203 43.9935V47.5435H39.9533V43.9935C39.9513 41.6579 39.0203 39.4155 37.3681 37.7634C35.7159 36.1113 33.4731 35.1802 31.1356 35.1782Z" fill="#1447E6"/>
<path d="M26.0274 28.8154C26.0274 30.8815 27.2735 32.7457 29.1832 33.5361C31.0928 34.3285 33.2917 33.8907 34.7535 32.4287C36.2155 30.9667 36.6533 28.7678 35.8609 26.8584C35.0705 24.9467 33.2063 23.7026 31.1382 23.7026C28.3173 23.7046 26.0295 25.9925 26.0274 28.8154Z" fill="#1447E6"/>
<path d="M5.12101 35.5962C2.29416 35.6002 0.00405705 37.8901 0 40.7172V42.6328H8.99956V42.094C9.00154 40.8994 9.27491 39.7207 9.79986 38.649C8.98368 36.7928 7.14756 35.5962 5.12101 35.5962Z" fill="#1447E6"/>
<path d="M16.9239 35.4202C13.2392 35.4261 10.2541 38.4114 10.25 42.094V44.695H21.0681V43.9938V43.9958C21.0681 42.1 21.607 40.2438 22.6232 38.643C21.4148 36.6481 19.2553 35.4261 16.9239 35.4202Z" fill="#1447E6"/>
<path d="M27.832 3.4013C27.832 3.14773 27.9865 2.91992 28.2222 2.82286C28.456 2.72579 28.7274 2.78126 28.9057 2.96351L34.262 8.41517C34.5017 8.65884 34.5017 9.04909 34.262 9.29276L28.9057 14.7444C28.7274 14.9267 28.456 14.9821 28.2222 14.8851C27.9865 14.788 27.832 14.5602 27.832 14.3066V11.0598H22.5664H22.5684C23.2895 13.8669 25.3418 16.1448 28.0576 17.1556C30.7755 18.1659 33.8161 17.7816 36.1975 16.1255C38.5787 14.4714 39.9991 11.7554 39.9991 8.85523C39.9991 5.95708 38.5787 3.24129 36.1995 1.58499C33.8184 -0.0710939 30.7778 -0.455398 28.0596 0.554909C25.3416 1.56324 23.2914 3.8394 22.5683 6.6486H27.8319L27.832 3.4013Z" fill="#1447E6"/>
<path d="M29.0852 10.4338V12.7754L32.9402 8.853L29.0852 4.93262V7.27414C29.0852 7.61884 28.8059 7.90015 28.4592 7.90015H15.8164V9.80782H28.4592C28.8059 9.80782 29.0852 10.0871 29.0852 10.4338Z" fill="#1447E6"/>
</svg>
