<svg width="40" height="38" viewBox="0 0 40 38" fill="none" xmlns="http://www.w3.org/2000/svg">
<path d="M28.7913 14.2123H10.9794C8.92369 14.223 7.26537 15.876 7.26898 17.9097V29.3629C7.27801 31.3823 8.93636 33.0156 10.9794 33.0192H23.1281C23.9229 31.6539 25.9046 28.2316 27.1872 26.037L28.206 24.2714L28.2042 24.2696C29.0912 22.7506 30.7278 21.816 32.5018 21.8142V17.9095C32.5036 15.8758 30.8452 14.223 28.7913 14.2123ZM19.8928 25.0026C19.1395 24.9776 18.5415 24.3664 18.5415 23.623C18.5415 22.8778 19.1395 22.2666 19.8928 22.2416C20.6442 22.2666 21.2422 22.8778 21.2422 23.623C21.2422 24.3664 20.6442 24.9775 19.8928 25.0026ZM19.8928 0C16.2545 0 13.3028 2.91291 13.2935 6.51187V11.4514H16.0827L16.0845 6.51187C16.0845 4.43529 17.7862 2.75187 19.8853 2.75187C21.9844 2.75187 23.6861 4.43529 23.6861 6.51187V11.4514H26.4753V6.51187C26.4681 2.91808 23.5254 0.00503235 19.8928 0ZM39.7112 34.8262L34.3407 25.6371H34.3425C33.9578 24.983 33.2514 24.581 32.4873 24.581C31.7232 24.581 31.0168 24.983 30.6321 25.6371C29.8788 26.9202 25.959 33.6948 25.2903 34.8262C24.9055 35.4785 24.9037 36.2844 25.2831 36.9403C25.6642 37.5943 26.367 37.9982 27.1311 38H37.8706C38.6329 37.9982 39.3375 37.5926 39.7168 36.9385C40.0962 36.2844 40.0942 35.4785 39.7112 34.8262ZM33.8945 33.6128H33.8963C33.8836 34.3669 33.264 34.9728 32.5017 34.9728C31.7394 34.9728 31.1179 34.367 31.1053 33.6128V31.6256C31.1089 30.8643 31.7322 30.2495 32.5017 30.2495C33.2695 30.2495 33.8927 30.8643 33.8963 31.6256L33.8945 33.6128ZM38.3853 12.0716C38.015 12.0716 37.6609 11.9268 37.399 11.6677C37.137 11.4086 36.9907 11.0583 36.9907 10.692C36.9889 8.87272 36.2573 7.12856 34.9567 5.84169C33.656 4.55679 31.8929 3.83305 30.0537 3.83126C29.2842 3.83126 28.6592 3.21293 28.6592 2.45167C28.6592 1.68858 29.2842 1.07207 30.0537 1.07207C32.6334 1.07386 35.1047 2.08893 36.9272 3.89206C38.7517 5.6952 39.776 8.14171 39.7796 10.6917C39.7796 11.058 39.6333 11.4083 39.3713 11.6674C39.1094 11.9265 38.7556 12.0716 38.3853 12.0716ZM33.3561 12.0716C32.9858 12.0716 32.6317 11.9268 32.3698 11.6677C32.1079 11.4086 31.9615 11.0583 31.9615 10.692C31.9597 9.65013 31.1071 8.80662 30.0539 8.80483C29.2916 8.79411 28.6792 8.17936 28.6792 7.42524C28.6792 6.67111 29.2916 6.05634 30.0539 6.04564C32.648 6.04921 34.7488 8.12757 34.7506 10.6919C34.7506 11.0582 34.6043 11.4085 34.3423 11.6676C34.0804 11.9267 33.7265 12.0716 33.3561 12.0716ZM1.39638 12.0716C1.02606 12.0716 0.670192 11.9268 0.408259 11.6677C0.148129 11.4086 0 11.0583 0 10.692C0.00361269 8.14184 1.0297 5.6953 2.85241 3.89234C4.67513 2.0892 7.14819 1.07413 9.72586 1.07234C10.4972 1.07234 11.1204 1.6889 11.1204 2.45194C11.1204 3.21325 10.4972 3.83154 9.72586 3.83154C7.88687 3.83333 6.12376 4.55707 4.82478 5.84196C3.52413 7.12865 2.79253 8.87282 2.79072 10.6922C2.79072 11.0586 2.64259 11.4088 2.38246 11.668C2.12052 11.9271 1.76491 12.0716 1.39638 12.0716ZM6.42371 12.0716C6.05339 12.0716 5.69752 11.9268 5.43739 11.6677C5.17546 11.4086 5.02733 11.0583 5.02913 10.692C5.03094 8.12574 7.13367 6.04756 9.72581 6.04573C10.4881 6.05645 11.1024 6.67121 11.1024 7.42533C11.1024 8.17945 10.4882 8.79422 9.72581 8.80492C8.67267 8.80492 7.81999 9.65022 7.81819 10.6921C7.81819 11.0584 7.67187 11.4087 7.40993 11.6678C7.14799 11.9269 6.79224 12.0716 6.42371 12.0716Z" fill="#1447E6"/>
</svg>
