<svg width="30" height="41" viewBox="0 0 30 41" fill="none" xmlns="http://www.w3.org/2000/svg">
<path d="M10.6766 20.0615C16.4549 23.3734 24.1578 18.9072 24.0466 12.1127C24.0448 9.71444 23.0898 7.41295 21.3934 5.71677C19.6988 4.0222 17.3975 3.06722 14.9993 3.06543C5.586 3.17673 2.55926 15.5703 10.6766 20.0615Z" fill="#1447E6"/>
<path d="M21.1459 20.6078C19.358 21.8984 17.2074 22.5931 15.0013 22.5913C12.7969 22.5895 10.6464 21.8931 8.86039 20.6006C6.25927 21.5753 4.01725 23.322 2.43595 25.6037C0.852684 27.8852 0.00179222 30.5975 0 33.3746V35.184C0.00359042 37.9592 2.25103 40.2068 5.0265 40.2105H24.9735C27.7487 40.2069 29.9963 37.9595 30 35.184V33.3746C29.9982 30.5975 29.1509 27.8885 27.5694 25.6073C25.9862 23.3258 23.7459 21.5827 21.1464 20.6079L21.1459 20.6078Z" fill="#1447E6"/>
<path d="M1.32351 21.1907H4.08078C4.47031 21.1818 4.78443 20.864 4.78443 20.4727C4.78443 20.0814 4.47029 19.7618 4.08078 19.7547H2.04155V17.7136C2.04155 17.3169 1.72022 16.9956 1.32351 16.9956C0.926792 16.9956 0.605469 17.3169 0.605469 17.7136V20.4727C0.605469 20.663 0.680861 20.8461 0.815494 20.9807C0.950127 21.1154 1.13321 21.1907 1.32351 21.1907Z" fill="#1447E6"/>
<path d="M27.9577 17.7141V19.7534L25.9185 19.7552C25.529 19.7624 25.2148 20.0819 25.2148 20.4732C25.2148 20.8645 25.529 21.1823 25.9185 21.1912H28.6758C28.866 21.1912 29.0491 21.1159 29.1838 20.9812C29.3184 20.8466 29.3938 20.6635 29.3938 20.4732V17.7141C29.3938 17.3174 29.0725 16.9961 28.6758 16.9961C28.2791 16.9961 27.9577 17.3174 27.9577 17.7141Z" fill="#1447E6"/>
<path d="M25.9185 1.43609H27.9577V3.47532C27.9667 3.86665 28.2845 4.18081 28.6758 4.18081C29.0671 4.18081 29.3867 3.86667 29.3938 3.47532V0.718052C29.3938 0.527773 29.3184 0.344672 29.1838 0.210026C29.0492 0.075379 28.8661 0 28.6758 0H25.9185C25.529 0.00718039 25.2148 0.326709 25.2148 0.718039C25.2148 1.10937 25.529 1.42892 25.9185 1.43609Z" fill="#1447E6"/>
<path d="M1.32351 4.19336C1.51379 4.19336 1.69689 4.11797 1.83153 3.98333C1.96617 3.8487 2.04156 3.6656 2.04156 3.47531V1.43608H4.08079C4.47751 1.43608 4.79883 1.11475 4.79883 0.718039C4.79883 0.321323 4.47751 0 4.08079 0H1.32352C1.13324 0 0.950141 0.0753928 0.815494 0.210026C0.680848 0.344658 0.605469 0.52776 0.605469 0.718052V3.47532C0.605469 3.6656 0.680861 3.8487 0.815494 3.98335C0.950127 4.11799 1.13321 4.19336 1.32351 4.19336Z" fill="#1447E6"/>
</svg>
