<svg width="40" height="46" viewBox="0 0 40 46" fill="none" xmlns="http://www.w3.org/2000/svg">
<path d="M23.4303 26.8968C23.4303 30.1671 27.3774 35.1083 30.2607 38.7158C30.7643 39.347 31.252 39.9556 31.6946 40.5261C32.1372 39.9556 32.6249 39.3469 33.1285 38.7158C36.0121 35.1086 39.959 30.1696 39.959 26.8968C39.959 22.3619 36.2512 18.6737 31.6943 18.6737C27.1375 18.6737 23.4303 22.3618 23.4303 26.8968ZM31.6949 29.9447C30.0036 29.9447 28.6307 28.5768 28.6307 26.8968C28.6307 25.2144 30.0058 23.8466 31.6949 23.8466C33.384 23.8466 34.7591 25.2144 34.7591 26.8968C34.7591 28.5768 33.384 29.9447 31.6949 29.9447ZM16.3241 14.1524L12.6366 16.7084L12.6344 8.82465H21.084V16.7084L17.3965 14.1524C17.234 14.0423 17.0465 13.9862 16.8591 13.9862C16.6717 13.9839 16.4844 14.0401 16.3241 14.1524ZM25.3968 35.479H0V8.82506H10.7532V18.4988C10.7532 18.8469 10.9474 19.1659 11.259 19.3276C11.5684 19.4893 11.9432 19.4669 12.2323 19.267L16.8613 16.0618L21.4904 19.267C21.6507 19.377 21.8381 19.4332 22.0278 19.4332C22.1768 19.4332 22.3259 19.3995 22.4636 19.3276C22.773 19.1659 22.9672 18.8469 22.9672 18.4988V8.82506H33.7204V17.0055C33.0655 16.873 32.3881 16.8034 31.6949 16.8034C26.0994 16.8034 21.5469 21.3315 21.5469 26.8975C21.5492 29.4805 23.2879 32.5396 25.397 35.4799L25.3968 35.479ZM22.8407 6.95402L21.8268 0H29.644L33.1395 6.95402H22.8407ZM20.9394 6.95402H12.7811L13.795 0H19.9254L20.9394 6.95402ZM10.8798 6.95402H0.580958L4.07648 0H11.8937L10.8798 6.95402ZM40 42.8241C40 45.3307 34.7794 46 31.6949 46C28.6104 46 23.3898 45.3306 23.3898 42.8241C23.3898 41.9705 24.0334 40.8071 27.1066 40.1153C27.6124 40.0008 28.116 40.3175 28.2311 40.8206C28.3463 41.3237 28.0279 41.8246 27.5221 41.9391C26.1198 42.2558 25.5056 42.6399 25.3159 42.8286C25.7359 43.2688 27.863 44.1291 31.6949 44.1291C35.5246 44.1291 37.6542 43.2711 38.0739 42.8286C37.8842 42.6422 37.27 42.2559 35.8677 41.9391C35.3619 41.8246 35.0435 41.3237 35.1587 40.8206C35.2738 40.3175 35.7774 40.0008 36.2832 40.1153C39.3564 40.8071 40 41.9706 40 42.8241Z" fill="#1447E6"/>
</svg>
