<svg width="35" height="50" viewBox="0 0 35 50" fill="none" xmlns="http://www.w3.org/2000/svg">
<path fill-rule="evenodd" clip-rule="evenodd" d="M15.6513 0C12.7149 0 9.77753 1.11789 7.54488 3.35368C3.45573 7.44859 3.11234 13.9056 6.51254 18.3987L4.28427 20.627L2.90782 19.2534C2.77362 19.1185 2.61408 19.0114 2.43837 18.9383C2.26266 18.8653 2.07424 18.8277 1.88395 18.8277C1.69365 18.8277 1.50523 18.8653 1.32952 18.9383C1.15381 19.0114 0.994268 19.1185 0.860068 19.2534C0.59103 19.524 0.440015 19.89 0.440015 20.2716C0.440015 20.6532 0.59103 21.0193 0.860068 21.2898L2.23934 22.6719L0.425699 24.4856C0.290784 24.6198 0.183721 24.7793 0.110665 24.955C0.0376093 25.1307 0 25.3192 0 25.5095C0 25.6997 0.0376093 25.8882 0.110665 26.0639C0.183721 26.2396 0.290784 26.3991 0.425699 26.5333C0.559848 26.6678 0.719213 26.7745 0.894665 26.8473C1.07012 26.9201 1.25821 26.9576 1.44817 26.9576C1.63813 26.9576 1.82622 26.9201 2.00167 26.8473C2.17712 26.7745 2.33649 26.6678 2.47064 26.5333L4.28145 24.7169L5.65791 26.0961C5.79211 26.2311 5.95165 26.3381 6.12736 26.4112C6.30307 26.4842 6.49149 26.5218 6.68178 26.5218C6.87208 26.5218 7.0605 26.4842 7.23621 26.4112C7.41192 26.3381 7.57146 26.2311 7.70566 26.0961C7.84058 25.9619 7.94764 25.8024 8.02069 25.6267C8.09375 25.451 8.13136 25.2626 8.13136 25.0723C8.13136 24.882 8.09375 24.6936 8.02069 24.5178C7.94764 24.3421 7.84058 24.1826 7.70566 24.0484L6.32639 22.6691L8.52927 20.4634C13.0227 24.036 19.6063 23.7434 23.7577 19.5862C28.223 15.1146 28.223 7.82527 23.7577 3.35368C21.525 1.11789 18.5876 0 15.6513 0ZM15.6513 2.87137C17.8426 2.87137 20.0344 3.71226 21.7156 5.39579C25.0779 8.76285 25.0779 14.1742 21.7156 17.5413C18.3532 20.9083 12.9493 20.9083 9.58699 17.5413C6.22466 14.1742 6.22466 8.76285 9.58699 5.39579C11.2681 3.71226 13.4599 2.87137 15.6513 2.87137ZM28.6599 21.4817C28.3069 21.5039 27.9744 21.6549 27.7254 21.906C27.4763 22.1571 27.3281 22.4909 27.3088 22.844C27.2977 23.0339 27.3243 23.2242 27.387 23.4038C27.4498 23.5834 27.5473 23.7489 27.6742 23.8907C27.8011 24.0325 27.9547 24.1478 28.1263 24.2301C28.2978 24.3123 28.484 24.3599 28.674 24.3699L30.0053 24.4376L25.9718 28.4767C21.4841 25.0733 15.0318 25.4123 10.9437 29.5062C6.4784 33.9778 6.48686 41.2756 10.9522 45.7472C15.4174 50.2188 22.6968 50.2188 27.1621 45.7472C31.3135 41.59 31.6041 34.996 28.0365 30.4963L32.0389 26.4826L32.1066 27.8139C32.1171 28.0036 32.1649 28.1894 32.2473 28.3607C32.3297 28.5319 32.445 28.6852 32.5868 28.8118C32.7286 28.9384 32.8939 29.0357 33.0734 29.0982C33.2528 29.1608 33.4428 29.1873 33.6326 29.1762C33.8223 29.1661 34.0082 29.1187 34.1796 29.0366C34.3509 28.9546 34.5044 28.8395 34.6313 28.698C34.7581 28.5565 34.8557 28.3914 34.9186 28.2121C34.9815 28.0328 35.0084 27.8428 34.9977 27.6531L34.7523 23.0894C34.7333 22.7335 34.5834 22.3972 34.3314 22.1452C34.0794 21.8932 33.7431 21.7432 33.3872 21.7242L28.8347 21.4817C28.7765 21.4781 28.7181 21.4781 28.6599 21.4817ZM19.0529 29.0296C21.2462 29.0314 23.4389 29.8733 25.12 31.5568C28.4823 34.9239 28.4823 40.3352 25.12 43.7023C21.7577 47.0694 16.3538 47.0694 12.9914 43.7023C9.62913 40.3352 9.62348 34.9182 12.9858 31.5512C14.667 29.8676 16.8596 29.0277 19.0529 29.0296Z" fill="#1447E6"/>
</svg>
