<svg width="40" height="27" viewBox="0 0 40 27" fill="none" xmlns="http://www.w3.org/2000/svg">
<path d="M15.08 24.8168C14.1176 24.8168 13.3343 24.0261 13.3343 23.0546C13.3343 22.0831 14.1176 21.2925 15.08 21.2925C16.0424 21.2925 16.8257 22.0831 16.8257 23.0546C16.8257 24.0261 16.0424 24.8168 15.08 24.8168ZM30.9245 21.2925C29.962 21.2925 29.1788 22.0831 29.1788 23.0546C29.1788 24.0261 29.962 24.8168 30.9245 24.8168C31.8869 24.8168 32.6702 24.0261 32.6702 23.0546C32.6702 22.0831 31.8869 21.2925 30.9245 21.2925ZM40 26.993H31.0735C31.0237 26.9951 30.9751 27 30.9249 27C30.8747 27 30.8261 26.9951 30.7763 26.993H15.2286C15.1788 26.9951 15.1302 27 15.08 27C15.0298 27 14.9812 26.9951 14.9314 26.993H0V25.7384H1.34327V0.627074H2.58571V2.30023H5.13633V0.627074C5.13633 0.280577 5.41429 0 5.75755 0H16.3045C16.6478 0 16.9257 0.280577 16.9257 0.627074V9.22688C16.9257 9.57338 16.6473 9.85395 16.3045 9.85395H5.75755C5.41429 9.85395 5.13633 9.57296 5.13633 9.22688V7.55372H2.58571V25.7384H12.2188C11.6771 25.1509 11.3094 24.3986 11.202 23.5635H10.3449C8.63878 23.5635 7.2551 22.1668 7.2551 20.4487V18.4752C7.2551 16.2215 10.1735 14.8619 12.2796 14.7424H12.3163L19.7122 8.85896C19.8184 8.77244 19.9571 8.72711 20.0959 8.72711H30.1C30.2796 8.72711 30.451 8.8054 30.5694 8.94548L34.6184 13.7206C35.9531 14.0255 37.3286 14.6147 38.7041 15.4758C38.8878 15.5911 38.998 15.793 38.998 16.0073V20.939C38.998 21.1079 38.9327 21.2686 38.8143 21.3881L36.802 23.3863C36.6878 23.5017 36.5286 23.5635 36.3694 23.5635H34.802C34.6947 24.3982 34.3269 25.1509 33.7853 25.7384H40V26.993ZM2.58571 3.55438V6.29916H5.13633V3.55438H2.58571ZM31.098 25.7384C32.4865 25.6478 33.5902 24.481 33.5902 23.0526C33.5902 21.5693 32.3943 20.3622 30.9249 20.3622C29.4555 20.3622 28.2596 21.5693 28.2596 23.0526C28.2596 24.481 29.3633 25.6478 30.7518 25.7384H31.098ZM17.4759 14.5858H24.0065V11.7677H21.0188L17.4759 14.5858ZM22.5412 16.9631V18.2156H24.6678V16.9631H22.5412ZM31.2555 14.5858L28.8718 11.7677H27.1494V14.5858H31.2555ZM17.9408 25.7384H28.0641C27.5225 25.1509 27.1547 24.3986 27.0473 23.5635H18.9576C18.8502 24.3986 18.4825 25.1513 17.9408 25.7384ZM8.5698 20.9641H9.52898C9.99429 20.9641 10.4106 20.7828 10.7004 20.4532C10.9535 20.1648 11.0922 19.7817 11.0922 19.3779C11.0922 18.4756 10.4188 17.7958 9.52898 17.7958H8.68816C8.56571 18.01 8.49633 18.2366 8.49633 18.4756V19.0483V19.7075V20.4491C8.49633 20.6263 8.52082 20.7993 8.5698 20.9641ZM14.9069 25.7384H15.2527C16.6416 25.6478 17.7449 24.481 17.7449 23.0526C17.7449 21.5693 16.549 20.3622 15.0796 20.3622C13.6102 20.3622 12.4143 21.5693 12.4143 23.0526C12.4147 24.481 13.5184 25.6478 14.9069 25.7384Z" fill="#1447E6"/>
</svg>
