<svg width="40" height="34" viewBox="0 0 40 34" fill="none" xmlns="http://www.w3.org/2000/svg">
<path fill-rule="evenodd" clip-rule="evenodd" d="M21.6599 20.0774H0V1.60699C0.00327506 0.720689 0.712273 0.00165403 1.58832 0H32.8894C33.7654 0.00165657 34.4761 0.720647 34.4777 1.60699V10.2465C33.1121 9.35356 31.5238 8.87313 29.8978 8.8599C28.2717 8.84667 26.677 9.30225 25.2981 10.1737H21.4371C21.2242 10.1753 21.0343 10.3112 20.9638 10.5133L20.0289 12.6338L17.5645 3.80048C17.5023 3.58842 17.3156 3.44098 17.0979 3.43104C16.8735 3.42276 16.6705 3.56855 16.6034 3.78722L12.4115 15.0808L10.0193 7.0957C9.9505 6.9085 9.78021 6.77928 9.58207 6.76602C9.38558 6.75443 9.20054 6.8588 9.10885 7.03606L7.72522 10.1738H4.84989C4.5748 10.1738 4.35047 10.4008 4.35047 10.6791C4.35047 10.9574 4.5748 11.1844 4.84989 11.1844H8.02812C8.22297 11.1827 8.39818 11.0667 8.48004 10.8862L9.45266 8.67617L11.9006 16.7805V16.7821C11.9645 17.0108 12.1773 17.1632 12.4115 17.1516C12.6014 17.1317 12.7652 17.0058 12.8307 16.8235L17.0143 5.55157L19.441 14.2509C19.4999 14.4547 19.6768 14.6005 19.8864 14.6154C20.0943 14.6303 20.2908 14.511 20.376 14.3188L21.7596 11.1811H23.9931L23.9947 11.1794C22.8174 12.2927 21.9741 13.7175 21.5615 15.293C21.1472 16.8684 21.1816 18.5301 21.6597 20.0858L21.6599 20.0774ZM29.8289 25.1667C27.828 25.1667 25.9089 24.3632 24.494 22.9302C23.0793 21.4988 22.2835 19.5572 22.2835 17.5326C22.2835 15.5079 23.0793 13.5665 24.494 12.1349C25.9088 10.7019 27.8278 9.89841 29.8289 9.89841C31.8299 9.89841 33.749 10.7019 35.1639 12.1349C36.5802 13.5663 37.3744 15.5079 37.3744 17.5326C37.3711 19.5553 36.5753 21.4937 35.1606 22.9217C33.7459 24.3514 31.8284 25.1532 29.829 25.1532L29.8289 25.1667ZM34.1042 21.85C35.4305 20.5065 36.0642 18.6129 35.8169 16.731C35.5713 14.8474 34.4726 13.1874 32.8466 12.238C31.2207 11.2886 29.2492 11.1595 27.5151 11.8868C25.781 12.6158 24.4793 14.1167 23.9946 15.9523C23.5083 17.7879 23.8947 19.7461 25.0377 21.2536C26.1806 22.7612 27.9506 23.6442 29.8289 23.6442C31.4352 23.6426 32.9744 22.9931 34.1041 21.8368L34.1042 21.85ZM33.4214 13.9031C31.7184 12.1735 29.0447 11.9035 27.0372 13.2586C25.0297 14.6121 24.2487 17.2131 25.1706 19.4697C26.0924 21.7245 28.4618 23.0067 30.8279 22.5313C33.1939 22.0542 34.8985 19.9535 34.8968 17.5115C34.8985 16.158 34.3678 14.859 33.4214 13.9031ZM22.0414 21.0866H4.18751e-05V22.359C0.00331694 23.2453 0.71395 23.9626 1.58836 23.9626H24.1374C23.2466 23.1624 22.5327 22.1833 22.0414 21.0866ZM35.2 24.2459H35.1983C34.509 24.8108 33.7377 25.2631 32.9108 25.5862L33.6935 27.1816L36.1546 25.7436L35.2 24.2459ZM39.7552 31.2836L36.7031 26.5671L34.1421 28.0647L36.6572 33.0942C37.1517 33.9606 38.2472 34.2572 39.1035 33.7569C39.9599 33.2565 40.2546 32.1499 39.7601 31.2835L39.7552 31.2836ZM25.9222 28.7058L8.57188 28.7041C7.92018 28.7423 7.41259 29.2889 7.41259 29.9483C7.41259 30.6093 7.92018 31.156 8.57188 31.1941H25.9059C26.5576 31.156 27.0668 30.6093 27.0668 29.9483C27.0668 29.2889 26.5576 28.7422 25.9059 28.7041L25.9222 28.7058ZM12.3332 27.6952H22.1462C21.5584 26.905 21.2014 25.9657 21.1147 24.98H13.3632C13.1749 26.2606 12.8228 27.122 12.3332 27.6952Z" fill="#1447E6"/>
</svg>
