<svg width="40" height="34" viewBox="0 0 40 34" fill="none" xmlns="http://www.w3.org/2000/svg">
<path d="M39.3333 26.9652H37.3333V9.37901C37.3333 8.08349 36.14 7.03418 34.6667 7.03418H32.6667C32.3 7.03418 32 7.29797 32 7.62039C32 7.9428 32.3 8.20659 32.6667 8.20659H34.6667C35.4 8.20659 36 8.73418 36 9.37901V26.9652H24C23.78 26.9652 23.5667 27.0649 23.4467 27.229L22.3133 28.7238H17.6933L16.56 27.229C16.4333 27.0649 16.2267 26.9652 16.0067 26.9652H4V9.37901C4 8.73418 4.6 8.20659 5.33333 8.20659H7.33333C7.7 8.20659 8 7.9428 8 7.62039C8 7.29797 7.7 7.03418 7.33333 7.03418H5.33333C3.86 7.03418 2.66667 8.08349 2.66667 9.37901V26.9652H0.666667C0.3 26.9652 0 27.229 0 27.5514V29.31C0 31.8952 2.39333 33.9997 5.33333 33.9997H34.6667C37.6067 33.9997 40 31.8952 40 29.31V27.5514C40 27.229 39.7 26.9652 39.3333 26.9652Z" fill="#1447E6"/>
<path d="M28.0007 0H12.0007C10.5273 0 9.33398 1.04931 9.33398 2.34483V14.6552C9.33398 15.9507 10.5273 17 12.0007 17H28.0007C29.474 17 30.6673 15.9507 30.6673 14.6552V2.34483C30.6673 1.04931 29.474 0 28.0007 0ZM15.974 12.1169C15.8407 12.2459 15.6607 12.3103 15.4807 12.3103C15.3207 12.3103 15.1607 12.2634 15.034 12.1579C13.5073 10.9503 12.6673 9.33828 12.6673 7.62069C12.6673 5.9031 13.5073 4.29103 15.034 3.08345C15.3073 2.86655 15.7273 2.88414 15.974 3.12448C16.2207 3.36483 16.2007 3.73414 15.9273 3.95103C14.6873 4.93586 14.0007 6.23724 14.0007 7.62069C14.0007 9.00414 14.6873 10.3055 15.9273 11.2903C16.2007 11.5072 16.2207 11.8766 15.974 12.1169ZM15.334 7.62069C15.334 6.55379 15.9073 5.55724 16.9473 4.81862C17.234 4.61345 17.654 4.65448 17.8873 4.90655C18.1207 5.15862 18.074 5.52793 17.7873 5.7331C17.0673 6.24897 16.6673 6.91724 16.6673 7.62069C16.6673 8.32414 17.0673 8.99828 17.7873 9.50828C18.074 9.71345 18.1207 10.0828 17.8873 10.3348C17.754 10.4755 17.5607 10.5517 17.3673 10.5517C17.2207 10.5517 17.074 10.5107 16.9473 10.4228C15.9073 9.68414 15.334 8.68759 15.334 7.62069ZM22.0007 14.069H18.0007C17.634 14.069 17.334 13.8052 17.334 13.4828C17.334 13.1603 17.634 12.8966 18.0007 12.8966H19.334V9.27379C18.5607 9.03345 18.0007 8.38862 18.0007 7.62069C18.0007 6.65345 18.9007 5.86207 20.0007 5.86207C21.1007 5.86207 22.0007 6.65345 22.0007 7.62069C22.0007 8.38276 21.4407 9.02759 20.6673 9.27379V12.8966H22.0007C22.3673 12.8966 22.6673 13.1603 22.6673 13.4828C22.6673 13.8052 22.3673 14.069 22.0007 14.069ZM23.054 10.4228C22.9273 10.5107 22.7807 10.5517 22.634 10.5517C22.4407 10.5517 22.2473 10.4755 22.114 10.3348C21.8807 10.0828 21.9273 9.71345 22.214 9.50828C22.934 8.99241 23.334 8.32414 23.334 7.62069C23.334 6.91724 22.934 6.2431 22.214 5.7331C21.9273 5.52793 21.8807 5.15862 22.114 4.90655C22.3473 4.65448 22.7673 4.61345 23.054 4.81862C24.094 5.55724 24.6673 6.55379 24.6673 7.62069C24.6673 8.68759 24.094 9.68414 23.054 10.4228ZM24.9673 12.1638C24.8407 12.2634 24.6807 12.3162 24.5207 12.3162C24.3407 12.3162 24.154 12.2517 24.0273 12.1228C23.7807 11.8824 23.8007 11.5131 24.074 11.2962C25.314 10.3114 26.0007 9.01 26.0007 7.62655C26.0007 6.2431 25.314 4.94172 24.074 3.9569C23.8007 3.74 23.7807 3.37069 24.0273 3.13035C24.274 2.89 24.694 2.87241 24.9673 3.08931C26.494 4.2969 27.334 5.90897 27.334 7.62655C27.334 9.34414 26.494 10.9562 24.9673 12.1638Z" fill="#1447E6"/>
<path d="M26.666 20.5169C26.666 20.8393 26.966 21.1031 27.3327 21.1031H31.3327C31.6993 21.1031 31.9993 20.8393 31.9993 20.5169C31.9993 20.1945 31.6993 19.9307 31.3327 19.9307H27.3327C26.966 19.9307 26.666 20.1945 26.666 20.5169Z" fill="#1447E6"/>
<path d="M8.66667 21.1031H24.6667C25.0333 21.1031 25.3333 20.8393 25.3333 20.5169C25.3333 20.1945 25.0333 19.9307 24.6667 19.9307H8.66667C8.3 19.9307 8 20.1945 8 20.5169C8 20.8393 8.3 21.1031 8.66667 21.1031Z" fill="#1447E6"/>
<path d="M8.66667 23.4482C8.3 23.4482 8 23.712 8 24.0344C8 24.3569 8.3 24.6207 8.66667 24.6207H12.6667C13.0333 24.6207 13.3333 24.3569 13.3333 24.0344C13.3333 23.712 13.0333 23.4482 12.6667 23.4482H8.66667Z" fill="#1447E6"/>
<path d="M31.3327 23.4482H15.3327C14.966 23.4482 14.666 23.712 14.666 24.0344C14.666 24.3569 14.966 24.6207 15.3327 24.6207H31.3327C31.6993 24.6207 31.9993 24.3569 31.9993 24.0344C31.9993 23.712 31.6993 23.4482 31.3327 23.4482Z" fill="#1447E6"/>
</svg>
