<svg width="60" height="60" viewBox="0 0 60 60" fill="none" xmlns="http://www.w3.org/2000/svg">
<rect x="0.5" y="0.5" width="59" height="59" rx="5.5" fill="#1B1662" stroke="white"/>
<path fill-rule="evenodd" clip-rule="evenodd" d="M18.9587 19.1735V22.6668C18.9587 23.8714 20.4441 24.5087 21.3244 23.6368C21.5761 23.3876 21.7323 23.045 21.7323 22.6668L21.7311 19.1735H18.9587ZM19.8465 31.4392C23.6268 31.4392 26.693 34.4746 26.693 38.2196C26.693 41.9634 23.628 45 19.8465 45C16.065 45 13 41.9646 13 38.2196C13 34.4758 16.065 31.4392 19.8465 31.4392ZM17.4399 36.1518L16.6935 42.3957H22.9982L22.2518 36.1518H21.4917V35.0983C21.4917 34.3112 20.8433 33.669 20.0485 33.669H19.6418C18.8471 33.669 18.1986 34.3112 18.1986 35.0983V36.1518H17.4399ZM18.9575 36.1518H20.7355V35.0983C20.7355 34.725 20.4255 34.4192 20.0498 34.4192C19.6952 34.4192 19.4101 34.3714 19.1596 34.6194C19.0356 34.7422 18.9575 34.9129 18.9575 35.0983L18.9575 36.1518ZM18.867 38.211H20.8248C21.0343 38.211 21.2029 38.0428 21.2029 37.8365C21.2029 37.629 21.0331 37.462 20.8248 37.462H18.867C18.6574 37.462 18.4888 37.6303 18.4888 37.8365C18.4888 38.0441 18.6587 38.211 18.867 38.211ZM42.7012 24.4437V38.9366C42.7012 40.1448 41.7031 41.1321 40.4843 41.1321H40.033V33.7513C40.033 33.1115 39.5035 32.5872 38.8576 32.5872H35.9178C35.2718 32.5872 34.7424 33.1115 34.7424 33.7513V41.1311H26.8605C27.8512 38.792 27.5784 36.1139 26.1637 34.0276H30.7376C31.4741 34.0276 32.0767 33.4308 32.0767 32.7014V27.7826C32.0767 27.0532 31.4741 26.4564 30.7376 26.4564H23.1795C22.443 26.4564 21.8404 27.0532 21.8404 27.7826V30.9518C20.9774 30.7197 20.0797 30.6411 19.1722 30.7197V24.4391C20.0996 25.0322 21.399 24.8848 22.1082 23.873C22.8174 24.8799 24.3759 25.1722 25.3915 24.1665C25.4832 24.0756 25.5663 23.9774 25.6395 23.873C26.3487 24.8799 27.9072 25.1722 28.9227 24.1665C29.0145 24.0756 29.0975 23.9774 29.1707 23.873C29.8799 24.8799 31.4384 25.1722 32.454 24.1665C32.5457 24.0756 32.6288 23.9774 32.702 23.873C33.4112 24.8799 34.9697 25.1722 35.9852 24.1665C36.077 24.0756 36.16 23.9774 36.2332 23.873C36.9424 24.8799 38.5009 25.1722 39.5165 24.1665C39.6082 24.0756 39.6913 23.9774 39.7644 23.873C40.3931 24.7731 41.7049 25.1009 42.7017 24.444L42.7012 24.4437ZM43 18.4234L40.6418 15.4015C40.4372 15.14 40.1495 15 39.816 15H22.0573C21.7238 15 21.4361 15.14 21.2315 15.4015L18.8733 18.4234H43ZM40.1408 19.1736V22.6669C40.1408 23.8715 41.6262 24.5088 42.5065 23.637C42.7582 23.3877 42.9145 23.0451 42.9145 22.6669L42.9132 19.1736H40.1408ZM36.6109 19.1736V22.6669C36.6109 23.8715 38.0963 24.5088 38.9766 23.637C39.2283 23.3877 39.3846 23.0451 39.3846 22.6669L39.3833 19.1736H36.6109ZM33.0798 19.1736V22.6669C33.0798 23.8715 34.5652 24.5088 35.4455 23.637C35.6972 23.3877 35.8534 23.0451 35.8534 22.6669V19.1736H33.0798ZM29.5499 19.1736V22.6669C29.5499 23.8715 31.0353 24.5088 31.9156 23.637C32.1673 23.3877 32.3235 23.0451 32.3235 22.6669L32.3223 19.1736H29.5499ZM26.02 19.1736V22.6669C26.02 23.8715 27.5054 24.5088 28.3857 23.637C28.6374 23.3877 28.7936 23.0451 28.7936 22.6669L28.7924 19.1736H26.02ZM22.4888 19.1736V22.6669C22.4888 23.8715 23.9742 24.5088 24.8545 23.637C25.1062 23.3877 25.2624 23.0451 25.2624 22.6669V19.1736H22.4888Z" fill="white"/>
</svg>
