<svg width="40" height="40" viewBox="0 0 40 40" fill="none" xmlns="http://www.w3.org/2000/svg">
<path fill-rule="evenodd" clip-rule="evenodd" d="M31.8051 22.0628C29.3233 22.0628 28.0781 25.0698 29.833 26.8243C30.1563 27.1476 30.1563 27.6718 29.833 27.9951L28.0509 29.7773C27.7276 30.1006 27.2034 30.1006 26.8801 29.7773C25.1252 28.0224 22.1188 29.2676 22.1188 31.7495C22.1188 32.207 21.7479 32.5775 21.2908 32.5775H18.7704C18.3134 32.5775 17.9424 32.207 17.9424 31.7495C17.9424 29.2644 14.9378 28.0201 13.1811 29.7773C12.8578 30.1006 12.3336 30.1006 12.0103 29.7773L10.2282 27.9951C9.9049 27.6718 9.9049 27.1476 10.2282 26.8243C11.9831 25.0693 10.7379 22.0628 8.25613 22.0628C7.79859 22.0628 7.42812 21.6919 7.42812 21.2348V18.7143C7.42812 18.2572 7.79859 17.8863 8.25613 17.8863C10.7379 17.8863 11.9831 14.8798 10.2282 13.1248C9.9049 12.8015 9.9049 12.2773 10.2282 11.954L12.0103 10.1718C12.3336 9.84847 12.8578 9.84847 13.1811 10.1718C14.936 11.9267 17.9424 10.6815 17.9424 8.19964C17.9424 7.74209 18.3134 7.3716 18.7704 7.3716H21.2908C21.7479 7.3716 22.1188 7.74209 22.1188 8.19964C22.1188 10.6815 25.1252 11.9267 26.8801 10.1718C27.2034 9.84847 27.7276 9.84847 28.0509 10.1718L29.833 11.954C30.1563 12.2773 30.1563 12.8015 29.833 13.1248C28.0781 14.8798 29.3233 17.8863 31.8051 17.8863C32.2626 17.8863 32.6331 18.2572 32.6331 18.7143V21.2348C32.6331 21.6919 32.2626 22.0628 31.8051 22.0628ZM3.16154 27.3716C1.78802 24.2268 1.32458 20.755 1.80887 17.3734C2.27684 14.1057 3.63132 10.9237 5.90677 8.20508C9.16486 4.31201 13.6899 2.10812 18.3723 1.69229C22.7808 1.30094 27.3308 2.49312 31.0963 5.35092L28.8145 5.55362C28.3688 5.59216 28.0391 5.98487 28.0777 6.43019C28.1162 6.87595 28.5089 7.20563 28.9542 7.16708L33.2253 6.78798C33.6711 6.74943 34.0007 6.35672 33.9622 5.91141L33.5831 1.64014C33.5445 1.19437 33.1519 0.864699 32.7066 0.903244C32.2608 0.94179 31.9311 1.3345 31.9697 1.77981L32.1787 4.13515C28.0641 0.970812 23.071 -0.350611 18.2326 0.0788286C13.1322 0.531849 8.20535 2.92891 4.66203 7.163C2.18615 10.1215 0.711962 13.586 0.202275 17.1444C-0.324189 20.8198 0.180509 24.5964 1.67556 28.0192C1.85467 28.4296 2.33216 28.6173 2.74254 28.4386C3.15292 28.26 3.34065 27.782 3.16154 27.3716ZM11.0979 32.7589L6.82729 33.138C6.38154 33.1765 6.05188 33.5692 6.09042 34.0146L6.46951 38.2863C6.50805 38.732 6.90075 39.0617 7.34604 39.0232C7.79179 38.9846 8.12146 38.5919 8.08291 38.1466L7.88475 35.9146C11.9876 39.0427 16.9534 40.3487 21.7664 39.9211C26.8674 39.468 31.7937 37.071 35.3375 32.8369C37.8134 29.8784 39.288 26.4139 39.7977 22.855C40.3242 19.1796 39.8195 15.4031 38.3244 11.9803C38.1453 11.5699 37.6678 11.3821 37.2575 11.5608C36.8471 11.7399 36.6593 12.2174 36.838 12.6278C38.2115 15.7722 38.675 19.2445 38.1907 22.6256C37.7227 25.8933 36.3678 29.0758 34.0928 31.7943C30.8347 35.6874 26.3096 37.8913 21.6272 38.3071C17.187 38.7012 12.6034 37.4891 8.82205 34.5868L11.2385 34.3723C11.6843 34.3338 12.0139 33.9411 11.9754 33.4958C11.9359 33.0505 11.5437 32.7203 11.0979 32.7589ZM20.0302 14.6952C17.1144 14.6952 14.751 17.0587 14.751 19.9745C14.751 22.8904 17.1144 25.2539 20.0302 25.2539C22.9459 25.2539 25.3093 22.8899 25.3093 19.9745C25.3093 17.0592 22.9459 14.6952 20.0302 14.6952Z" fill="#1447E6"/>
</svg>
