<svg width="30" height="40" viewBox="0 0 30 40" fill="none" xmlns="http://www.w3.org/2000/svg">
<path d="M5.43144 8.95359H6.1932V3.55664H0C0 4.988 0.572239 6.36074 1.59083 7.37286C2.60942 8.38499 3.99093 8.95359 5.43144 8.95359Z" fill="#1447E6"/>
<path d="M23.8272 3.55664V8.95359H24.5704C26.0109 8.95359 27.3924 8.38499 28.411 7.37286C29.4296 6.36074 30.0018 4.988 30.0018 3.55664H23.8086H23.8272Z" fill="#1447E6"/>
<path d="M5.43144 17.7785H6.1932V12.3877H0C0.00164132 13.818 0.574605 15.1891 1.59302 16.1999C2.61143 17.2107 3.992 17.7785 5.43144 17.7785Z" fill="#1447E6"/>
<path d="M23.8272 17.7785H24.5704C26.0098 17.7785 27.3904 17.2107 28.4088 16.1999C29.4272 15.1891 30.0002 13.818 30.0018 12.3877H23.8086L23.8272 17.7785Z" fill="#1447E6"/>
<path d="M26.443 38.7694H16.8807V31.3848H13.1152V38.7694H3.55291C3.38866 38.7694 3.23113 38.8343 3.11499 38.9497C2.99884 39.0651 2.93359 39.2216 2.93359 39.3848C2.93359 39.548 2.99884 39.7045 3.11499 39.82C3.23113 39.9354 3.38866 40.0002 3.55291 40.0002H26.4678C26.632 40.0002 26.7895 39.9354 26.9057 39.82C27.0218 39.7045 27.0871 39.548 27.0871 39.3848C27.0871 39.2216 27.0218 39.0651 26.9057 38.9497C26.7895 38.8343 26.632 38.7694 26.4678 38.7694H26.443Z" fill="#1447E6"/>
<path d="M6.1932 26.6094V21.2124H0C0 22.6438 0.572239 24.0165 1.59083 25.0286C2.60942 26.0407 3.99093 26.6094 5.43144 26.6094H6.1932Z" fill="#1447E6"/>
<path d="M23.8272 26.6094H24.5704C25.2836 26.6094 25.9899 26.4698 26.6489 26.1985C27.3079 25.9273 27.9066 25.5298 28.411 25.0286C28.9153 24.5275 29.3154 23.9325 29.5884 23.2777C29.8613 22.6229 30.0018 21.9211 30.0018 21.2124H23.8086L23.8272 26.6094Z" fill="#1447E6"/>
<path d="M8.77981 30.154H21.2096C21.5742 30.154 21.9239 30.0101 22.1818 29.7539C22.4396 29.4977 22.5844 29.1502 22.5844 28.7879V1.36618C22.5853 1.18654 22.5503 1.00852 22.4815 0.842406C22.4127 0.676288 22.3114 0.525359 22.1836 0.398337C22.0557 0.271315 21.9039 0.170715 21.7367 0.102347C21.5695 0.03398 21.3903 -0.000800696 21.2096 1.39875e-05H8.77981C8.41947 0.0064663 8.07609 0.153244 7.82359 0.408753C7.57108 0.664262 7.42963 1.00807 7.42969 1.36618V28.8002C7.43441 29.1557 7.57779 29.4955 7.82963 29.748C8.08147 30.0005 8.42211 30.1461 8.77981 30.154ZM15.0597 3.07695C15.9251 3.06696 16.7598 3.39573 17.3832 3.9922C18.0067 4.58868 18.3689 5.40497 18.3917 6.26466C18.3917 7.12642 18.0471 7.95288 17.4339 8.56223C16.8206 9.17158 15.9889 9.51391 15.1216 9.51391C14.2544 9.51391 13.4226 9.17158 12.8094 8.56223C12.1962 7.95288 11.8516 7.12642 11.8516 6.26466C11.866 5.42368 12.2086 4.62112 12.8071 4.02637C13.4057 3.43162 14.2134 3.0912 15.0597 3.07695ZM15.0597 11.8462C15.7116 11.8341 16.3522 12.0158 16.8993 12.3681C17.4465 12.7204 17.8751 13.2272 18.1303 13.8234C18.3854 14.4195 18.4554 15.0779 18.3312 15.7139C18.207 16.3498 17.8943 16.9344 17.4333 17.3925C16.9723 17.8506 16.384 18.1613 15.744 18.2847C15.1039 18.4081 14.4414 18.3385 13.8414 18.085C13.2414 17.8315 12.7314 17.4056 12.3769 16.8619C12.0223 16.3182 11.8394 15.6817 11.8516 15.0339C11.8704 14.1932 12.2141 13.3919 12.8114 12.7962C13.4086 12.2004 14.2137 11.8558 15.0597 11.8339V11.8462ZM15.0597 20.6155C15.7116 20.6034 16.3522 20.7851 16.8993 21.1374C17.4465 21.4897 17.8751 21.9965 18.1303 22.5926C18.3854 23.1888 18.4554 23.8472 18.3312 24.4831C18.207 25.1191 17.8943 25.7037 17.4333 26.1618C16.9723 26.6198 16.384 26.9305 15.744 27.0539C15.1039 27.1773 14.4414 27.1078 13.8414 26.8543C13.2414 26.6008 12.7314 26.1748 12.3769 25.6312C12.0223 25.0875 11.8394 24.4509 11.8516 23.8032C11.8704 22.9625 12.2141 22.1612 12.8114 21.5655C13.4086 20.9697 14.2137 20.6251 15.0597 20.6032V20.6155Z" fill="#1447E6"/>
</svg>
