<svg width="40" height="29" viewBox="0 0 40 29" fill="none" xmlns="http://www.w3.org/2000/svg">
<path d="M10.6134 25.5759C10.4939 29.3667 5.01987 29.3667 4.89844 25.5759C5.01987 21.785 10.4939 21.7869 10.6134 25.5759Z" fill="#1447E6"/>
<path d="M33.879 25.5759C33.7576 29.3667 28.2855 29.3648 28.1641 25.5759C28.2855 21.785 33.7576 21.7869 33.879 25.5759Z" fill="#1447E6"/>
<path d="M35.7118 6.13948H26.9403V15.7572C26.9403 16.5465 26.3009 17.1859 25.5116 17.1859C24.7223 17.1859 24.0829 16.5465 24.0829 15.7572V0H0V24.1494H2.22935C3.72254 18.4612 11.7922 18.4689 13.2833 24.1494H25.4948C26.988 18.4631 35.0556 18.4689 36.5487 24.1494H40V14.3782L35.712 6.1419L35.7118 6.13948ZM34.6948 17.1857H30.4088C29.6195 17.1857 28.9801 16.5463 28.9801 15.757V9.61897C29.0275 7.73681 31.7881 7.73302 31.8375 9.61897V14.3281H34.6948C36.5789 14.3756 36.5789 17.1383 34.6948 17.1857Z" fill="#1447E6"/>
</svg>
