<svg width="60" height="60" viewBox="0 0 60 60" fill="none" xmlns="http://www.w3.org/2000/svg">
<rect x="0.5" y="0.5" width="59" height="59" rx="5.5" fill="#1B1662" stroke="white"/>
<path d="M46.2517 37.861C46.2714 37.6916 46.2813 37.5534 46.2813 37.4153C46.2813 36.861 46.1497 36.338 45.9063 35.8577C45.7418 35.5387 45.5296 35.2492 45.2813 34.9992C44.6628 34.3824 43.8092 33.9992 42.8651 33.9992C41.9342 33.9992 41.0905 34.3709 40.4622 34.986C40.2007 35.2492 39.9885 35.5387 39.8175 35.8709C39.5823 36.338 39.4491 36.8611 39.4491 37.4153C39.4491 37.5535 39.4573 37.6916 39.477 37.8561C39.5774 38.6275 39.9293 39.3133 40.4491 39.8331C41.0675 40.4498 41.9228 40.8331 42.8652 40.8331C43.8093 40.8331 44.6645 40.4499 45.2813 39.8331C45.7994 39.3133 46.1514 38.6275 46.2517 37.8627L46.2517 37.861ZM47.2335 37.4202H49.3536C49.5214 37.4202 49.676 37.3561 49.7993 37.2393C49.9276 37.1126 50 36.9498 50 36.7705C50 36.5929 49.9276 36.4301 49.8092 36.3133C49.6924 36.1965 49.5296 36.1225 49.352 36.1225H47.0379C47.1629 36.5304 47.2319 36.963 47.2319 37.4186L47.2335 37.4202ZM46.6151 35.1719H48.2828V30.0831L43.37 24.7231H37.6332V35.1719H39.1135C39.2977 34.8627 39.5214 34.5781 39.7895 34.31C40.5921 33.5222 41.6727 33.0452 42.8635 33.0452C44.0691 33.0452 45.1611 33.5354 45.9506 34.3249C46.2055 34.5781 46.4276 34.8627 46.6134 35.1719H46.6151ZM38.6893 36.1242H25.8636C25.964 36.4909 26.0182 36.8775 26.0182 37.2771L26.0149 37.4202L38.4953 37.4169C38.4953 36.9646 38.5626 36.532 38.6893 36.1242ZM24.7651 35.8758C24.5727 35.4679 24.3523 35.1554 24.0776 34.8742C23.446 34.2459 22.5924 33.8627 21.6484 33.8627C20.7043 33.8627 19.849 34.2459 19.2323 34.8611C18.9559 35.139 18.7257 35.463 18.5332 35.8759C18.3408 36.3035 18.2339 36.7788 18.2339 37.2788C18.2339 37.4548 18.247 37.6275 18.2734 37.7953L18.2832 37.8528C18.4033 38.5666 18.7454 39.2048 19.2339 39.6949C19.8523 40.3117 20.7075 40.6949 21.65 40.6949C22.5941 40.6949 23.4477 40.3117 24.0661 39.6949C24.5562 39.2064 24.8983 38.5683 25.0184 37.8545L25.0283 37.7969C25.0546 37.6275 25.0677 37.4548 25.0677 37.2804C25.0677 36.7805 24.9608 36.3068 24.7684 35.8792L24.7651 35.8758ZM25.4756 35.1719H36.681V20.5749C36.681 20.1867 36.5232 19.8348 36.2666 19.5798C36.0116 19.3249 35.6597 19.167 35.2715 19.167H17.6366C17.2485 19.167 16.8965 19.3249 16.6416 19.5798C16.3866 19.8348 16.2287 20.1867 16.2287 20.5749V35.1719H17.8192C18.0182 34.81 18.2665 34.4795 18.5577 34.19C19.3504 33.3989 20.4425 32.9087 21.6464 32.9087C22.852 32.9087 23.9458 33.3989 24.7501 34.2031C25.0412 34.5025 25.2815 34.8216 25.4756 35.1719ZM17.4327 36.1242H15.1581C14.9804 36.1242 14.8176 36.1982 14.7009 36.3149C14.5841 36.4317 14.5101 36.5946 14.5101 36.7722C14.5101 36.9498 14.5841 37.1126 14.7009 37.2294C14.816 37.3478 14.9788 37.4202 15.1581 37.4202H17.2814L17.2781 37.2771C17.2781 36.8774 17.3307 36.4909 17.4327 36.1242ZM10.477 29.9233C10.2138 29.9233 10 29.7095 10 29.4464C10 29.1832 10.2138 28.9694 10.477 28.9694H13.2582C13.5214 28.9694 13.7352 29.1832 13.7352 29.4464C13.7352 29.7095 13.5214 29.9233 13.2582 29.9233H10.477ZM10.477 24.8956C10.2138 24.8956 10 24.6818 10 24.4186C10 24.1555 10.2138 23.9417 10.477 23.9417H13.2582C13.5214 23.9417 13.7352 24.1555 13.7352 24.4186C13.7352 24.6818 13.5214 24.8956 13.2582 24.8956H10.477ZM11.7335 27.4087C11.4704 27.4087 11.2566 27.1949 11.2566 26.9318C11.2566 26.6686 11.4704 26.4548 11.7335 26.4548H14.5148C14.778 26.4548 14.9918 26.6686 14.9918 26.9318C14.9918 27.1949 14.778 27.4087 14.5148 27.4087H11.7335ZM38.8913 31.389V26.4581C38.8913 26.1949 39.1051 25.9811 39.3666 25.9811H42.6018C42.7301 25.9827 42.8584 26.0354 42.9521 26.1373L46.865 30.4072C46.962 30.4944 47.0212 30.6194 47.0212 30.7592V31.3875C47.0212 31.6506 46.8074 31.8644 46.5443 31.8644H39.3666C39.1034 31.8644 38.8913 31.6506 38.8913 31.3875L38.8913 31.389Z" fill="white"/>
</svg>
