<svg width="406" height="101" viewBox="0 0 406 101" fill="none" xmlns="http://www.w3.org/2000/svg">
<g clip-path="url(#clip0_836_51)">
<path d="M79.7489 50.1921C80.9706 48.8339 82.0997 47.4708 83.1363 46.1028C89.4724 37.7196 91.3245 30.2576 88.3368 25.0912C85.3491 19.9248 77.965 17.7802 67.5396 19.0816C65.8434 19.2928 64.1002 19.5917 62.3098 19.9784C61.7444 18.2433 61.1352 16.5666 60.4723 15.0069C56.3831 5.32723 50.8414 -0.00488281 44.8756 -0.00488281C43.004 0.00721811 41.1684 0.51149 39.5532 1.45731C40.0681 1.88687 40.5194 2.38738 40.8936 2.94386C42.121 2.29425 43.4869 1.94986 44.8756 1.93983C50.0128 1.93983 54.916 6.84791 58.6836 15.7527C59.3009 17.2278 59.8744 18.7794 60.4041 20.4073C55.0811 21.7315 49.8862 23.5257 44.8805 25.7687C39.8706 23.5279 34.6726 21.7338 29.3472 20.4073C29.8784 18.7891 30.4487 17.2295 31.0725 15.7575C31.3065 15.197 31.5599 14.656 31.7939 14.1296C31.192 13.882 30.6263 13.5541 30.1124 13.1548C29.8297 13.7592 29.5519 14.3782 29.2789 15.0264C28.6112 16.5959 28.0019 18.2627 27.4414 19.9979C25.6511 19.608 23.9078 19.309 22.2117 19.1011C11.7814 17.8046 4.39731 19.9394 1.40957 25.1107C-1.57817 30.282 0.273927 37.7391 6.61009 46.1224C7.64337 47.4871 8.77251 48.8501 9.9975 50.2116C8.76926 51.5617 7.63849 52.9313 6.61009 54.2911C0.273927 62.6743 -1.5733 70.1364 1.40957 75.3028C2.93025 77.9348 5.58169 79.7722 9.20792 80.7811C9.20792 80.6301 9.20792 80.4741 9.20792 80.2937C9.20845 79.7864 9.25906 79.2802 9.35901 78.7828C6.43463 77.9055 4.33393 76.3946 3.12519 74.3036C0.556605 69.8537 2.35511 63.152 8.18925 55.4365C9.16404 54.1595 10.2119 52.8825 11.3524 51.6202C15.149 55.5689 19.2923 59.169 23.7323 62.377C24.2875 67.8387 25.3314 73.2396 26.8517 78.5147C25.9224 78.7097 25.0028 78.8819 24.093 79.0314C24.166 79.4449 24.2019 79.8641 24.2002 80.284C24.2014 80.52 24.19 80.7559 24.1661 80.9907C25.2384 80.825 26.3269 80.6219 27.4317 80.3815C27.9922 82.1166 28.6014 83.7933 29.2692 85.3529C33.3584 95.0326 38.8953 100.365 44.8659 100.365C50.8365 100.365 56.3782 95.0326 60.4626 85.3529C61.1254 83.7835 61.7347 82.1117 62.3001 80.3766C63.9328 80.7373 65.5315 81.0102 67.0912 81.2198C67.0518 80.9094 67.0323 80.5968 67.0327 80.284C67.0324 79.9383 67.0569 79.593 67.1058 79.2507C65.7281 79.0622 64.3195 78.8169 62.8801 78.5147C64.3982 73.241 65.4405 67.8418 65.9945 62.3819C70.4551 59.1858 74.6196 55.5955 78.4378 51.6543C79.5783 52.9167 80.6359 54.1936 81.601 55.4706C87.4497 63.1861 89.2385 69.8878 86.6699 74.3377C85.5437 76.1804 83.8253 77.5861 81.7959 78.3246C81.9735 78.9677 82.0653 79.6315 82.0689 80.2986C84.9153 79.2312 87.0403 77.5594 88.3368 75.3125C91.3245 70.1461 89.4773 62.6841 83.1363 54.3009C82.1079 52.9167 80.9771 51.5471 79.7489 50.1921ZM60.9743 22.274C62.3259 26.919 63.291 31.6678 63.8597 36.4719C61.2814 34.6831 58.5666 32.9626 55.7494 31.3396C52.9323 29.7166 50.0859 28.2154 47.2444 26.875C51.6879 24.9709 56.2799 23.4337 60.9743 22.2789V22.274ZM28.7574 22.274C33.4518 23.4311 38.0437 24.9699 42.4874 26.875C39.6507 28.2154 36.8043 29.7068 33.9823 31.3396C31.1603 32.9724 28.4503 34.6831 25.872 36.4719C26.441 31.6695 27.4061 26.9223 28.7574 22.2789V22.274ZM23.4886 59.7743C19.6147 56.8842 15.9859 53.6793 12.6392 50.1921C15.9885 46.7059 19.6189 43.5011 23.4935 40.6099C23.2352 43.739 23.1036 46.9461 23.1036 50.197C23.1036 53.4479 23.2352 56.6647 23.4935 59.7938L23.4886 59.7743ZM23.7323 37.9877C19.2797 41.197 15.1235 44.7986 11.3135 48.7494C10.173 47.4887 9.11854 46.215 8.15025 44.9282C2.30149 37.2127 0.517635 30.5159 3.08622 26.066C5.13328 22.5128 9.81227 20.6559 16.4945 20.6559C18.3214 20.6627 20.1462 20.7831 21.9582 21.0165C23.5471 21.2115 25.1799 21.5039 26.8322 21.8402C25.3171 27.1256 24.2797 32.5363 23.7323 38.0072V37.9877ZM28.7525 78.0956C27.405 73.4532 26.4416 68.7078 25.872 63.9075C28.4503 65.6913 31.1651 67.4118 33.9823 69.0349C36.7994 70.6579 39.6458 72.1591 42.4825 73.4994C38.0397 75.4069 33.4476 76.9458 28.7525 78.1005V78.0956ZM58.6738 84.617C54.9062 93.5266 50.003 98.4444 44.8659 98.4444C39.7287 98.4444 34.8304 93.5363 31.0628 84.6316C30.4389 83.1694 29.8687 81.5951 29.3374 79.9769C32.4296 79.2209 35.4772 78.2934 38.4663 77.1988C40.5816 76.4222 42.7148 75.5595 44.8659 74.6107C49.8716 76.8536 55.0665 78.6478 60.3894 79.972C59.8631 81.5902 59.2912 83.1401 58.6738 84.6218V84.617ZM60.9792 78.0956C56.2824 76.9458 51.6885 75.4101 47.2444 73.5043C50.081 72.164 52.9274 70.6725 55.7446 69.0397C58.5617 67.407 61.2765 65.6962 63.8549 63.9123C63.2869 68.7126 62.3251 73.4579 60.9792 78.1005V78.0956ZM64.1424 61.3243C61.218 63.4347 58.0597 65.4525 54.7747 67.3485C51.4896 69.2445 48.1655 70.9552 44.8659 72.4515C41.5662 70.9552 38.2519 69.2493 34.962 67.3485C31.74 65.4975 28.6135 63.4852 25.5942 61.3194C25.2384 57.7127 25.0532 53.9841 25.0532 50.1824C25.0532 46.3807 25.2384 42.6667 25.5942 39.06C28.5186 36.9447 31.672 34.922 34.962 33.0211C38.2519 31.1203 41.5711 29.4193 44.8707 27.923C48.1704 29.4193 51.4896 31.1251 54.7795 33.0211C58.0695 34.9171 61.2034 36.9447 64.1473 39.0551C64.4982 42.6618 64.6883 46.366 64.6883 50.1824C64.6883 53.9987 64.4933 57.7224 64.1424 61.3291V61.3243ZM70.152 56.6842C68.8994 57.7273 67.5932 58.7654 66.2528 59.7841C66.5112 56.655 66.6476 53.4479 66.6476 50.1824C66.6476 46.9168 66.5112 43.7195 66.2577 40.5904C70.1268 43.4899 73.7522 46.7012 77.0974 50.1921C74.9094 52.4882 72.5904 54.6559 70.152 56.6842ZM65.9994 38.0072C65.4458 32.5457 64.4035 27.1448 62.8849 21.8695C64.5567 21.5186 66.1895 21.2407 67.7589 21.0458C69.5709 20.8124 71.3957 20.6919 73.2226 20.6851C79.9048 20.6851 84.5838 22.5421 86.6309 26.0952C89.1995 30.5451 87.401 37.242 81.562 44.9575C80.5872 46.2377 79.5328 47.5114 78.3988 48.7786C74.5951 44.8256 70.4454 41.2208 65.9994 38.0072Z" fill="url(#paint0_linear_836_51)"/>
<path d="M16.6833 74.7473C15.3893 74.7466 14.1354 75.1968 13.1374 76.0205C12.1393 76.8442 11.4595 77.9899 11.2147 79.2606C11.1502 79.6046 11.1176 79.9537 11.1172 80.3037C11.1159 80.6108 11.142 80.9174 11.1952 81.2199C11.4075 82.5143 12.0704 83.6921 13.067 84.545C14.0635 85.3979 15.3294 85.8711 16.6411 85.881C17.9527 85.8909 19.2257 85.4369 20.235 84.5991C21.2443 83.7614 21.925 82.5939 22.1568 81.3028C22.2156 80.973 22.245 80.6387 22.2445 80.3037C22.245 79.9767 22.2157 79.6504 22.1568 79.3289C21.9287 78.0435 21.255 76.8797 20.254 76.0418C19.253 75.2039 17.9887 74.7456 16.6833 74.7473Z" fill="url(#paint1_linear_836_51)"/>
<path d="M74.5368 74.7473C73.1996 74.7463 71.9069 75.2272 70.8954 76.1017C69.8839 76.9762 69.2214 78.186 69.0292 79.5092C68.9898 79.7722 68.9702 80.0378 68.9707 80.3037C68.9711 80.6935 69.012 81.0822 69.0926 81.4637C69.35 82.7771 70.0724 83.9536 71.1273 84.7774C72.1823 85.6011 73.4989 86.0167 74.8355 85.948C76.1722 85.8792 77.4392 85.3307 78.404 84.4032C79.3689 83.4756 79.9669 82.2312 80.0882 80.8983C80.1078 80.7039 80.1176 80.5087 80.1175 80.3134C80.1187 79.8499 80.0614 79.3881 79.9469 78.9389C79.6407 77.7375 78.9422 76.6727 77.9622 75.9134C76.9821 75.1541 75.7766 74.7437 74.5368 74.7473Z" fill="url(#paint2_linear_836_51)"/>
<path d="M30.9895 11.3564C31.4769 11.7931 32.038 12.1397 32.6466 12.38C33.3002 12.6434 33.9988 12.7775 34.7035 12.7747C35.7262 12.7746 36.7291 12.4927 37.6022 11.96C38.4752 11.4272 39.1846 10.6642 39.6525 9.75474C40.1203 8.84526 40.3285 7.82445 40.2542 6.80439C40.1799 5.78433 39.826 4.80447 39.2314 3.97236C38.7167 3.25183 38.0372 2.66484 37.2496 2.26041C36.4619 1.85597 35.5889 1.64581 34.7035 1.64747C33.5772 1.64813 32.4776 1.99043 31.55 2.62915C30.6224 3.26788 29.9104 4.17298 29.508 5.22489C29.1056 6.2768 29.0318 7.42604 29.2963 8.52078C29.5608 9.61553 30.1512 10.6043 30.9895 11.3564Z" fill="url(#paint3_linear_836_51)"/>
<path d="M55.1066 60.4309C60.7616 54.7759 60.7616 45.6073 55.1066 39.9523C49.4516 34.2973 40.283 34.2973 34.628 39.9523C28.973 45.6074 28.973 54.7759 34.628 60.4309C40.283 66.086 49.4516 66.086 55.1066 60.4309Z" fill="url(#paint4_linear_836_51)"/>
<path d="M116.769 36.195V41.947H109.837V62.1895H102.61V41.947H95.7518V36.195H116.769ZM133.048 41.3201C135.408 41.3201 137.276 42.119 138.652 43.7168C140.054 45.29 140.754 47.4285 140.754 50.1324V62.1895H133.527V51.0911C133.527 49.9112 133.22 48.9894 132.606 48.3257C131.991 47.6375 131.168 47.2933 130.135 47.2933C129.054 47.2933 128.206 47.6375 127.591 48.3257C126.976 48.9894 126.669 49.9112 126.669 51.0911V62.1895H119.442V34.9045H126.669V44.4542C127.308 43.5201 128.169 42.7704 129.25 42.2051C130.356 41.6151 131.622 41.3201 133.048 41.3201ZM164.483 51.6073C164.483 52.1727 164.446 52.738 164.372 53.3034H150.693C150.767 54.4341 151.074 55.2822 151.615 55.8475C152.18 56.3883 152.893 56.6587 153.753 56.6587C154.958 56.6587 155.818 56.1179 156.334 55.0364H164.04C163.721 56.4621 163.094 57.7403 162.16 58.871C161.25 59.9772 160.095 60.8498 158.694 61.4889C157.293 62.128 155.744 62.4476 154.048 62.4476C152.008 62.4476 150.189 62.0174 148.591 61.157C147.018 60.2967 145.777 59.0677 144.867 57.4699C143.982 55.8721 143.54 53.9917 143.54 51.8285C143.54 49.6654 143.982 47.7972 144.867 46.2241C145.752 44.6263 146.981 43.3972 148.554 42.5369C150.152 41.6766 151.983 41.2464 154.048 41.2464C156.088 41.2464 157.895 41.6643 159.468 42.5C161.041 43.3358 162.27 44.5403 163.155 46.1134C164.04 47.6621 164.483 49.4933 164.483 51.6073ZM157.108 49.8006C157.108 48.9157 156.813 48.2274 156.224 47.7358C155.634 47.2196 154.896 46.9615 154.011 46.9615C153.126 46.9615 152.401 47.2073 151.836 47.6989C151.27 48.166 150.902 48.8665 150.73 49.8006H157.108ZM192.122 36.195V41.947H181.725V46.519H189.394V52.0129H181.725V62.1895H174.498V36.195H192.122ZM216.33 41.5045V62.1895H209.067V59.2397C208.452 60.1738 207.604 60.9358 206.522 61.5258C205.441 62.0911 204.199 62.3738 202.798 62.3738C200.389 62.3738 198.484 61.5872 197.083 60.014C195.707 58.4163 195.018 56.2531 195.018 53.5246V41.5045H202.208V52.6028C202.208 53.7827 202.516 54.7168 203.13 55.4051C203.769 56.0688 204.605 56.4006 205.637 56.4006C206.694 56.4006 207.53 56.0688 208.145 55.4051C208.759 54.7168 209.067 53.7827 209.067 52.6028V41.5045H216.33ZM229.255 62.4476C227.387 62.4476 225.716 62.1403 224.241 61.5258C222.791 60.8867 221.635 60.0263 220.775 58.9448C219.939 57.8386 219.472 56.5973 219.374 55.2207H226.379C226.478 55.8844 226.785 56.4006 227.301 56.7693C227.817 57.138 228.457 57.3224 229.219 57.3224C229.809 57.3224 230.276 57.1995 230.62 56.9537C230.964 56.7079 231.136 56.3883 231.136 55.995C231.136 55.4788 230.853 55.0978 230.288 54.852C229.722 54.6062 228.788 54.3358 227.486 54.0408C226.011 53.7459 224.782 53.414 223.798 53.0453C222.815 52.6766 221.955 52.0744 221.217 51.2386C220.505 50.4028 220.148 49.2721 220.148 47.8464C220.148 46.6174 220.48 45.5112 221.144 44.528C221.807 43.5201 222.778 42.7213 224.057 42.1313C225.359 41.5414 226.92 41.2464 228.739 41.2464C231.443 41.2464 233.569 41.9101 235.118 43.2375C236.667 44.5648 237.564 46.3101 237.81 48.4732H231.283C231.16 47.8095 230.865 47.3056 230.398 46.9615C229.956 46.5928 229.354 46.4084 228.592 46.4084C228.002 46.4084 227.547 46.519 227.227 46.7403C226.933 46.9615 226.785 47.2688 226.785 47.6621C226.785 48.1537 227.068 48.5347 227.633 48.8051C228.198 49.0509 229.108 49.309 230.362 49.5794C231.861 49.8989 233.102 50.2554 234.086 50.6486C235.093 51.0419 235.966 51.6811 236.703 52.566C237.466 53.4263 237.847 54.6062 237.847 56.1056C237.847 57.3101 237.49 58.3917 236.777 59.3503C236.089 60.309 235.093 61.071 233.791 61.6364C232.512 62.1772 231.001 62.4476 229.255 62.4476ZM245.05 39.5872C243.772 39.5872 242.739 39.243 241.953 38.5548C241.19 37.8419 240.809 36.957 240.809 35.9C240.809 34.8185 241.19 33.9212 241.953 33.2084C242.739 32.4955 243.772 32.1391 245.05 32.1391C246.303 32.1391 247.311 32.4955 248.073 33.2084C248.86 33.9212 249.253 34.8185 249.253 35.9C249.253 36.957 248.86 37.8419 248.073 38.5548C247.311 39.243 246.303 39.5872 245.05 39.5872ZM248.626 41.5045V62.1895H241.399V41.5045H248.626ZM262.365 62.4476C260.3 62.4476 258.445 62.0174 256.798 61.157C255.175 60.2967 253.897 59.0677 252.963 57.4699C252.029 55.8721 251.562 53.9917 251.562 51.8285C251.562 49.69 252.029 47.8218 252.963 46.2241C253.922 44.6263 255.212 43.3972 256.835 42.5369C258.481 41.6766 260.337 41.2464 262.402 41.2464C264.467 41.2464 266.311 41.6766 267.933 42.5369C269.58 43.3972 270.87 44.6263 271.804 46.2241C272.763 47.8218 273.242 49.69 273.242 51.8285C273.242 53.9671 272.763 55.8475 271.804 57.4699C270.87 59.0677 269.58 60.2967 267.933 61.157C266.286 62.0174 264.43 62.4476 262.365 62.4476ZM262.365 56.1794C263.373 56.1794 264.209 55.8107 264.873 55.0732C265.561 54.3112 265.905 53.2297 265.905 51.8285C265.905 50.4274 265.561 49.3581 264.873 48.6207C264.209 47.8833 263.385 47.5146 262.402 47.5146C261.419 47.5146 260.595 47.8833 259.932 48.6207C259.268 49.3581 258.936 50.4274 258.936 51.8285C258.936 53.2542 259.256 54.3358 259.895 55.0732C260.534 55.8107 261.357 56.1794 262.365 56.1794ZM289.714 41.3201C292.099 41.3201 293.992 42.119 295.393 43.7168C296.794 45.29 297.494 47.4285 297.494 50.1324V62.1895H290.268V51.0911C290.268 49.9112 289.96 48.9894 289.346 48.3257C288.731 47.6375 287.908 47.2933 286.875 47.2933C285.794 47.2933 284.946 47.6375 284.331 48.3257C283.717 48.9894 283.409 49.9112 283.409 51.0911V62.1895H276.183V41.5045H283.409V44.4542C284.049 43.5201 284.909 42.7704 285.99 42.2051C287.072 41.6151 288.313 41.3201 289.714 41.3201ZM324.962 57.9492H315.744L314.343 62.1895H306.747L316.223 36.195H324.556L333.995 62.1895H326.363L324.962 57.9492ZM323.155 52.4185L320.353 44.0118L317.588 52.4185H323.155ZM343.578 44.3805C344.143 43.4218 344.942 42.6598 345.974 42.0944C347.007 41.5291 348.224 41.2464 349.625 41.2464C351.272 41.2464 352.759 41.6766 354.086 42.5369C355.438 43.3972 356.495 44.6263 357.257 46.2241C358.044 47.8218 358.437 49.69 358.437 51.8285C358.437 53.9671 358.044 55.8475 357.257 57.4699C356.495 59.0677 355.438 60.2967 354.086 61.157C352.759 62.0174 351.272 62.4476 349.625 62.4476C348.224 62.4476 347.007 62.1649 345.974 61.5995C344.967 61.0341 344.168 60.2721 343.578 59.3135V72.071H336.351V41.5045H343.578V44.3805ZM351.1 51.8285C351.1 50.4766 350.731 49.4319 349.993 48.6945C349.281 47.9324 348.396 47.5514 347.339 47.5514C346.282 47.5514 345.384 47.9324 344.647 48.6945C343.934 49.4565 343.578 50.5012 343.578 51.8285C343.578 53.1805 343.934 54.2375 344.647 54.9995C345.384 55.7615 346.282 56.1425 347.339 56.1425C348.396 56.1425 349.281 55.7615 349.993 54.9995C350.731 54.2129 351.1 53.1559 351.1 51.8285ZM368.639 44.3805C369.204 43.4218 370.003 42.6598 371.036 42.0944C372.068 41.5291 373.285 41.2464 374.686 41.2464C376.333 41.2464 377.82 41.6766 379.147 42.5369C380.499 43.3972 381.556 44.6263 382.318 46.2241C383.105 47.8218 383.498 49.69 383.498 51.8285C383.498 53.9671 383.105 55.8475 382.318 57.4699C381.556 59.0677 380.499 60.2967 379.147 61.157C377.82 62.0174 376.333 62.4476 374.686 62.4476C373.285 62.4476 372.068 62.1649 371.036 61.5995C370.028 61.0341 369.229 60.2721 368.639 59.3135V72.071H361.412V41.5045H368.639V44.3805ZM376.161 51.8285C376.161 50.4766 375.792 49.4319 375.055 48.6945C374.342 47.9324 373.457 47.5514 372.4 47.5514C371.343 47.5514 370.446 47.9324 369.708 48.6945C368.995 49.4565 368.639 50.5012 368.639 51.8285C368.639 53.1805 368.995 54.2375 369.708 54.9995C370.446 55.7615 371.343 56.1425 372.4 56.1425C373.457 56.1425 374.342 55.7615 375.055 54.9995C375.792 54.2129 376.161 53.1559 376.161 51.8285ZM395.286 62.4476C393.417 62.4476 391.746 62.1403 390.271 61.5258C388.821 60.8867 387.665 60.0263 386.805 58.9448C385.969 57.8386 385.502 56.5973 385.404 55.2207H392.41C392.508 55.8844 392.815 56.4006 393.331 56.7693C393.848 57.138 394.487 57.3224 395.249 57.3224C395.839 57.3224 396.306 57.1995 396.65 56.9537C396.994 56.7079 397.166 56.3883 397.166 55.995C397.166 55.4788 396.883 55.0978 396.318 54.852C395.753 54.6062 394.818 54.3358 393.516 54.0408C392.041 53.7459 390.812 53.414 389.829 53.0453C388.845 52.6766 387.985 52.0744 387.248 51.2386C386.535 50.4028 386.178 49.2721 386.178 47.8464C386.178 46.6174 386.51 45.5112 387.174 44.528C387.837 43.5201 388.808 42.7213 390.087 42.1313C391.389 41.5414 392.95 41.2464 394.769 41.2464C397.473 41.2464 399.6 41.9101 401.148 43.2375C402.697 44.5648 403.594 46.3101 403.84 48.4732H397.313C397.191 47.8095 396.896 47.3056 396.429 46.9615C395.986 46.5928 395.384 46.4084 394.622 46.4084C394.032 46.4084 393.577 46.519 393.258 46.7403C392.963 46.9615 392.815 47.2688 392.815 47.6621C392.815 48.1537 393.098 48.5347 393.663 48.8051C394.229 49.0509 395.138 49.309 396.392 49.5794C397.891 49.8989 399.132 50.2554 400.116 50.6486C401.124 51.0419 401.996 51.6811 402.734 52.566C403.496 53.4263 403.877 54.6062 403.877 56.1056C403.877 57.3101 403.52 58.3917 402.807 59.3503C402.119 60.309 401.124 61.071 399.821 61.6364C398.543 62.1772 397.031 62.4476 395.286 62.4476Z" fill="#28236B"/>
</g>
<defs>
<linearGradient id="paint0_linear_836_51" x1="6.17631" y1="90.0514" x2="72.6719" y2="21.5429" gradientUnits="userSpaceOnUse">
<stop stop-color="#EE3B5C"/>
<stop offset="0.49" stop-color="#F0685B"/>
<stop offset="1" stop-color="#F6CD55"/>
</linearGradient>
<linearGradient id="paint1_linear_836_51" x1="6.71604" y1="90.5731" x2="73.2068" y2="22.0694" gradientUnits="userSpaceOnUse">
<stop stop-color="#EE3B5C"/>
<stop offset="0.49" stop-color="#F0685B"/>
<stop offset="1" stop-color="#F6CD55"/>
</linearGradient>
<linearGradient id="paint2_linear_836_51" x1="36.515" y1="119.5" x2="103.006" y2="50.9917" gradientUnits="userSpaceOnUse">
<stop stop-color="#EE3B5C"/>
<stop offset="0.49" stop-color="#F0685B"/>
<stop offset="1" stop-color="#F6CD55"/>
</linearGradient>
<linearGradient id="paint3_linear_836_51" x1="-20.5333" y1="64.1269" x2="45.9574" y2="-4.38165" gradientUnits="userSpaceOnUse">
<stop stop-color="#EE3B5C"/>
<stop offset="0.49" stop-color="#F0685B"/>
<stop offset="1" stop-color="#F6CD55"/>
</linearGradient>
<linearGradient id="paint4_linear_836_51" x1="6.17896" y1="90.0563" x2="72.6697" y2="21.5526" gradientUnits="userSpaceOnUse">
<stop stop-color="#EE3B5C"/>
<stop offset="0.49" stop-color="#F0685B"/>
<stop offset="1" stop-color="#F6CD55"/>
</linearGradient>
<clipPath id="clip0_836_51">
<rect width="405.446" height="100.389" fill="white"/>
</clipPath>
</defs>
</svg>
